<svg width="281" height="270" viewBox="0 0 281 270" fill="none" xmlns="http://www.w3.org/2000/svg">
<g id="kids_small">
<path id="Ellipse 4" d="M280.5 160.5C280.5 211.586 211.573 238.82 139.5 238.82C67.4268 238.82 0 135.586 0 84.5C0 33.4137 59.9268 64.8204 132 64.8204C257.5 33 280.5 109.414 280.5 160.5Z" fill="#CEEAFA"/>
<g id="zan_malki 1" clip-path="url(#clip0_85_32)">
<g id="Layer_x0020_1">
<path id="Vector" fill-rule="evenodd" clip-rule="evenodd" d="M115.725 49.674C106.06 51.9377 92.3776 64.3876 94.2605 75.4542C94.2605 76.586 96.8965 89.4132 97.1476 90.545C87.7331 85.389 81.8334 94.695 81.9589 95.701C80.9547 98.7192 83.5908 113.181 101.918 112.049C102.42 114.565 105.181 116.577 104.805 119.469C110.955 122.11 116.981 122.739 121.876 123.871C127.148 124.374 128.027 123.871 133.676 123.242C161.668 121.984 187.275 101.486 176.48 69.9209C178.74 36.218 121.876 33.9544 115.725 49.674Z" fill="#F9D8B6" stroke="black" stroke-width="0.866325" stroke-miterlimit="2.61313" stroke-linecap="round" stroke-linejoin="round"/>
<path id="Vector_2" fill-rule="evenodd" clip-rule="evenodd" d="M132.169 123.493C131.291 127.769 133.299 133.051 138.446 131.416C142.839 132.045 143.843 126.889 143.341 122.361C141.082 122.739 135.056 123.996 132.169 123.493Z" fill="#F9D8B6" stroke="black" stroke-width="0.866325" stroke-miterlimit="2.61313" stroke-linecap="round" stroke-linejoin="round"/>
<path id="Vector_3" fill-rule="evenodd" clip-rule="evenodd" d="M110.955 90.2934C111.458 84.1313 114.972 78.598 120.37 77.4662L121.876 76.2087C124.387 74.0708 139.575 66.1481 139.952 66.3996C141.082 66.7769 142.463 67.1542 143.843 67.5314C150.998 69.0405 154.513 66.9026 156.27 61.2436C159.032 61.2436 164.43 65.3936 170.957 65.7708C173.593 65.8966 174.221 65.2678 175.727 66.0223C175.225 63.0042 174.472 59.483 173.844 56.7163C170.831 58.4769 170.957 59.3572 166.564 59.1057C162.923 58.98 159.66 56.8421 156.27 55.9618C150.496 65.0163 143.216 59.7345 136.437 58.7284C134.68 63.633 131.918 65.142 125.516 64.0102C123.383 66.3996 124.387 68.9148 118.613 71.0526C114.345 72.6875 109.073 69.9208 106.185 70.5496C106.185 74.8253 105.432 75.9571 103.298 77.592C104.805 81.3647 107.19 85.2631 105.558 90.1677L110.955 90.2934Z" fill="#F1B683"/>
<path id="Vector_4" fill-rule="evenodd" clip-rule="evenodd" d="M133.676 123.242C127.776 122.99 126.646 122.487 122.127 119.972C115.976 116.702 111.96 111.798 110.579 104.756C109.951 101.612 109.575 95.8268 110.579 92.8087C112.336 92.1799 109.073 90.2935 110.955 90.2935C109.324 89.4132 107.817 87.2754 106.436 88.4072C105.181 89.539 103.8 91.6769 102.169 91.0481C89.4905 85.6405 71.5402 94.3178 86.6034 107.648C90.8713 111.421 95.6412 112.049 101.918 112.049L102.294 112.93C103.675 115.193 104.805 115.068 104.805 119.469C106.813 121.984 129.533 123.996 133.676 123.242Z" fill="#F1B683"/>
<path id="Vector_5" fill-rule="evenodd" clip-rule="evenodd" d="M102.922 7.16818C99.2815 6.41364 94.8881 3.64699 88.3607 8.42575C84.3439 11.1924 81.5823 14.3363 80.8292 19.9954C77.8165 20.2469 76.5613 20.1211 74.6784 21.8817C73.2976 23.1393 72.0423 24.8999 71.5402 27.1635C67.5234 27.1635 65.2639 26.912 62.3768 28.7984C57.2303 32.068 56.1005 38.7332 57.6068 44.6437C58.8621 49.5482 60.6195 49.7998 61.1216 52.5664C54.4687 54.9558 49.8242 65.6451 55.2218 75.5799C56.7282 78.3466 58.9876 79.4784 60.3684 81.742C58.9876 84.3829 57.8579 85.7662 57.8579 89.7904C57.9834 98.0904 65.1384 100.606 71.1637 103.246C74.3018 104.63 73.0466 108.905 78.0676 112.427C83.5907 116.325 82.21 113.684 84.595 116.451C87.231 119.469 93.1307 123.996 99.2815 123.619C108.068 123.116 104.052 112.552 100.537 111.798C96.6455 111.043 95.5157 112.175 91.3734 110.163C84.595 106.893 79.3229 99.2222 82.3355 94.1919C85.9757 88.1556 94.7626 91.6768 105.558 90.1677C109.324 84.3829 103.926 80.3587 103.298 77.592C106.562 75.0769 106.185 74.5739 106.185 70.4239C108.821 69.6693 115.349 74.8254 122.755 68.6633C124.261 67.4057 124.136 65.8966 125.516 64.0103C131.165 65.0163 135.182 64.5133 136.437 58.7285C140.58 59.2315 148.864 63.5073 153.007 59.7346C154.387 58.477 154.89 57.2194 156.27 55.9618C158.153 56.0876 159.409 57.2194 161.291 57.8482C171.208 61.2436 173.216 57.7224 176.731 53.1952C179.869 53.321 181.376 54.83 185.016 53.5725C191.167 51.1831 191.041 44.8952 188.405 40.6195C186.899 38.3559 184.514 37.0983 183.51 35.3377C184.514 30.9362 187.275 28.7984 183.133 23.6423C180.497 20.4984 177.359 19.3666 171.836 19.3666C170.329 19.1151 170.455 17.2287 169.074 14.9651C167.442 12.0727 163.3 10.0606 159.785 9.93483C156.898 9.80908 156.27 10.9409 154.011 11.3182C152.756 10.1863 151.375 4.7788 142.462 4.65304C135.182 4.52729 137.441 8.80302 132.923 5.28183C132.044 4.65304 131.04 4.15002 129.784 3.52123C123.508 0.503067 114.721 -0.502988 107.943 3.0182C105.307 4.40153 104.554 5.53334 102.922 7.16818Z" fill="#896B36" stroke="black" stroke-width="0.866325" stroke-miterlimit="2.61313" stroke-linecap="round" stroke-linejoin="round"/>
<path id="Vector_6" fill-rule="evenodd" clip-rule="evenodd" d="M117.232 123.116C122.755 128.775 118.738 146.758 116.981 153.926C115.474 159.837 117.483 160.34 111.332 160.717L111.583 169.646C167.442 171.532 162.672 160.089 160.789 152.795C160.413 151.16 160.036 149.651 159.409 148.142C158.655 146.507 158.404 145.501 157.902 143.866C156.772 140.596 155.768 137.955 154.387 135.314C152.881 132.296 151.5 130.536 149.743 127.895C148.99 127.014 145.475 120.978 143.843 122.613C142.714 123.745 145.475 130.913 138.446 131.416C132.671 131.919 132.169 128.901 131.793 124.122L117.232 123.116Z" fill="#E21722" stroke="black" stroke-width="0.866325" stroke-miterlimit="2.61313" stroke-linecap="round" stroke-linejoin="round"/>
<path id="Vector_7" fill-rule="evenodd" clip-rule="evenodd" d="M96.52 150.405C98.7794 151.286 113.592 155.813 116.604 155.561C117.859 149.776 119.24 145.249 119.993 139.213C120.495 135.943 120.746 129.781 118.989 126.26C118.236 124.877 118.236 123.493 116.73 123.242C109.951 121.607 104.177 128.272 102.922 134.56C101.667 139.213 96.52 145.752 96.52 150.405Z" fill="#E21722" stroke="black" stroke-width="0.866325" stroke-miterlimit="2.61313" stroke-linecap="round" stroke-linejoin="round"/>
<path id="Vector_8" fill-rule="evenodd" clip-rule="evenodd" d="M104.428 153.926C104.428 149.273 106.688 141.351 107.943 136.698C109.198 132.674 112.085 124.751 115.725 123.745C115.6 123.745 115.474 123.619 115.474 123.619L110.83 123.996C105.683 126.26 98.0263 144.872 96.52 150.405C99.0305 151.537 101.164 152.92 104.428 153.926Z" fill="#A8111D"/>
<path id="Vector_9" fill-rule="evenodd" clip-rule="evenodd" d="M159.785 149.273C162.923 148.016 169.074 142.105 169.827 137.201C167.693 134.937 149.869 123.745 146.228 123.368C148.237 126.763 153.007 132.296 154.89 136.195C157.526 141.477 158.53 146.507 159.785 149.273Z" fill="#E21722" stroke="#2B2A29" stroke-width="0.866325" stroke-miterlimit="2.61313" stroke-linecap="round" stroke-linejoin="round"/>
<path id="Vector_10" fill-rule="evenodd" clip-rule="evenodd" d="M170.957 82.748C167.568 85.0117 169.827 91.8025 173.342 90.0419C175.978 88.7844 174.974 82.4965 172.212 82.3708C169.953 82.245 171.71 82.245 170.957 82.748Z" fill="black" stroke="black" stroke-width="0.866325" stroke-miterlimit="2.61313" stroke-linecap="round" stroke-linejoin="round"/>
<path id="Vector_11" fill-rule="evenodd" clip-rule="evenodd" d="M131.542 89.7905C131.542 95.0722 136.437 95.5753 136.814 91.048C137.316 85.0117 131.542 84.6344 131.542 89.7905Z" fill="black" stroke="black" stroke-width="0.866325" stroke-miterlimit="2.61313" stroke-linecap="round" stroke-linejoin="round"/>
<path id="Vector_12" fill-rule="evenodd" clip-rule="evenodd" d="M105.056 158.328C107.817 159.083 111.96 159.711 115.6 158.957L116.102 156.693C112.587 156.693 108.068 155.561 105.558 155.813L103.675 156.19C103.8 157.825 103.424 156.819 105.056 158.328Z" fill="#00A2DE" stroke="black" stroke-width="0.866325" stroke-miterlimit="2.61313" stroke-linecap="round" stroke-linejoin="round"/>
<path id="Vector_13" fill-rule="evenodd" clip-rule="evenodd" d="M106.437 159.963C106.437 164.239 106.06 169.017 110.202 169.269C110.453 167.257 110.328 164.742 110.328 162.729C110.328 159.334 109.7 160.466 106.437 159.963Z" fill="#FEFEFE" stroke="black" stroke-width="0.866325" stroke-miterlimit="2.61313" stroke-linecap="round" stroke-linejoin="round"/>
<path id="Vector_14" fill-rule="evenodd" clip-rule="evenodd" d="M105.056 158.328C103.424 156.819 103.8 157.825 103.675 156.19L105.558 155.813L96.1434 151.789L95.3902 155.184C98.6539 156.316 101.667 157.699 105.056 158.328Z" fill="#0184B1" stroke="black" stroke-width="0.866325" stroke-miterlimit="2.61313" stroke-linecap="round" stroke-linejoin="round"/>
<path id="Vector_15" fill-rule="evenodd" clip-rule="evenodd" d="M150.371 114.942C138.069 116.199 141.96 114.439 132.546 114.187C135.433 117.583 146.228 118.84 150.371 114.942Z" fill="#F08EB9" stroke="black" stroke-width="0.866325" stroke-miterlimit="2.61313" stroke-linecap="round" stroke-linejoin="round"/>
<path id="Vector_16" fill-rule="evenodd" clip-rule="evenodd" d="M160.287 148.142C162.17 147.01 164.932 144.872 165.936 143.237C167.317 141.099 168.07 139.967 169.2 137.578L167.693 136.321C165.308 140.471 166.689 140.093 162.923 145.375C162.17 146.507 160.789 147.261 160.287 148.142Z" fill="#00A2DE"/>
<path id="Vector_17" fill-rule="evenodd" clip-rule="evenodd" d="M53.8411 175.934C81.5823 175.934 109.324 175.934 137.19 175.934C164.932 175.934 192.673 175.934 220.414 175.934C223.05 175.934 225.812 177.946 226.314 180.461C227.193 184.234 228.071 188.007 228.95 191.905C229.829 195.678 230.707 199.45 231.586 203.223C232.214 205.738 230.331 207.75 227.444 207.75C197.066 207.75 166.689 207.75 136.437 207.75C106.06 207.75 75.6826 207.75 45.4308 207.75C42.5437 207.75 40.7864 205.738 41.414 203.223C42.5437 199.45 43.5479 195.678 44.5522 191.905C45.6819 188.007 46.6861 184.234 47.8158 180.461C48.4435 177.946 51.205 175.934 53.8411 175.934Z" fill="#BD805C" stroke="black" stroke-width="0.866325" stroke-miterlimit="2.61313" stroke-linecap="round" stroke-linejoin="round"/>
<path id="Vector_18" fill-rule="evenodd" clip-rule="evenodd" d="M52.7114 208.128H225.31V269.246H52.7114V208.128Z" fill="#BD805C" stroke="black" stroke-width="0.866325" stroke-miterlimit="2.61313" stroke-linecap="round" stroke-linejoin="round"/>
<path id="Vector_19" fill-rule="evenodd" clip-rule="evenodd" d="M52.7114 208.128H225.31V216.805H52.7114V208.128Z" fill="#8E4021" stroke="black" stroke-width="0.866325" stroke-miterlimit="2.61313" stroke-linecap="round" stroke-linejoin="round"/>
<path id="Vector_20" fill-rule="evenodd" clip-rule="evenodd" d="M48.6945 203.726C77.9421 203.726 107.19 203.726 136.437 203.726C165.685 203.726 194.932 203.726 224.306 203.726C228.824 203.726 231.837 200.457 230.833 196.432C229.201 190.27 227.569 184.234 225.937 178.198C224.431 172.161 222.799 165.999 221.167 159.963C220.163 155.939 216.021 152.669 212.129 152.669C187.275 152.669 162.547 152.669 137.693 152.669C112.964 152.669 88.1097 152.669 63.3811 152.669C59.3642 152.669 55.2219 155.939 53.9666 159.963C52.0837 165.999 50.0753 172.161 48.1924 178.198C46.3095 184.234 44.4266 190.27 42.5437 196.432C41.2885 200.331 44.0501 203.726 48.6945 203.726Z" fill="#BD805C" stroke="black" stroke-width="0.866325" stroke-miterlimit="2.61313" stroke-linecap="round" stroke-linejoin="round"/>
<path id="Vector_21" fill-rule="evenodd" clip-rule="evenodd" d="M192.045 192.785C187.777 170.778 189.284 180.084 185.392 160.089C177.861 153.549 150.496 148.393 137.441 162.101L133.299 199.199C134.68 198.696 138.32 195.929 142.211 194.043C154.764 187.881 176.355 185.366 192.045 192.785Z" fill="#E5CF80" stroke="#2B2A29" stroke-width="0.866325" stroke-miterlimit="2.61313" stroke-linecap="round" stroke-linejoin="round"/>
<path id="Vector_22" fill-rule="evenodd" clip-rule="evenodd" d="M114.847 190.647C124.387 193.791 131.667 198.696 133.299 199.199L137.441 161.472C136.061 159.208 132.295 156.442 128.278 154.932C128.278 155.184 109.324 147.136 96.1434 153.423C96.1434 154.555 80.2016 185.366 79.6995 189.39C95.5158 186.372 98.7794 184.737 114.847 190.647Z" fill="#E5CF80" stroke="black" stroke-width="0.866325" stroke-miterlimit="2.61313" stroke-linecap="round" stroke-linejoin="round"/>
<path id="Vector_23" fill-rule="evenodd" clip-rule="evenodd" d="M183.51 159.837C183.635 164.742 189.535 182.851 190.288 190.019C188.405 188.132 185.643 179.581 184.765 176.06C184.012 173.167 182.38 164.742 182.756 161.598C182.882 159.586 182.38 160.466 183.51 159.837ZM148.111 156.567C147.986 156.693 147.86 156.693 147.86 156.945C147.86 157.07 147.735 157.07 147.609 157.196C147.233 157.699 147.358 157.573 146.981 158.076C139.826 166.628 143.592 168.514 141.835 179.329C139.45 193.54 148.111 185.869 159.534 185.743C165.308 185.743 167.568 185.869 172.965 187.001C174.346 187.378 175.601 186.623 176.606 187.881C177.108 188.132 182.756 189.013 184.137 189.264C186.648 189.893 189.033 191.151 191.543 191.905L186.397 167.382C186.02 165.496 185.518 159.711 183.51 159.837L182.129 158.454C181.878 158.328 180.748 157.699 180.246 157.448C170.831 152.795 155.643 152.795 148.111 156.567Z" fill="#F2E6B5"/>
<path id="Vector_24" fill-rule="evenodd" clip-rule="evenodd" d="M84.3439 183.354C85.8502 179.078 87.8586 174.928 89.616 170.904L96.3944 155.436C97.1476 153.927 96.8965 154.052 98.6539 153.549C103.298 152.166 116.604 151.16 120.495 153.927C119.742 154.178 107.566 153.675 104.805 153.927C101.666 154.178 100.16 153.927 98.7794 156.442C96.0178 161.598 86.4778 180.838 84.3439 183.354ZM120.495 181.09C124.261 176.06 128.153 169.646 129.031 162.729C129.533 158.831 128.78 158.58 128.278 156.693C128.278 156.567 128.278 156.19 128.153 156.064C125.768 153.927 116.981 152.417 114.094 151.914C110.077 151.16 99.2815 151.914 96.3944 153.675C93.1307 160.969 81.5823 184.108 80.2015 188.761C92.3776 181.719 115.474 185.995 120.495 181.09Z" fill="#F2E6B5"/>
<path id="Vector_25" fill-rule="evenodd" clip-rule="evenodd" d="M141.584 194.672C144.345 194.546 150.245 193.037 153.76 192.408C176.606 188.384 187.777 195.803 192.798 196.432C192.547 194.294 192.798 195.049 192.045 192.785C186.522 189.767 170.204 188.007 162.672 188.51C155.517 189.641 145.726 192.785 141.584 194.672Z" fill="#EBB13A" stroke="#2B2A29" stroke-width="0.866325" stroke-miterlimit="2.61313" stroke-linecap="round" stroke-linejoin="round"/>
<path id="Vector_26" fill-rule="evenodd" clip-rule="evenodd" d="M84.3439 183.354C86.4779 180.838 96.0179 161.598 98.7794 156.442C100.16 153.926 101.667 154.178 104.805 153.926C107.566 153.675 119.742 154.178 120.495 153.926C116.604 151.16 103.298 152.166 98.6539 153.549C96.8965 154.052 97.1476 153.926 96.3944 155.436L89.616 170.904C87.8587 174.928 85.8502 179.078 84.3439 183.354Z" fill="white"/>
<path id="Vector_27" fill-rule="evenodd" clip-rule="evenodd" d="M79.825 192.785C97.1476 190.144 109.7 192.031 127.148 195.929C122.002 193.414 105.809 187.126 96.2689 186.749C92.8797 187.755 83.3397 187.252 79.6995 189.39C78.6953 190.019 80.0761 191.905 79.825 192.785Z" fill="#EBB13A" stroke="black" stroke-width="0.866325" stroke-miterlimit="2.61313" stroke-linecap="round" stroke-linejoin="round"/>
<path id="Vector_28" fill-rule="evenodd" clip-rule="evenodd" d="M183.51 159.837C182.38 160.466 182.882 159.586 182.756 161.598C182.38 164.742 184.012 173.167 184.765 176.06C185.643 179.581 188.405 188.132 190.288 190.019C189.535 182.851 183.635 164.742 183.51 159.837Z" fill="white"/>
<path id="Vector_29" fill-rule="evenodd" clip-rule="evenodd" d="M133.048 74.8254C142.086 74.8254 149.366 82.1193 149.366 91.1738C149.366 100.228 142.086 107.648 133.048 107.648C124.01 107.648 116.73 100.228 116.73 91.1738C116.73 82.1193 124.01 74.8254 133.048 74.8254Z" stroke="black" stroke-width="0.866325" stroke-miterlimit="2.61313" stroke-linecap="round" stroke-linejoin="round"/>
<path id="Vector_30" fill-rule="evenodd" clip-rule="evenodd" d="M173.593 70.9269C182.505 70.9269 189.66 78.095 189.66 87.0238C189.66 95.9525 182.505 103.121 173.593 103.121C164.806 103.121 157.651 95.9525 157.651 87.0238C157.651 78.095 164.806 70.9269 173.593 70.9269V70.9269Z" stroke="black" stroke-width="0.866325" stroke-miterlimit="2.61313" stroke-linecap="round" stroke-linejoin="round"/>
<path id="Vector_31" d="M149.241 88.9101C149.241 89.2874 151.249 87.9041 153.509 87.9041C155.894 87.9041 157.651 89.2874 157.651 88.9101" stroke="black" stroke-width="0.866325" stroke-miterlimit="2.61313" stroke-linecap="round" stroke-linejoin="round"/>
<path id="Vector_32" d="M116.73 91.1738C114.345 91.4253 108.822 86.1435 97.1476 90.545" stroke="#2B2A29" stroke-width="0.866325" stroke-miterlimit="2.61313" stroke-linecap="round" stroke-linejoin="round"/>
<path id="Vector_33" d="M189.158 82.8739C186.397 82.6224 181.501 82.8739 178.614 82.8739" stroke="#2B2A29" stroke-width="0.866325" stroke-miterlimit="2.61313" stroke-linecap="round" stroke-linejoin="round"/>
<path id="Vector_34" d="M166.438 143.363C169.953 144.369 193.301 153.549 193.175 153.675C191.167 155.184 173.719 165.622 173.216 166.376C172.463 167.005 170.957 167.634 170.329 168.64" stroke="black" stroke-width="0.866325" stroke-miterlimit="2.61313" stroke-linecap="round" stroke-linejoin="round"/>
<path id="Vector_35" fill-rule="evenodd" clip-rule="evenodd" d="M178.74 162.729C176.731 159.837 176.48 158.957 172.589 157.699C167.568 155.435 160.538 154.178 163.3 156.442L168.07 160.214C165.559 162.981 155.015 164.113 155.768 168.891C156.019 170.778 159.911 166.754 164.053 167.382C162.045 170.149 155.894 172.287 158.028 174.676C159.157 175.934 161.794 171.784 165.81 170.652C165.81 170.778 165.685 171.029 165.559 171.155L164.932 172.664C164.304 173.67 164.053 173.67 163.425 174.551C161.794 176.563 159.66 177.443 161.166 178.826C162.17 179.832 166.815 173.293 169.702 173.544C168.572 176.563 164.304 180.461 167.317 179.581C169.827 178.952 170.329 177.694 171.459 176.437C173.593 173.67 177.108 171.407 178.614 168.64C179.744 166.502 179.116 164.113 178.74 162.729Z" fill="#FAD8B6" stroke="black" stroke-width="0.866325" stroke-miterlimit="2.61313" stroke-linecap="round" stroke-linejoin="round"/>
<path id="Vector_36" d="M87.4821 101.737C89.8671 100.354 89.867 98.9707 96.3944 99.5995C96.8965 99.5995 99.156 101.36 99.407 102.995" stroke="#2B2A29" stroke-width="0.866325" stroke-miterlimit="2.61313" stroke-linecap="round" stroke-linejoin="round"/>
<path id="Vector_37" d="M96.3945 100.857C96.2689 104.881 96.1434 103.749 95.0137 105.133" stroke="black" stroke-width="0.866325" stroke-miterlimit="2.61313" stroke-linecap="round" stroke-linejoin="round"/>
</g>
</g>
</g>
<defs>
<clipPath id="clip0_85_32">
<rect width="193" height="270" fill="white" transform="translate(40)"/>
</clipPath>
</defs>
</svg>
