<svg width="316" height="278" viewBox="0 0 316 278" fill="none" xmlns="http://www.w3.org/2000/svg">
<g id="kids_big">
<path id="Ellipse 5" d="M316 180.846C316 133.304 220.573 83 148.5 83C76.4268 83 9 179.071 9 226.613C9 274.155 95.4268 269.887 167.5 269.887C293 299.5 316 228.388 316 180.846Z" fill="#CEEAFA"/>
<g id="zan_golemi 1" clip-path="url(#clip0_85_33)">
<g id="Layer_x0020_1">
<path id="Vector" fill-rule="evenodd" clip-rule="evenodd" d="M126.117 206.572C114.248 212.779 96.307 200.866 79.7813 201.232C75.5814 201.369 70.2403 195.481 69.0077 195.937L66.0404 196.348L61.3383 226.882L136.252 228.525L129.587 205.841L126.117 206.572Z" fill="#003399" stroke="black" stroke-width="0.892957" stroke-miterlimit="2.61313" stroke-linecap="round" stroke-linejoin="round"/>
<path id="Vector_2" fill-rule="evenodd" clip-rule="evenodd" d="M69.5099 86.216C68.6425 87.4483 52.7559 76.8596 59.9232 65.8144C64.0317 59.4703 72.5228 67.138 75.3075 69.42C75.8554 72.3867 65.31 52.4416 67.5012 45.8692C79.5074 32.7702 86.0355 18.3933 108.176 24.5548C131.458 15.381 151.545 19.6256 167.249 58.2836C171.449 107.485 124.063 126.198 85.7616 102.829C79.7813 99.1781 73.6185 93.1991 69.5099 86.216Z" fill="#FAD8B6" stroke="black" stroke-width="0.892957" stroke-miterlimit="2.61313" stroke-linecap="round" stroke-linejoin="round"/>
<path id="Vector_3" fill-rule="evenodd" clip-rule="evenodd" d="M137.302 97.9914C137.53 97.9001 137.941 97.6719 137.986 97.8545L139.904 97.5806C162.684 93.336 154.877 72.0672 153.69 65.6319C152.96 61.9806 152.275 59.6529 150.906 56.458L144.606 60.2006C139.265 63.3042 128.491 68.0052 122.1 66.5447L126.117 54.6323C125.661 54.678 125.478 54.6323 125.341 54.9062C124.382 56.7318 124.93 55.1344 124.382 55.5908C119.269 59.5616 118.402 61.9349 112.331 65.4949C109.409 67.1837 103.109 70.4242 99.6852 71.1544L100.096 68.0508C100.644 66.0883 100.644 66.2708 100.872 64.217C97.357 64.8103 94.3897 66.3165 90.418 67.0011C84.2095 68.0965 80.4661 66.8185 75.0793 66.1339L88.0898 49.2467L86.1725 60.9308C95.5766 63.1672 101.648 52.7611 105.574 43.9523C108.313 48.8816 103.748 58.1923 104.57 59.4703C106.761 61.3416 118.539 53.7652 120.959 52.8067C127.624 50.1139 132.873 43.1764 138.625 37.7908C137.484 45.8692 134.243 52.5785 132.873 57.5534C137.621 59.2421 139.082 57.5077 142.095 56.0016C148.075 53.0349 148.212 52.259 153.325 47.0559C157.662 49.6575 159.442 54.7693 158.027 60.2918C161.953 61.6611 163.642 59.5616 165.605 57.4165C166.883 64.3083 167.614 66.0883 166.381 74.8057C164.327 81.2868 162.592 87.7222 158.575 92.8796C156.201 96.3027 151.727 101.506 146.249 105.203C139.904 109.447 132.326 112.003 126.939 111.547C130.454 109.858 132.782 108.261 136.023 104.701C135.202 102.784 139.904 98.9499 137.302 97.9914Z" fill="#F4B883"/>
<path id="Vector_4" fill-rule="evenodd" clip-rule="evenodd" d="M103.337 48.7903C99.183 57.6447 89.3224 66.1796 81.1509 66.2708L86.1725 55.6365C87.3594 52.4416 86.8572 52.5329 86.3094 51.6657C83.0226 55.819 77.7727 64.0801 75.3075 69.4201C74.3489 68.7355 63.21 57.8729 59.3753 66.8642C56.0885 73.4365 60.2427 80.7391 65.5382 83.9796C69.7381 87.0376 69.9207 85.1206 72.5228 89.5478C74.2119 92.3776 75.901 94.2488 78.1836 96.4853C82.6117 100.867 88.0442 105.02 94.481 107.485C89.0941 109.082 70.149 107.667 63.7122 105.522C63.8035 102.145 64.6709 99.954 63.0731 97.9914L60.8818 104.975L50.8843 102.419C52.3907 98.4022 55.3581 93.2904 53.8516 89.2283C51.3864 91.3735 52.619 94.6596 47.1865 100.776L42.3475 98.4935C44.5388 92.9253 46.8213 90.917 47.78 83.5688C48.4191 78.7309 47.5517 73.3909 47.4148 68.3703C47.0496 48.1057 51.8429 23.8703 69.1447 11.4559C72.6598 8.94561 76.4032 7.66766 81.3791 6.11586C82.1552 5.88765 93.5679 2.00816 93.7505 1.87124C104.752 1.96252 109.318 -0.912871 125.889 2.60149C148.121 7.25689 163.003 17.8913 170.262 38.9318C173.183 47.4667 175.192 59.2421 170.353 69.2375C169.166 67.1837 168.938 66.1339 167.979 63.6237C166.929 60.7939 166.564 59.5616 164.418 57.7816C163.049 60.7026 161.862 61.2503 158.986 61.9349C159.26 56.7318 157.16 50.5247 152.184 47.9231C149.81 49.9313 147.71 54.5867 141.684 57.097C138.215 58.5575 133.01 61.4329 127.989 60.9765C133.878 54.4498 135.384 51.2549 137.712 41.1682C135.749 41.8072 136.845 40.8031 134.015 45.0934C126.984 55.7277 113.517 59.2421 102.105 62.437C104.25 55.9103 104.798 56.8688 106.168 48.8359C106.715 45.778 106.487 45.3216 105.574 43.9523L103.337 48.7903Z" fill="#C45220" stroke="black" stroke-width="0.892957" stroke-miterlimit="2.61313" stroke-linecap="round" stroke-linejoin="round"/>
<path id="Vector_5" fill-rule="evenodd" clip-rule="evenodd" d="M109.728 118.895C114.43 120.264 114.796 116.02 115.252 111.638C128.445 113.829 131.96 193.244 130.956 205.157C116.165 213.098 83.6617 204.837 66.0404 196.348C65.0817 189.593 81.8813 108.032 107.126 110.588C106.852 115.289 104.981 117.298 109.728 118.895Z" fill="#F4A42D" stroke="black" stroke-width="0.892957" stroke-miterlimit="2.61313" stroke-linecap="round" stroke-linejoin="round"/>
<path id="Vector_6" fill-rule="evenodd" clip-rule="evenodd" d="M87.9985 181.104C87.0398 184.664 86.0355 189.867 85.8073 193.427C85.579 196.713 86.9942 201.323 88.8202 202.783C80.3291 200.456 74.075 198.311 66.4512 194.796C68.9164 180.647 73.3445 165.632 77.6357 151.894C80.74 142.035 85.6247 128.799 91.468 120.127L94.5723 116.796C94.2527 117.298 93.9788 117.8 93.7049 118.302C97.1287 115.426 102.607 116.613 103.931 121.907C98.27 123.733 95.3483 123.277 93.0201 135.372C95.0288 164.673 99.4569 137.882 87.9985 181.104Z" fill="#E6951C"/>
<path id="Vector_7" fill-rule="evenodd" clip-rule="evenodd" d="M171.996 101.78L167.933 104.336C166.244 105.111 164.966 105.796 163.049 106.207C162.684 104.153 162.638 100.091 161.131 98.4022C159.671 100.41 160.173 104.518 160.127 107.028L152.914 109.402L152.686 105.34C151.18 105.979 151.819 105.522 150.723 107.165C149.217 109.356 150.54 110.588 144.697 111.319C141.228 111.729 136.891 112.323 133.513 111.866C143.099 110.908 154.969 101.734 160.629 92.971C163.049 89.2284 164.144 84.3448 166.199 81.1956C166.929 88.9545 167.066 96.4397 171.996 101.78Z" fill="#C45220" stroke="black" stroke-width="0.892957" stroke-miterlimit="2.61313" stroke-linecap="round" stroke-linejoin="round"/>
<path id="Vector_8" fill-rule="evenodd" clip-rule="evenodd" d="M138.306 123.733C140.223 125.102 139.63 125.513 138.306 128.343C137.667 129.758 136.526 131.538 135.704 132.816C133.604 136.011 131.458 137.836 129.358 140.712C127.304 138.932 126.939 142.628 126.026 137.608C124.748 130.351 124.793 131.127 122.693 123.003C121.917 121.223 122.009 119.99 120.091 116.065C119.635 114.559 118.265 114.65 117.946 113.236C121.506 114.559 136.206 121.588 138.306 123.733Z" fill="#F4A42D" stroke="black" stroke-width="0.892957" stroke-miterlimit="2.61313" stroke-linecap="round" stroke-linejoin="round"/>
<path id="Vector_9" fill-rule="evenodd" clip-rule="evenodd" d="M110.961 96.896C114.613 98.1739 118.585 100.365 122.648 101.506C126.574 102.601 131.276 102.692 135.339 103.058C132.736 106.252 126.026 109.812 120.685 108.489C114.567 106.983 111.783 101.825 110.961 96.896Z" fill="#FDFDFD" stroke="black" stroke-width="0.892957" stroke-miterlimit="2.61313" stroke-linecap="round" stroke-linejoin="round"/>
<path id="Vector_10" fill-rule="evenodd" clip-rule="evenodd" d="M111.874 111.547C106.898 111.821 95.7592 107.439 90.3267 104.244C86.9942 102.327 85.579 101.597 84.3008 99.4062C92.9288 103.879 98.27 105.522 107.263 107.622L107.857 106.846L114.065 111.958L111.874 111.547Z" fill="#F4B883"/>
<path id="Vector_11" fill-rule="evenodd" clip-rule="evenodd" d="M106.578 117.435L107.126 110.588L115.252 111.638C115.07 119.032 112.604 121.588 106.578 117.435Z" fill="#FAD8B6"/>
<path id="Vector_12" fill-rule="evenodd" clip-rule="evenodd" d="M129.358 140.711C128.491 140.209 127.761 140.255 126.528 140.529C126.254 138.338 125.341 135.189 124.839 132.633C124.428 130.305 123.835 127.932 123.15 125.513C122.237 122.09 120.456 114.97 118.083 113.464C120.137 114.103 121.05 116.248 121.917 117.982C125.524 125.285 125.067 126.335 126.665 133.5C127.806 138.429 128.354 139.16 129.358 140.711Z" fill="#E6951C"/>
<path id="Vector_13" fill-rule="evenodd" clip-rule="evenodd" d="M153.69 78.9134C154.877 77.0877 154.923 76.8595 156.977 76.5857C159.716 78.6852 158.666 83.6144 156.475 83.8883C154.238 84.2078 153.143 82.0626 153.69 78.9134Z" fill="#2A2423"/>
<path id="Vector_14" fill-rule="evenodd" clip-rule="evenodd" d="M127.395 80.2827C125.341 81.1043 124.474 79.4612 124.2 77.3617C124.017 75.9012 124.611 73.6648 126.071 73.0714C131.184 70.9719 129.815 79.3699 127.395 80.2827Z" fill="#2A2423"/>
<path id="Vector_15" d="M312.967 267.822H1.07901V277.178H312.967V267.822Z" fill="#A04831" stroke="black" stroke-width="0.892957" stroke-miterlimit="2.61313" stroke-linecap="round" stroke-linejoin="round"/>
<path id="Vector_16" fill-rule="evenodd" clip-rule="evenodd" d="M249.42 198.128C249.101 199.588 247.731 205.567 247.777 207.074C251.064 207.758 253.986 208.991 256.953 209.127C258.049 204.518 258.185 193.564 257.181 189.684C254.944 181.286 244.079 181.834 242.208 182.929L234.127 185.942C234.584 188.361 234.082 191.784 232.667 193.655C230.704 196.348 228.558 196.987 227.599 194.887C226.367 192.195 227.417 190.688 227.508 186.718C223.673 186.535 218.15 187.904 214.863 188.908C212.078 189.73 207.924 190.643 205.596 191.829C205.732 193.427 206.143 194.431 206.691 195.618C207.787 197.124 208.517 198.082 209.795 198.995C210.708 198.63 210.937 198.311 211.576 197.945C214.269 196.439 215.502 195.161 216.871 195.709L210.617 221.679C230.384 224.372 239.56 225.65 255.401 227.84L254.396 208.762L247.777 207.074C247.914 205.065 248.142 203.148 248.644 201.14C249.147 199.132 249.466 196.485 250.151 193.746C250.242 194.02 249.512 197.672 249.42 198.128Z" fill="#0D175F" stroke="#2B2A29" stroke-width="0.892957" stroke-miterlimit="2.61313"/>
<path id="Vector_17" fill-rule="evenodd" clip-rule="evenodd" d="M181.583 153.354C181.629 160.292 183.774 164.627 185.555 168.37C187.152 171.747 191.535 176.175 195.689 178.822C216.323 192.697 250.06 187.996 255.812 168.233C260.422 168.233 262.751 163.03 262.248 158.877C261.883 155.773 260.011 153.947 258.048 153.4C256.451 152.989 254.168 153.719 252.296 157.599C266.403 135.143 223.673 112.46 193.589 124.372C191.444 124.372 182.085 140.757 181.948 148.927L181.583 153.354Z" fill="#B66D15" stroke="#2B2A29" stroke-width="0.892957" stroke-miterlimit="2.61313"/>
<path id="Vector_18" fill-rule="evenodd" clip-rule="evenodd" d="M123.835 179.187C122.922 183.386 125.25 192.971 126.117 197.809L130.682 223.002C131.367 227.019 131.321 227.749 136.252 228.525C143.693 229.666 152.686 231.994 161.405 233.454L181.446 237.288C188.294 238.429 185.783 231.674 184.687 225.148L179.666 194.568C178.524 187.129 176.333 186.718 168.253 185.349C155.242 183.249 137.393 179.963 124.93 178.274L123.835 179.187Z" fill="#B0B0B0"/>
<path id="Vector_19" fill-rule="evenodd" clip-rule="evenodd" d="M227.508 186.718C229.425 186.763 232.712 185.577 234.127 185.942L233.945 189C233.214 195.39 229.38 196.713 228.147 195.253C226.732 193.564 227.371 189.274 227.508 186.718Z" fill="#090707"/>
<path id="Vector_20" d="M206.691 195.618L174.69 205.111" stroke="#2B2A29" stroke-width="2.07552" stroke-miterlimit="2.61313"/>
<path id="Vector_21" fill-rule="evenodd" clip-rule="evenodd" d="M184.687 225.148C185.783 231.674 188.294 238.475 181.446 237.288L161.405 233.454C152.686 231.994 143.693 229.666 136.252 228.525C131.321 227.749 131.367 227.019 130.682 223.002L126.117 197.809C125.25 192.971 122.922 183.386 123.835 179.187L124.93 178.274C137.393 179.963 155.242 183.249 168.253 185.349C176.333 186.718 178.524 187.129 179.666 194.568L184.687 225.148Z" fill="#B0B0B0"/>
<path id="Vector_22" fill-rule="evenodd" clip-rule="evenodd" d="M238.053 184.755C239.332 186.672 237.916 191.966 236.912 194.066C234.219 199.954 228.01 202.555 225.317 195.709C224.039 192.469 224.358 190.962 225.043 187.083C221.208 186.9 218.15 187.904 214.863 188.909C212.078 189.73 207.924 190.643 205.596 191.83C205.732 193.427 206.28 194.431 207.011 195.435C212.397 197.398 214.087 193.473 218.241 192.879L216.871 195.709L214.771 204.472L210.891 221.724C226.138 223.459 231.48 223.733 247.777 226.38C249.101 223.733 251.201 211.181 251.11 208.625C249.923 208.169 248.736 207.713 247.457 207.348C247.412 206.07 248.142 203.149 248.644 201.14C249.147 199.132 249.329 195.344 250.151 193.746C250.379 194.203 250.333 193.838 250.379 194.614L250.014 197.9C249.786 200.091 249.649 201.186 249.877 203.149C254.625 203.468 254.625 203.468 255.355 198.539C255.72 196.074 255.583 192.788 254.944 190.689C253.757 186.992 248.051 183.112 242.345 183.34L238.053 184.755Z" fill="#384C9A"/>
<path id="Vector_23" fill-rule="evenodd" clip-rule="evenodd" d="M34.176 221.816L281.787 222.637L312.967 267.822H1.07901L34.176 221.816Z" fill="#BD805C" stroke="black" stroke-width="0.892957" stroke-miterlimit="2.61313" stroke-linecap="round" stroke-linejoin="round"/>
<path id="Vector_24" fill-rule="evenodd" clip-rule="evenodd" d="M195.05 242.674L192.402 224.691L231.114 230.761V232.131L195.05 242.674Z" fill="#2B2A29" stroke="#2B2A29" stroke-width="1.25497" stroke-miterlimit="2.61313" stroke-linejoin="round"/>
<path id="Vector_25" fill-rule="evenodd" clip-rule="evenodd" d="M195.37 239.479L195.324 238.475C196.191 237.699 210.982 234.185 214.087 233.363C215.137 233.044 216.187 232.815 217.191 232.587C218.697 232.176 219.519 232.45 220.113 231.172C218.56 230.488 200.346 227.703 195.917 227.019C193.818 226.699 193.544 227.065 193.361 225.376C194.685 224.828 223.902 229.94 227.964 230.761C222.578 232.313 217.191 233.819 211.804 235.28C209.065 236.01 206.143 236.695 203.587 237.425C201.259 238.018 197.515 239.296 195.37 239.479Z" fill="#090707"/>
<path id="Vector_26" fill-rule="evenodd" clip-rule="evenodd" d="M195.872 242.446L195.689 240.711C197.059 239.935 202.537 238.749 204.454 238.247L226.275 232.45C227.508 232.176 229.425 231.127 230.384 231.811C230.11 233.089 230.886 232.633 226.641 233.774C225.134 234.185 223.673 234.641 222.349 235.052L195.872 242.446Z" fill="#090707"/>
<path id="Vector_27" fill-rule="evenodd" clip-rule="evenodd" d="M198.976 230.168L195.096 229.483C197.15 227.567 201.03 228.571 203.541 229.118C201.943 229.803 200.802 230.442 198.976 230.168Z" fill="#090707"/>
<path id="Vector_28" fill-rule="evenodd" clip-rule="evenodd" d="M202.948 230.807C203.724 230.122 204.956 229.803 205.961 229.62C207.102 229.438 208.928 229.849 210.252 230.351C207.239 231.674 206.509 231.4 202.948 230.807Z" fill="#090707"/>
<path id="Vector_29" fill-rule="evenodd" clip-rule="evenodd" d="M209.476 231.765C211.53 230.67 214.452 230.396 217.191 231.492C214.543 232.678 212.352 232.541 209.476 231.765Z" fill="#090707"/>
<path id="Vector_30" fill-rule="evenodd" clip-rule="evenodd" d="M200.711 232.541L198.246 231.994C200.254 231.081 201.213 231.492 203.724 232.085C202.446 232.77 202.4 232.815 200.711 232.541Z" fill="#090707"/>
<path id="Vector_31" fill-rule="evenodd" clip-rule="evenodd" d="M194.685 232.77C196.1 232.952 197.378 233.18 198.748 233.454C198.291 233.637 196.785 234.002 196.328 234.093C194.822 234.367 194.639 234.093 194.685 232.77Z" fill="#090707"/>
<path id="Vector_32" fill-rule="evenodd" clip-rule="evenodd" d="M195.37 237.014L194.959 235.782C196.009 235.508 196.146 235.371 197.378 235.554L199.433 235.964L195.37 237.014Z" fill="#090707"/>
<path id="Vector_33" fill-rule="evenodd" clip-rule="evenodd" d="M195.37 239.479C197.515 239.296 201.259 238.018 203.587 237.425C206.143 236.695 209.065 236.01 211.804 235.28C214.543 234.55 217.373 233.728 219.976 233.044L227.964 230.761C223.902 229.94 194.685 224.828 193.361 225.376C193.544 227.065 193.818 226.699 195.917 227.019C200.346 227.703 218.56 230.488 220.113 231.172C219.519 232.45 218.697 232.176 217.191 232.587C216.187 232.815 215.137 233.044 214.087 233.363C210.982 234.185 196.191 237.699 195.324 238.475L195.37 239.479Z" fill="#B0B0B0"/>
<path id="Vector_34" fill-rule="evenodd" clip-rule="evenodd" d="M230.019 232.678C231.708 232.176 231.114 231.766 231.114 231.035C230.475 230.944 211.393 236.375 204.454 238.247C202.537 238.749 198.337 239.935 195.689 240.711L195.872 242.446L230.019 232.678Z" fill="#787878"/>
<path id="Vector_35" fill-rule="evenodd" clip-rule="evenodd" d="M198.976 230.122C200.072 230.305 200.574 230.214 201.533 229.94L203.541 229.118C201.03 228.571 197.15 227.567 195.096 229.483L198.976 230.122Z" fill="#444444"/>
<path id="Vector_36" fill-rule="evenodd" clip-rule="evenodd" d="M209.476 231.765C212.352 232.541 214.543 232.678 217.191 231.492C214.452 230.396 211.53 230.67 209.476 231.765Z" fill="#444444"/>
<path id="Vector_37" fill-rule="evenodd" clip-rule="evenodd" d="M202.948 230.807C206.509 231.4 207.239 231.674 210.252 230.351C208.928 229.849 207.102 229.438 205.961 229.62C204.956 229.803 203.724 230.122 202.948 230.807Z" fill="#444444"/>
<path id="Vector_38" fill-rule="evenodd" clip-rule="evenodd" d="M200.711 232.541C202.4 232.815 202.446 232.77 203.724 232.085C201.213 231.492 200.3 231.081 198.246 231.994L200.711 232.541Z" fill="#444444"/>
<path id="Vector_39" fill-rule="evenodd" clip-rule="evenodd" d="M199.433 235.964L197.744 235.645L197.378 235.554C196.146 235.371 196.009 235.508 194.959 235.782L195.37 237.014L199.433 235.964Z" fill="#444444"/>
<path id="Vector_40" fill-rule="evenodd" clip-rule="evenodd" d="M194.685 232.77C194.639 234.093 194.822 234.367 196.328 234.093C196.785 234.002 198.291 233.637 198.748 233.454L197.059 233.135L196.009 232.952L194.685 232.77Z" fill="#444444"/>
<path id="Vector_41" fill-rule="evenodd" clip-rule="evenodd" d="M130.5 229.027L194.868 242.491L186.559 186.581L120.913 175.764C120.776 177.224 129.86 227.567 130.5 229.027Z" fill="#787878" stroke="#2B2A29" stroke-width="1.25497" stroke-miterlimit="2.61313" stroke-linejoin="round"/>
<path id="Vector_42" fill-rule="evenodd" clip-rule="evenodd" d="M213.265 210.771C213.63 209.219 213.858 208.169 214.269 206.572C227.508 210.999 240.747 211.82 254.214 210.497C254.259 211.866 254.351 213.281 254.396 214.65C240.473 215.609 226.96 214.559 213.265 210.771Z" fill="#FEFEFE"/>
<path id="Vector_43" fill-rule="evenodd" clip-rule="evenodd" d="M211.987 216.841C212.398 215.243 212.626 213.874 213.037 212.277C226.093 216.156 240.655 217.434 254.442 216.43C254.533 217.845 254.579 219.214 254.67 220.583C240.747 220.994 225.773 219.671 211.987 216.841Z" fill="#FEFEFE"/>
<path id="Vector_44" fill-rule="evenodd" clip-rule="evenodd" d="M210.617 210.588C213.174 211.866 213.584 209.264 217.236 208.58C216.826 208.762 209.704 214.194 209.476 214.376C207.056 216.521 205.048 219.032 205.413 220.081C207.148 220.447 209.065 217.982 211.119 216.384C213.539 214.468 214.406 213.555 217.282 212.596C210.754 215.974 213.584 222.09 215.456 219.853C216.46 220.173 214.589 214.376 220.067 214.285C217.465 213.874 214.543 218.575 216.917 220.766C217.373 221.222 218.56 220.812 219.017 220.538C219.656 219.077 218.606 216.248 222.03 216.019C220.021 216.43 219.473 217.252 219.245 220.31C220.706 222.637 226.275 222.135 226.047 219.579C225.956 218.484 224.175 217.982 222.715 218.758C225.134 215.152 225.545 217.252 228.238 214.422C229.334 213.327 230.338 210.725 230.064 209.173C229.517 206.389 221.71 203.696 216.415 205.704C214.954 206.024 214.315 206.572 212.991 207.302C211.667 208.078 210.526 209.264 210.617 210.588Z" fill="#B66D15" stroke="#2B2A29" stroke-width="0.892957" stroke-miterlimit="2.61313" stroke-linejoin="round"/>
<path id="Vector_45" fill-rule="evenodd" clip-rule="evenodd" d="M227.736 186.946C227.325 189.456 226.732 193.564 228.147 195.253C229.38 196.713 232.53 195.937 233.717 188.908L233.808 185.577C232.256 186.124 230.201 186.444 227.736 186.946Z" fill="#B66D15"/>
<path id="Vector_46" fill-rule="evenodd" clip-rule="evenodd" d="M193.224 159.196C193.178 160.565 193.27 163.304 194.32 163.988C196.465 165.449 197.059 162.254 197.104 160.657C197.47 154.313 193.361 153.856 193.224 159.196Z" fill="#090707"/>
<path id="Vector_47" fill-rule="evenodd" clip-rule="evenodd" d="M224.906 162.254C225.682 157.599 222.304 153.902 221.345 159.561C220.341 165.221 223.947 168.233 224.723 163.304L224.906 162.254Z" fill="#090707"/>
<path id="Vector_48" fill-rule="evenodd" clip-rule="evenodd" d="M201.167 178.274C201.441 181.286 207.969 183.523 211.439 183.386C214.68 183.295 220.478 181.332 221.254 179.096C219.839 179.05 219.473 179.689 218.423 180.237C208.472 185.714 203.039 178.594 201.167 178.274Z" fill="#090707"/>
<path id="Vector_49" fill-rule="evenodd" clip-rule="evenodd" d="M253.94 113.646C252.433 113.966 253.346 113.236 251.657 114.285C252.205 113.099 253.255 109.721 253.073 108.398C252.936 106.846 253.757 107.028 252.251 107.028C251.475 107.713 250.836 108.854 250.288 109.767C249.603 110.954 249.283 111.775 248.37 112.642C248.325 112.688 248.234 112.734 248.142 112.779C246.773 110.954 247.549 108.215 244.353 102.966C243.166 100.958 243.577 100.776 242.025 100.365C241.066 102.099 241.432 103.377 241.066 105.522C239.879 105.34 235.177 101.46 228.832 99.4976C215.274 95.253 200.254 99.6345 189.8 106.983L193.133 108.032C191.581 110.451 182.496 110.223 179.894 118.895C180.716 118.941 181.127 118.895 181.948 118.895L183.409 118.941C183.5 118.941 183.592 118.986 183.683 119.032L184.185 119.306C183.181 120.584 181.081 120.858 179.894 122.364C176.379 126.654 172.499 128.982 171.175 137.836C174.005 137.745 177.201 136.102 179.529 136.239C178.981 138.064 178.57 137.517 177.474 138.612C175.648 140.483 171.677 144.272 171.722 145.869C175.557 147.512 178.661 142.263 181.674 142.4C181.355 144.043 180.214 144.363 179.072 145.549C178.159 146.462 177.018 147.649 176.424 149.064C178.342 149.52 179.574 149.064 180.807 148.379L190.987 142.126C191.215 143.906 189.389 144.91 190.302 147.832C194.365 149.338 210.434 139.981 213.082 140.164C212.808 142.035 211.85 143.039 212.261 144.91C213.813 147.101 223.81 140.894 225.591 139.616C226.595 138.886 228.467 137.243 229.791 137.197C229.288 141.214 227.097 146.325 233.671 143.633C240.564 140.803 239.423 137.699 241.568 137.608C241.934 138.84 240.792 148.653 243.166 149.566C247.549 149.429 248.005 144.819 250.288 143.039C250.744 143.724 250.653 143.541 250.699 144.545C250.79 147.512 249.512 156.732 251.657 158.74C253.118 156.275 254.305 153.354 257.546 153.4C263.937 153.445 263.572 165.449 258.322 168.187C256.268 169.237 256.588 167.32 252.981 174.714C255.264 174.76 256.725 174.258 258.322 173.254C260.331 171.976 260.559 170.561 261.974 169.42C262.614 170.241 262.385 170.15 262.659 171.656C265.718 170.789 266.768 166.453 267.133 163.486C267.361 161.798 266.996 160.794 267.818 160.018C268.822 161.661 267.909 162.437 269.598 164.308C272.885 162.847 274.255 152.487 274.026 148.881C273.935 146.645 273.159 145.504 273.342 143.541C275.122 144.545 275.259 146.736 277.633 147.375C278.957 142.446 275.305 134.276 271.424 130.579C270.603 129.849 269.963 129.529 269.826 128.388C271.287 128.069 272.2 129.803 274.528 129.484C274.346 126.061 268.137 120.127 264.805 118.256C262.614 117.069 260.788 117.069 259.19 116.157C259.783 114.742 262.796 115.472 264.029 113.601C261.838 112.095 256.451 113.464 253.94 113.646Z" fill="#F38C00" stroke="#2B2A29" stroke-width="0.892957" stroke-miterlimit="2.61313" stroke-linejoin="round"/>
<path id="Vector_50" fill-rule="evenodd" clip-rule="evenodd" d="M181.857 150.661C183.957 150.114 184.779 148.836 187.335 148.744C186.468 152.396 187.152 153.4 191.215 153.308C195.644 153.217 202.172 149.748 205.687 147.238L208.608 145.458L208.745 146.371C208.745 146.462 208.745 146.554 208.7 146.645C208.7 147.056 205.961 152.487 213.767 150.753C215.593 150.342 216.78 149.612 218.15 148.836L224.13 145.184C225.499 144.363 224.952 144.272 226.915 144.226C226.549 145.778 225.773 147.786 226.686 148.927C229.243 152.122 234.264 146.188 237.734 146.462C237.642 147.147 234.082 157.234 241.477 155.682C243.303 155.317 243.668 154.495 245.677 154.495C244.81 162.026 245.084 164.491 250.562 166.042C249.877 172.204 246.088 176.266 242.71 179.141C238.327 182.838 234.766 184.116 229.791 185.942C233.717 185.394 236.821 184.755 239.879 183.523C245.86 181.104 250.562 177.316 253.027 173.573L254.442 170.652C255.172 169.42 255.446 168.598 255.812 168.233C256.679 167.457 257.227 168.37 258.87 166.955C262.522 164.034 262.751 157.234 259.966 154.632C255.081 151.665 253.849 156.366 251.749 159.242C249.831 157.416 250.333 155.454 250.197 152.989C250.014 150.57 250.379 145.915 250.288 143.039C248.781 144.545 245.951 150.57 243.166 149.566C240.29 147.786 242.208 140.073 241.568 137.608C240.747 137.197 240.29 139.068 238.419 140.712C236.775 142.172 235.497 143.039 233.169 143.815C231.069 144.5 229.699 144.454 229.288 143.633C228.649 142.446 229.06 139.936 229.791 137.197C227.873 137.699 215.137 148.06 212.261 144.91C211.439 142.857 212.215 143.496 212.717 140.529C209.019 140.62 191.033 151.802 189.892 147.329C189.344 145.504 190.485 143.861 190.942 142.263C190.942 142.172 184.322 146.782 182.268 147.877C182.177 149.338 181.857 149.657 181.857 150.661Z" fill="#764C1B"/>
<path id="Vector_51" fill-rule="evenodd" clip-rule="evenodd" d="M229.517 196.257C232.986 195.663 234.082 190.688 234.31 185.896L238.053 184.755C238.556 187.128 238.419 189.319 237.871 191.373C236.638 196.074 233.169 199.771 229.608 199.771C226.093 199.771 224.997 197.398 224.495 194.248C224.13 191.875 224.678 189.137 225.043 187.083L227.371 186.9C226.595 190.734 226.504 196.759 229.517 196.257Z" fill="#FEFEFE"/>
<path id="Vector_52" d="M251.11 208.625L246.955 218.073L230.064 210.086" stroke="#2B2A29" stroke-width="2.07552" stroke-miterlimit="2.61313" stroke-linejoin="round"/>
<path id="Vector_53" fill-rule="evenodd" clip-rule="evenodd" d="M77.0879 137.608C79.6444 129.986 91.0571 104.609 101.785 112.688C108.359 117.708 103.931 131.309 94.8918 147.512C92.518 143.541 80.6487 139.57 75.8553 138.201L77.0879 137.608Z" fill="#F4A42D" stroke="black" stroke-width="0.892957" stroke-miterlimit="2.61313" stroke-linecap="round" stroke-linejoin="round"/>
<path id="Vector_54" d="M134.699 134.23C141.045 142.4 153.234 149.657 155.105 150.616C158.529 152.35 185.007 153.856 181.583 153.354" stroke="black" stroke-width="0.892957" stroke-miterlimit="2.61313" stroke-linecap="round" stroke-linejoin="round"/>
<path id="Vector_55" d="M84.6203 141.168C85.0769 141.944 77.4531 164.125 80.3291 170.561C84.666 180.237 98.5896 193.792 109.5 193.792" stroke="black" stroke-width="0.892957" stroke-miterlimit="2.61313" stroke-linecap="round" stroke-linejoin="round"/>
<path id="Vector_56" fill-rule="evenodd" clip-rule="evenodd" d="M108.541 194.614C108.131 190.552 109.409 187.767 112.513 184.207C116.759 179.324 123.195 174.258 121.552 177.909L118.63 184.39C122.693 185.896 134.745 182.838 134.882 187.037C134.973 188.498 130.5 186.855 126.482 189.684C129.997 191.601 137.53 191.556 136.617 194.203C136.023 195.937 131.184 193.153 126.391 194.02C126.528 194.157 126.756 194.385 126.848 194.477L128.4 195.709C129.587 196.394 129.724 196.257 130.956 196.804C133.695 198.082 136.936 198.265 135.521 200.182C133.695 202.646 124.519 197.124 123.835 199.086C123.515 200.547 129.176 201.368 128.628 202.738C128.354 203.422 128.217 203.377 126.574 203.148L122.282 202.555C118.128 201.962 114.933 200.821 111.965 198.676C109.637 197.033 108.678 196.211 108.541 194.614Z" fill="#FAD8B6" stroke="black" stroke-width="0.892957" stroke-miterlimit="2.61313" stroke-linecap="round" stroke-linejoin="round"/>
</g>
</g>
</g>
<defs>
<clipPath id="clip0_85_33">
<rect width="314" height="278" fill="white"/>
</clipPath>
</defs>
</svg>
