<svg width="190" height="132" viewBox="0 0 190 132" fill="none" xmlns="http://www.w3.org/2000/svg">
<g id="lib_vector">
<path id="Ellipse 8" d="M170 86.8644C170 109.13 123.066 121 73.9893 121C24.9128 121 0.5 90.2657 0.5 68C0.5 45.7343 93.4234 12.5 142.5 12.5C227.956 -1.36877 170 64.5987 170 86.8644Z" fill="#CEEAFA"/>
<g id="library 1" clip-path="url(#clip0_85_28)">
<g id="Layer_x0020_1">
<path id="Vector" d="M81.3883 59.9165C81.2274 60.036 81.0069 60.2212 80.7626 60.4242C79.4338 61.5233 77.4913 63.13 75.936 62.0071C74.0114 60.6154 73.63 59.4745 73.4155 58.8175C73.3678 58.6742 73.3619 58.5965 73.35 58.5906L73.5109 58.3815L73.7671 57.6289L73.8565 57.6588L74.0233 57.7484C74.2497 57.9335 74.3272 58.1605 74.4285 58.483C74.6073 59.0146 74.9171 59.9464 76.5617 61.135C77.4436 61.7741 79.0107 60.478 80.0773 59.594C80.3157 59.3969 80.5362 59.2117 80.7507 59.0564L81.3883 59.9165Z" fill="#2B2A29"/>
<g id="_2180269019328">
<path id="Vector_2" fill-rule="evenodd" clip-rule="evenodd" d="M57.7263 122.029C59.3113 121.749 60.3779 121.211 61.2836 121.635C61.9391 121.946 62.678 123.081 62.678 123.66C62.678 125.046 60.2349 126.342 57.4999 126.826C54.7648 127.315 52.2681 126.861 52.2681 125.476C52.2681 124.09 54.9912 122.513 57.7263 122.029Z" fill="black" stroke="#2B2A29" stroke-width="2.07696" stroke-miterlimit="2.61313"/>
<path id="Vector_3" fill-rule="evenodd" clip-rule="evenodd" d="M60.0919 122.645C59.6569 122.238 59.9548 122.298 59.7284 121.743C58.483 121.844 57.3509 122.137 56.4333 122.668C56.6478 123.098 57.2317 123.481 57.4582 123.869C57.7084 124.305 57.8276 124.819 58.1196 125.267C59.6033 125.183 63.7327 123.618 60.8665 121.91C60.5209 122.322 60.652 122.513 60.0919 122.645V122.645Z" fill="#E2321F"/>
<path id="Vector_4" fill-rule="evenodd" clip-rule="evenodd" d="M57.4164 125.416C57.4105 121.617 53.0189 123.194 52.6137 125.601C54.0975 126.007 56.5405 125.93 57.4164 125.416Z" fill="#F9D8B5"/>
<path id="Vector_5" fill-rule="evenodd" clip-rule="evenodd" d="M61.5518 124.568C61.3849 124.663 60.795 124.807 60.5448 124.92C58.3222 125.936 58.0183 125.834 55.5275 126.276C54.3179 126.491 54.0319 126.169 53.293 126.407C54.6159 126.867 56.7193 126.539 57.9527 126.318C59.1802 126.097 60.9082 125.547 61.5518 124.568Z" fill="#F9D8B5"/>
</g>
<g id="_2180269023424">
<path id="Vector_6" fill-rule="evenodd" clip-rule="evenodd" d="M64.5848 124.018C66.1698 123.738 67.2364 123.2 68.1421 123.63C68.7975 123.935 69.5364 125.07 69.5364 125.649C69.5364 127.041 67.0934 128.331 64.3583 128.815C61.6233 129.304 59.1266 128.856 59.1266 127.465C59.1266 126.079 61.8497 124.508 64.5848 124.018V124.018Z" fill="black" stroke="#2B2A29" stroke-width="2.07696" stroke-miterlimit="2.61313"/>
<path id="Vector_7" fill-rule="evenodd" clip-rule="evenodd" d="M66.9504 124.64C66.5154 124.227 66.8133 124.287 66.5869 123.738C65.3415 123.833 64.2094 124.126 63.2917 124.657C63.5062 125.087 64.0902 125.47 64.3166 125.858C64.5669 126.3 64.6861 126.808 64.978 127.262C66.4617 127.172 70.5911 125.607 67.725 123.899C67.3794 124.317 67.5105 124.502 66.9504 124.64V124.64Z" fill="#E2321F"/>
<path id="Vector_8" fill-rule="evenodd" clip-rule="evenodd" d="M64.2749 127.405C64.2689 123.606 59.8774 125.183 59.4722 127.59C60.9559 127.996 63.399 127.919 64.2749 127.405Z" fill="#F9D8B5"/>
<path id="Vector_9" fill-rule="evenodd" clip-rule="evenodd" d="M68.4102 126.557C68.2434 126.652 67.6535 126.796 67.4032 126.915C65.1806 127.931 64.8767 127.829 62.386 128.265C61.1764 128.48 60.8904 128.158 60.1515 128.396C61.4743 128.862 63.5777 128.528 64.8112 128.307C66.0387 128.086 67.7667 127.536 68.4102 126.557V126.557Z" fill="#F9D8B5"/>
</g>
<g id="_2180269022784">
<path id="Vector_10" fill-rule="evenodd" clip-rule="evenodd" d="M165.573 121.259C165.799 122.71 165.43 122.955 164.709 123.355C163.404 124.078 162.212 124.795 160.847 125.452L156.927 127.489C156.605 127.65 156.283 127.811 155.949 127.996L152.928 129.454C152.487 129.657 151.182 130.451 150.807 130.009C150.569 129.728 150.569 129.149 150.587 128.701C150.622 127.787 152.04 127.297 153.107 126.742L158.22 124.389C159.542 123.821 165.096 121.289 165.573 121.259V121.259ZM116.741 115.298C117.444 114.211 119.995 114.282 121.157 114.288C129.666 114.3 140.481 115.967 149.043 116.773C148.93 117.155 148.626 117.203 148.406 118.201C148.036 119.891 148.328 122.077 148.608 123.761C148.799 124.89 149.21 126.186 149.341 127.25C147.172 127.076 141.625 126.18 139.098 125.816C135.726 125.332 132.287 124.777 128.933 124.329C125.614 123.887 122.17 123.331 118.91 122.752C117.575 122.513 117.653 122.74 117.081 121.683C116.294 120.237 115.925 118.607 116.396 116.964C116.729 115.823 117.051 115.704 117.403 115.053L116.741 115.298ZM150.235 130.571C149.103 130.583 146.404 129.985 145.057 129.8C143.365 129.573 141.702 129.257 140.01 128.958L122.497 125.948C121.794 125.828 120.656 125.673 120.018 125.476C118.886 125.129 115.71 125.046 115.216 124.371C114.501 123.385 113.839 121.42 113.488 120.124C112.987 118.284 112.922 116.827 113.678 115.154C114.149 114.109 115.293 112.09 116.288 111.857C117.504 111.577 135.761 112.837 138.693 112.98C142.441 113.165 146.296 113.279 149.943 113.625C150.116 114.02 150.527 115.537 149.377 115.567C148.179 115.596 137.722 114.742 136.25 114.575L131.006 114.199C127.372 114.026 123.862 113.727 120.084 113.822C117.832 113.876 117.039 113.894 116.062 115.465C114.572 117.848 115.538 120.751 116.825 123.015C117.117 123.528 117.057 123.427 117.718 123.528C119.804 123.827 123.177 124.46 125.048 124.639L132.371 125.744C134.021 126.049 135.69 126.175 137.328 126.461L147.017 127.966C150.062 128.504 149.913 128.062 150.128 129.095C150.229 129.579 150.277 130.075 150.235 130.571V130.571ZM163.439 120.661C163.124 120.942 153.971 124.992 152.541 125.667C152.064 125.894 151.445 126.198 150.95 126.366C150.42 124.926 150.056 121.671 150.116 119.909C150.217 116.833 151.159 116.791 153.214 115.632C153.882 115.256 162.218 110.513 162.671 110.376C162.51 111.17 162.2 111.833 162.045 112.807C161.741 114.718 161.914 116.6 162.504 118.44C162.856 119.556 163.249 120.1 163.439 120.661V120.661ZM116.211 109.229C116.604 109.241 117.42 109.474 117.933 109.54C122.354 110.107 127.026 110.197 131.513 110.412C134.111 110.537 136.923 110.621 139.521 110.669C140.6 110.687 147.178 110.705 147.619 110.86C147.786 110.949 148.4 112.216 147.226 112.269C143.388 112.437 135.326 111.977 131.417 111.851C129.946 111.804 128.486 111.678 127.032 111.624C124.666 111.529 120.591 111.332 118.29 111.069C116.783 110.902 115.138 111.129 116.211 109.229V109.229ZM150.914 113.524C151.463 112.7 157.105 109.874 158.446 109.181C159.078 108.853 159.769 108.459 160.329 108.184C160.693 108.011 161.008 107.891 161.354 107.7C161.67 107.527 161.944 107.36 162.313 107.186C162.999 106.852 165.936 105.329 166.329 105.221C166.502 105.484 166.55 105.98 166.508 106.643C166.466 107.324 166.365 107.354 165.9 107.623L152.91 113.584C151.957 114.014 151.743 114.294 151.325 113.978C151.051 113.769 151.004 113.799 150.914 113.524V113.524ZM120.09 102.181C125.012 101.638 133.783 101.261 138.782 101.327C141.243 101.357 145.534 101.47 147.53 102.342C148.227 102.647 148.406 102.88 148.632 103.645C148.829 104.29 148.966 105 149.002 105.723C149.061 106.882 148.739 109.002 148.126 109.689L119.679 108.751C119.84 108.315 121.633 107.228 120.668 103.806C120.531 103.322 120.161 102.575 120.09 102.181V102.181ZM118.004 100.15C120.102 98.908 141.345 99.4276 146.558 99.5232C146.85 99.5232 148.519 99.5232 148.656 99.577C149.204 99.7741 148.638 100.867 148.465 101.088C148.06 101.59 147.571 101.363 146.874 101.243C142.822 100.533 136.882 100.431 132.824 100.479C129.701 100.515 123.915 100.712 120.781 101.094L118.249 101.297C117.826 101.285 117.933 101.369 117.832 101.076C117.724 100.772 117.891 100.318 118.004 100.15V100.15ZM149.085 112.234C149.276 111.624 149.639 111.236 149.943 109.874C150.402 107.832 150.485 105.681 150.467 103.567C150.455 102.587 150.289 101.106 150.36 100.252C151.296 99.9652 152.189 99.571 153.107 99.2723C156.349 98.233 163.219 95.7961 166.496 95.8379C167.259 95.8498 167.503 95.9454 167.897 96.3516C169.345 97.8508 169.809 99.78 168.701 101.883C168.409 102.444 168.26 102.504 167.783 102.79L164.125 104.756C162.909 105.371 149.776 112.031 149.085 112.234V112.234ZM149.907 96.9728C149.8 96.3934 150.032 96.2799 150.45 96.1186C151.403 95.7364 157.707 94.0759 158.619 93.8608C160.657 93.383 163.916 92.4751 165.799 92.0988C166.335 91.9973 167.682 91.4776 168.177 91.8599C168.641 92.2123 167.938 92.4393 167.67 92.5408C166.925 92.8275 165.185 93.2456 164.22 93.5562C163.845 93.6757 163.41 93.7354 163.016 93.8489C160.52 94.5716 157.123 95.2227 154.668 95.9155C154.251 96.035 153.78 96.0768 153.411 96.1784C152.684 96.3695 150.408 97.0146 149.907 96.9728V96.9728ZM121.83 94.0221C123.337 93.0605 132.46 92.29 135.046 92.0212C137.34 91.7823 139.688 91.5672 142.006 91.388C144.306 91.2089 146.785 91.1551 148.954 90.7071C148.644 91.4597 147.852 91.1252 147.929 93.0306C147.959 93.7533 148.459 95.5034 148.43 95.7244C141.553 96.1186 133.575 96.5785 126.698 96.692C123.635 96.7398 121.705 97.2893 121.83 94.0221V94.0221ZM148.501 98.466C147.434 98.6392 145.337 98.5795 144.157 98.6034L131.334 98.9259C130.25 98.9438 121.025 99.1887 120.412 99.0932C119.548 98.9498 118.94 94.9061 118.827 94.1416C118.678 93.156 118.719 92.9828 119.333 92.5289C120.304 91.8181 122.807 90.6056 123.969 90.5459C129.392 90.2651 134.939 89.5364 140.272 89.2378C142.179 89.1303 147.154 88.5867 148.459 88.6226C148.757 88.963 148.888 89.5723 148.739 90.0859C148.209 90.3069 142.119 90.4324 140.922 90.522C135.797 90.9042 130.685 91.0177 125.518 91.6807C124.553 91.8062 121.073 92.0929 120.555 92.9231C119.655 94.3626 120.555 96.8413 121.407 97.5103C122.283 98.2032 131.924 97.5402 133.324 97.4864C135.898 97.3909 138.508 97.146 141.094 97.0086C142.25 96.9489 148.155 96.4352 148.674 96.4949L148.501 98.466ZM149.228 95.3362C148.876 94.494 148.495 93.6936 148.769 92.6006C148.966 91.8181 149.55 91.0058 150.199 90.7967C151.844 90.2771 153.667 89.8709 155.359 89.411C157.076 88.9451 158.78 88.4912 160.514 88.0312C162.158 87.5893 163.958 87.0159 165.555 86.6814C165.477 87.6669 165.15 87.7625 165.644 88.9093C165.978 89.6798 166.353 89.9665 166.663 90.4622C166.431 90.6593 165.942 90.743 165.62 90.8326L162.319 91.7464C160.847 92.1526 159.435 92.5528 157.981 92.9589C156.915 93.2516 149.705 95.3362 149.228 95.3362V95.3362ZM165.048 84.7879C165.686 84.6625 166.198 84.4475 166.83 84.4057L166.812 84.9074C165.745 85.5346 160.019 86.6873 158.321 87.1353C156.897 87.5056 155.258 87.6968 153.84 88.0492C153.155 88.2224 152.321 88.3956 151.606 88.527C150.664 88.7002 149.77 89.0168 149.478 88.5509C149.729 88.3598 151.963 87.8282 152.434 87.7864C152.541 87.5176 152.362 88.0014 152.434 87.6968L165.048 84.7879ZM164.017 83.7307C162.993 83.7546 157.362 84.9373 156.367 85.2777L150.885 86.6634C149.997 86.8606 149.21 87.2249 149.299 86.6634C149.371 86.1737 152.106 85.5644 152.672 85.3793L156.218 84.3997C157.564 84.0831 160.478 83.2828 161.771 83.0737C162.313 82.9841 163.147 82.6735 163.6 82.6855C163.755 82.9005 164 83.4261 164.017 83.7307V83.7307ZM148.692 78.7075C147.953 80.3261 146.964 82.0702 147.816 84.3818C148.054 85.0269 148.513 85.4868 148.656 85.9109C144.95 86.1976 135.249 87.201 131.781 86.9382C130.44 86.8367 130.232 86.4663 129.904 85.2538C129.439 83.5515 129.26 80.4038 130.19 79.024L148.692 78.7075ZM160.752 77.6323C160.466 78.5104 160.198 78.821 160.895 80.2306C161.425 81.2997 161.837 81.6462 162.111 82.1658C161.741 82.4346 156.527 83.5456 155.604 83.7666C154.484 84.0294 153.417 84.2802 152.321 84.5371C151.457 84.7461 149.83 85.224 149.037 85.2897C147.625 83.7427 148.328 80.6965 149.043 78.9404L160.752 77.6323V77.6323ZM148.138 87.9894C147.667 88.2403 136.596 88.8137 135.052 88.8495C133.759 88.8794 129.433 89.2617 128.474 88.7659C127.729 88.3837 127.228 87.6072 126.966 86.7889C126.359 84.9014 127.687 79.699 128.539 78.2834C128.855 77.7578 128.962 77.698 129.576 77.6025C132.985 77.041 146.41 76.2645 147.619 76.8559C147.887 78.158 146.481 77.8474 145.48 77.8414C144.461 77.8354 143.442 77.8294 142.417 77.8354C139.825 77.8354 132.699 77.8593 130.524 78.3431C129.969 78.4686 129.779 78.4566 129.558 78.9703C129.129 79.9618 128.903 81.8134 128.855 82.9065C128.748 85.3374 128.891 86.4006 130.601 87.3683C131.519 87.8879 132.228 87.7027 133.318 87.649C134.343 87.6012 135.279 87.5654 136.298 87.5116C137.275 87.4638 147.345 86.8725 148.048 86.9263C148.221 87.2428 148.227 87.6729 148.138 87.9894V87.9894ZM143.812 75.6254C144.241 76.2406 142.155 76.2526 141.595 76.3004C140.642 76.378 139.694 76.4437 138.729 76.5035L127.199 77.1067C122.873 77.2799 122.914 77.6801 123.367 75.3208C123.915 75.3029 124.774 75.4642 125.375 75.5119C129.493 75.8285 137.06 75.6792 141.214 75.5597C141.762 75.5418 143.502 75.3387 143.812 75.6254V75.6254ZM148.739 76.8797C149.562 76.4676 154.913 76.0674 156.158 75.8584C157.028 75.7091 163.255 74.9266 163.737 75.052L163.731 75.6672C161.551 76.1869 155.014 76.9216 152.446 77.2142C151.85 77.2859 151.212 77.4173 150.527 77.4651C149.877 77.5009 149.371 77.716 148.781 77.7399L148.739 76.8797ZM124.774 68.1413C129.749 67.9621 139.855 67.1438 144.413 67.2872C145.087 67.3111 144.962 67.4903 145.122 68.1712C145.337 69.0671 145.492 69.981 145.522 70.9606C145.551 71.9461 145.45 72.9495 145.069 73.6962C144.61 74.5921 144.276 74.7832 143.085 74.8489C138.985 75.0819 128.682 74.7355 124.625 74.5264C124.863 73.8455 126.364 72.5255 125.387 69.6286C125.226 69.1627 124.821 68.4937 124.774 68.1413V68.1413ZM123.492 67.3768C123.367 66.9587 123.463 66.3196 123.612 65.9612C123.778 65.561 124.249 65.5909 124.762 65.5252C126.972 65.2624 131.519 65.2385 133.813 65.1967L143.085 65.1668C143.46 65.1668 144.264 65.0234 144.515 65.3042C144.693 65.5013 144.878 66.1404 144.83 66.4808C143.251 66.6899 140.939 66.5585 139.277 66.5704C135.678 66.5884 132.097 66.6302 128.522 66.887C127.663 66.9467 123.898 67.4485 123.492 67.3768V67.3768ZM145.575 65.4057C146.743 64.8144 155.926 65.0115 157.874 65.113C158.744 65.1548 164.983 65.352 165.501 65.4834C166.347 65.6984 165.996 69.0193 165.942 69.6584C165.894 70.2139 165.763 72.1313 165.465 72.418C165.09 72.7942 157.916 73.6125 157.141 73.6962C155.264 73.8933 147.244 74.9087 145.629 74.9565C145.742 74.6339 146.052 74.2994 146.237 73.959C148.155 70.3334 145.551 65.9791 145.575 65.4057V65.4057ZM146.952 62.903C148.662 62.5088 153.977 62.3714 155.991 62.3177C157.272 62.2878 164.703 62.019 165.376 62.1624V63.3749C164.369 63.8946 153.5 63.7333 151.022 63.7213C149.621 63.7154 147.381 64.0618 146.952 62.903V62.903ZM147.423 62.2819C143.502 62.479 139.497 62.5327 135.553 62.5327C133.753 62.5327 131.423 62.5686 129.737 62.2819C129.159 62.1803 128.951 62.1624 128.772 61.6607C128.426 60.6751 128.367 58.6682 128.384 57.605C128.396 56.7031 128.468 55.6997 128.653 54.8216C128.897 53.6689 129.028 53.5315 130.256 53.4658C132.222 53.3642 134.23 53.3523 136.214 53.3523C140.177 53.3463 144.312 53.2687 148.257 53.418C148.281 53.7764 147.935 55.0725 147.852 55.5085C147.577 56.9062 147.333 58.5906 147.297 60.0121C147.279 60.5855 147.47 61.9832 147.423 62.2819V62.2819ZM164.673 53.185C164.446 53.6689 164.19 53.9854 164.017 54.6186C163.702 55.7355 163.642 57.169 163.672 58.3517C163.69 58.8832 163.815 59.7792 163.761 60.2391L148.215 61.4934C147.625 59.5283 148.322 55.2816 149.079 53.4956L164.673 53.185ZM127.562 52.2473C131.954 51.5962 142.072 50.8496 146.97 50.8795C147.637 50.8855 148.144 50.778 148.263 51.0766C148.418 51.4409 148.34 52.0263 148.066 52.2413C147.887 52.3249 136.905 52.4145 135.553 52.4564C133.545 52.5221 131.477 52.5937 129.517 52.8267C128.957 52.8924 128.629 52.9103 128.42 53.3523C128.236 53.7525 128.11 54.0571 127.955 54.4752C127.658 55.2816 127.449 56.076 127.336 57.0077C127.08 59.0565 127.479 60.8364 128.176 62.4312C128.706 63.6556 129.022 63.3868 130.506 63.363C133.253 63.3211 145.063 62.8373 145.957 63.4585L145.861 64.5994C142.328 64.6531 132.967 64.7069 129.797 64.4799C128.349 64.3784 128.14 64.7786 127.431 62.7597C126.341 59.6538 126.484 55.174 127.562 52.2473V52.2473ZM166.729 51.3275C166.764 51.5365 166.8 52.2234 166.687 52.3249C165.829 52.6475 158.792 52.319 157.391 52.2712C155.157 52.1935 152.696 52.1816 150.485 52.0203C149.615 51.9546 149.18 51.8829 149.008 51.1005C150.962 50.6286 155.55 50.9691 157.803 51.0049C160.722 51.0467 163.833 51.1184 166.729 51.3275ZM149.872 50.3718C149.842 49.9656 150.116 49.2429 150.247 48.9502C150.497 48.4127 151.278 48.7591 151.766 48.6516L163.779 49.0577C164.214 49.2071 163.964 50.0493 163.684 50.2284C163.147 50.5689 152.1 50.3718 149.872 50.3718ZM149.633 48.0483C144.199 48.2514 138.228 48.6755 132.824 48.5799C132.127 48.568 130.637 48.6814 130.291 48.1917C129.85 47.5705 129.392 44.2376 130.69 43.7717C131.817 43.3715 147.041 41.9499 148.888 41.9021C148.87 43.1027 148.829 44.1301 148.96 45.3246C149.013 45.8323 149.097 46.3102 149.222 46.8C149.347 47.2838 149.574 47.666 149.633 48.0483V48.0483ZM162.492 48.0423C161.062 48.2395 152.505 48.2036 150.879 47.8811C150.116 47.7317 149.997 47.3256 149.806 46.5491C149.508 45.2828 149.448 43.4372 149.508 42.0515L162.385 43.1445C162.254 43.479 162.003 43.5089 161.866 44.1719C161.592 45.5337 162.206 46.9254 162.492 48.0423ZM149.222 49.1294C149.156 50.4554 148.126 50.1866 146.886 50.2045L136.876 50.3419C134.665 50.3479 132.419 50.3778 130.256 50.2523C128.849 50.1747 128.456 50.2762 128.206 48.8845C128.021 47.8691 127.92 46.9135 127.926 45.8264C127.932 42.2008 128.575 42.2605 130.744 41.8842C132.669 41.5557 134.552 41.3168 136.548 41.0182C137.352 40.8987 147.959 39.5727 148.626 39.6981C149.347 41.5259 147.47 41.0779 145.837 41.2093C141.929 41.5259 135.982 41.8783 132.276 42.6308C131.632 42.7623 130.416 42.9594 130.071 43.3954C129.475 44.1539 128.772 46.9851 129.499 48.2454C129.958 49.0339 130.607 49.0876 131.572 49.1712C134.725 49.446 140.093 49.3504 143.412 49.2967C145.355 49.2668 147.262 49.1115 149.222 49.1294V49.1294ZM164.268 41.9977C164.262 42.6488 164.351 42.7264 163.69 42.6607C163.332 42.6308 162.933 42.5831 162.558 42.5293C159.34 42.0634 154.907 41.484 151.772 41.2093C151.403 41.1734 151.165 41.0958 150.7 41.054C149.836 40.9763 148.513 41.0958 149.383 39.3696C151.343 39.1964 162.504 41.5438 164.268 41.9977V41.9977ZM164.619 43.1027C164.852 42.6965 164.977 42.2605 164.917 41.5856C163.326 40.4149 155.503 39.6145 152.827 39.28C149.419 38.85 149.651 38.85 146.195 39.1606C141.321 39.5966 134.748 40.0804 130.029 41.0301C129.588 41.1197 128.98 41.2451 128.587 41.4124C127.425 41.9141 126.937 47.1285 127.33 48.8367C127.902 51.3095 129.785 50.9153 132.264 51.0467L132.133 51.0945C130.982 51.423 128.665 51.1901 127.556 51.7456C126.013 52.5161 125.81 58.9908 125.983 60.7349C126.287 63.8587 127.032 63.8587 127.491 64.7009C126.811 64.7427 124.213 64.8024 123.761 64.9458C122.938 65.2026 122.879 67.0244 123.135 67.9143L123.975 68.0458C124.654 70.9367 125.113 71.6713 124.058 74.5622L122.748 74.5503C122.605 75.3447 122.45 76.832 122.801 77.6144C122.944 77.937 123.111 77.925 123.51 77.9668C124.928 78.1102 126.46 77.9788 127.884 77.9728C127.598 78.9703 125.31 82.4883 125.357 86.2274C125.375 87.5952 125.679 88.0731 126.257 88.8018C126.257 88.8018 121.365 90.2771 118.91 91.6927C118.326 92.0331 117.873 92.2541 117.766 93.1142C117.575 94.6373 117.921 96.262 118.338 97.6835C118.535 98.3525 118.988 99.0812 119.101 99.4993C118.38 99.5411 117.558 99.5352 117.367 100.109C117.182 100.676 117.563 101.506 117.85 101.829L119.006 101.811C120.12 103.967 120.251 107.228 118.594 108.716C118.046 108.757 117.48 108.686 116.938 108.662C116.116 108.614 115.984 108.495 115.579 109.008C115.216 109.462 114.894 110.298 115.335 110.902C115.442 111.039 115.43 111.009 115.549 111.105L115.794 111.296C113.827 112.228 111.593 115.232 111.504 118.416C111.408 121.665 113.237 124.09 115.24 126.097C115.597 126.449 115.74 126.413 116.288 126.539C122.217 127.847 128.104 128.988 134.129 130.051C138.175 130.762 145.254 132.058 149.371 131.98C150.855 131.956 150.485 131.837 151.641 131.311C155.681 129.484 160.555 126.575 164.59 124.311C165.43 123.839 165.793 123.911 165.996 122.895C166.693 119.407 164.87 120.62 164.262 120.644C162.873 118.177 162.367 114.205 163.41 111.272C164.149 109.205 164.315 109.402 166.055 108.274C166.711 107.85 166.979 107.473 167.158 106.571C167.402 105.389 167.062 105.09 166.729 104.296C167.152 104.11 167.718 103.74 168.153 103.489C168.88 103.071 168.808 103.173 169.202 102.378C170.28 100.216 170.31 97.6358 169.005 95.5751C168.302 94.4641 167.104 93.5144 166.967 93.2456C167.581 93.0903 168.486 92.9111 168.844 92.4034C169.219 91.8599 169.1 90.7251 168.701 90.2532C168.123 90.1516 167.777 90.2771 167.241 90.2831C166.878 89.4707 166.472 88.9451 166.264 87.87C165.871 85.8272 166.574 86.1617 167.366 85.7735C168.713 85.1165 167.718 83.8263 167.479 83.671C166.991 83.3425 165.156 83.8084 164.506 83.8562C164.917 81.3296 163.636 81.7656 162.718 81.8134C162.373 80.4217 161.598 78.7911 162.003 77.0828C162.295 75.8405 162.975 76.5572 163.72 76.0674C164.286 75.6852 164.494 74.8191 164.53 74.1382C165.525 73.7798 166.151 73.7977 166.568 72.9376C167.378 71.2831 167.396 65.113 166.717 64.3604C166.52 64.1394 166.27 64.1633 165.912 64.1335C165.942 63.584 166.115 63.2375 166.103 62.5805C166.085 61.595 165.99 61.6487 165.638 61.374C165.108 60.9559 164.828 56.1178 164.852 55.4428C164.87 55.0486 165.048 53.0417 165.585 52.8028L166.782 52.7431C167.17 52.3608 167.676 51.0826 166.919 50.8018C166.252 50.557 165.054 50.6465 164.345 50.5032C164.25 50.2643 164.601 50.33 164.619 49.8044C164.637 49.4938 164.518 49.2489 164.381 49.0219C164.059 48.4843 163.88 48.3709 163.165 48.2633C162.945 47.3495 162.707 46.6208 162.665 45.5755C162.617 44.357 162.838 44.0345 163.255 43.049L164.619 43.1027Z" fill="#25221D"/>
<path id="Vector_11" fill-rule="evenodd" clip-rule="evenodd" d="M123.999 117.203C124.726 117.167 125.524 117.472 126.21 117.508C126.782 117.538 126.942 116.893 127.967 116.701C129.177 116.474 131.435 117.078 132.067 117.675C131.882 117.872 131.787 117.842 131.775 118.129C135.845 118.422 142.727 118.965 145.873 120.518C145.641 120.578 143.055 119.933 142.513 119.831C140.081 119.371 137.626 119.114 135.142 118.899C134.051 118.804 132.353 118.541 131.334 118.583C131.173 118.953 130.923 119.234 130.816 119.67C133.807 119.807 136.411 120.219 139.188 120.835C140.487 121.127 145.927 122.441 146.564 122.979C144.586 122.854 135.952 120.118 130.673 119.993C130.095 120.661 129.594 123.003 129.1 123.917C128.754 123.935 123.761 122.943 123.51 122.818C123.564 121.934 124.178 120.667 124.565 120.01C125.238 118.858 125.751 118.475 126.174 117.824L123.999 117.203V117.203ZM117.403 115.053C117.051 115.704 116.729 115.823 116.396 116.964C115.925 118.607 116.294 120.237 117.081 121.683C117.653 122.74 117.575 122.513 118.91 122.752C122.17 123.331 125.614 123.887 128.933 124.329C132.287 124.777 135.726 125.332 139.098 125.816C141.625 126.18 147.172 127.076 149.341 127.25C149.21 126.186 148.799 124.89 148.608 123.761C148.328 122.077 148.036 119.891 148.406 118.201C148.626 117.203 148.93 117.155 149.043 116.773C140.481 115.967 129.666 114.3 121.157 114.288C119.995 114.282 117.444 114.211 116.741 115.298L117.403 115.053Z" fill="#F5F5F5"/>
<path id="Vector_12" fill-rule="evenodd" clip-rule="evenodd" d="M121.544 105.699C123.081 105.681 123.975 105.616 125.453 105.46C128.706 105.114 132.585 105.389 135.803 106.058L136.399 106.219C136.518 106.273 136.506 106.273 136.572 106.326C135.446 106.338 134.033 106.111 132.877 106.01C130.559 105.807 127.544 105.693 125.262 105.914C124.613 105.974 123.963 106.022 123.308 106.022C122.855 106.016 121.89 106.01 121.544 105.699V105.699ZM121.353 103.603C121.657 103.639 122.015 103.806 122.342 103.872C124.791 104.361 129.582 103.095 130.482 103.567C130.113 103.806 126.507 104.29 125.775 104.367C124.309 104.517 122.14 104.582 121.353 103.603ZM120.09 102.181C120.161 102.575 120.531 103.322 120.668 103.806C121.633 107.228 119.84 108.315 119.679 108.751L148.126 109.689C148.739 109.002 149.061 106.882 149.002 105.723C148.966 105 148.829 104.29 148.632 103.645C148.406 102.88 148.227 102.647 147.53 102.342C145.534 101.47 141.243 101.357 138.782 101.327C133.783 101.261 125.012 101.638 120.09 102.181V102.181Z" fill="#F5F5F5"/>
<path id="Vector_13" fill-rule="evenodd" clip-rule="evenodd" d="M145.575 65.4057C145.551 65.9791 148.155 70.3334 146.237 73.959C146.052 74.2995 145.742 74.6339 145.629 74.9565C147.244 74.9087 155.264 73.8933 157.141 73.6962C157.916 73.6126 165.09 72.7943 165.465 72.418C165.763 72.1313 165.894 70.214 165.942 69.6585C165.996 69.0194 166.347 65.6984 165.501 65.4834C164.983 65.352 158.744 65.1549 157.874 65.1131C155.926 65.0115 146.743 64.8144 145.575 65.4057V65.4057Z" fill="#D0630A"/>
<path id="Vector_14" fill-rule="evenodd" clip-rule="evenodd" d="M142.584 56.9421C142.876 56.8345 146.88 56.6613 147.095 56.7748C146.69 57.2347 144.372 57.3602 143.573 57.2825C143.251 57.2526 142.781 57.2049 142.584 56.9421ZM129.767 55.8371C130.184 55.6579 133.467 55.5683 134.23 55.5145C136.476 55.3473 146.761 54.302 147.601 54.8694C147.053 55.0486 144.02 55.1561 143.174 55.2278C139.593 55.5384 132.8 56.3328 129.767 55.8371V55.8371ZM147.423 62.2819C147.47 61.9832 147.279 60.5856 147.297 60.0121C147.333 58.5906 147.577 56.9062 147.852 55.5085C147.935 55.0725 148.281 53.7764 148.257 53.418C144.312 53.2687 140.177 53.3463 136.214 53.3523C134.23 53.3523 132.222 53.3643 130.256 53.4658C129.028 53.5315 128.897 53.6689 128.653 54.8217C128.468 55.6997 128.396 56.7031 128.384 57.6051C128.367 58.6682 128.426 60.6751 128.772 61.6607C128.951 62.1624 129.159 62.1803 129.737 62.2819C131.423 62.5686 133.753 62.5327 135.553 62.5327C139.497 62.5327 143.502 62.479 147.423 62.2819V62.2819Z" fill="#F5F5F5"/>
<path id="Vector_15" fill-rule="evenodd" clip-rule="evenodd" d="M150.235 130.571C150.277 130.075 150.229 129.579 150.128 129.095C149.913 128.062 150.062 128.504 147.017 127.966L137.328 126.461C135.69 126.175 134.021 126.049 132.371 125.744L125.048 124.639C123.177 124.46 119.804 123.827 117.718 123.528C117.057 123.427 117.117 123.528 116.825 123.015C115.538 120.751 114.572 117.848 116.062 115.465C117.039 113.894 117.832 113.876 120.084 113.822C123.862 113.727 127.372 114.026 131.006 114.199L136.25 114.575C137.722 114.742 148.179 115.596 149.377 115.567C150.527 115.537 150.116 114.02 149.943 113.625C146.296 113.279 142.441 113.165 138.693 112.98C135.761 112.837 117.504 111.577 116.288 111.857C115.293 112.09 114.149 114.109 113.678 115.154C112.922 116.827 112.987 118.284 113.488 120.124C113.839 121.42 114.501 123.385 115.216 124.371C115.71 125.046 118.886 125.129 120.018 125.476C120.656 125.673 121.794 125.828 122.497 125.948L140.01 128.958C141.702 129.257 143.365 129.573 145.057 129.8C146.404 129.985 149.103 130.583 150.235 130.571V130.571Z" fill="#E00314"/>
<path id="Vector_16" fill-rule="evenodd" clip-rule="evenodd" d="M166.943 97.6357C166.544 97.9045 165.525 98.3286 165.054 98.5556C162.135 99.9891 156.533 102.623 153.62 103.692C152.601 104.069 152.464 104.188 151.927 103.244C151.129 101.841 151.623 101.733 152.207 101.518C152.875 101.279 153.435 100.969 154.102 100.694C155.342 100.186 156.688 99.6068 157.981 99.0991C159.584 98.4719 164.625 96.3336 166.306 96.471C166.461 96.6621 166.878 97.3311 166.943 97.6357ZM149.085 112.234C149.776 112.031 162.909 105.371 164.125 104.755L167.783 102.79C168.26 102.504 168.409 102.444 168.701 101.883C169.809 99.78 169.345 97.8508 167.897 96.3515C167.503 95.9454 167.259 95.8498 166.496 95.8379C163.219 95.7961 156.349 98.233 153.107 99.2723C152.189 99.571 151.296 99.9652 150.36 100.252C150.289 101.106 150.455 102.587 150.467 103.567C150.485 105.681 150.402 107.832 149.943 109.874C149.639 111.236 149.276 111.624 149.085 112.234V112.234Z" fill="#2C549C"/>
<path id="Vector_17" fill-rule="evenodd" clip-rule="evenodd" d="M125.983 69.4076L127.86 69.4793C128.867 69.4733 132.419 69.1209 133.062 69.3837C132.83 69.7421 126.782 70.3872 125.983 69.4076V69.4076ZM124.774 68.1413C124.821 68.4937 125.226 69.1627 125.387 69.6286C126.364 72.5255 124.863 73.8455 124.625 74.5264C128.682 74.7355 138.985 75.0819 143.085 74.849C144.276 74.7833 144.61 74.5921 145.069 73.6962C145.45 72.9496 145.551 71.9461 145.522 70.9606C145.492 69.981 145.337 69.0671 145.122 68.1712C144.962 67.4903 145.087 67.3111 144.413 67.2872C139.855 67.1439 129.749 67.9622 124.774 68.1413Z" fill="#F5F5F5"/>
<path id="Vector_18" fill-rule="evenodd" clip-rule="evenodd" d="M141.702 82.6615C142.119 82.3808 145.504 81.8253 145.933 82.4406C145.248 82.5839 142.179 83.0677 141.702 82.6615ZM138.133 81.0847C138.538 80.8398 146.451 80.2903 146.934 80.5889C146.35 80.9354 138.854 81.4968 138.133 81.0847ZM130.19 79.024C129.26 80.4038 129.439 83.5515 129.904 85.2538C130.232 86.4663 130.44 86.8366 131.781 86.9382C135.249 87.201 144.95 86.1975 148.656 85.9108C148.513 85.4868 148.054 85.0268 147.816 84.3818C146.964 82.0702 147.953 80.3261 148.692 78.7075L130.19 79.024Z" fill="#F5F5F5"/>
<path id="Vector_19" fill-rule="evenodd" clip-rule="evenodd" d="M150.497 121.33C150.771 120.297 153.566 118.774 155.044 118.953C154.692 119.324 153.304 119.754 152.702 120.022C151.48 120.572 150.879 121.181 150.497 121.33ZM151.212 118.917C151.886 117.759 156.253 115.608 157.344 115.895C156.897 116.248 154.93 116.97 154.227 117.317C153.631 117.609 151.57 118.858 151.212 118.917ZM163.439 120.662C163.249 120.1 162.856 119.557 162.504 118.44C161.914 116.6 161.741 114.718 162.045 112.807C162.2 111.833 162.51 111.171 162.671 110.376C162.218 110.513 153.882 115.256 153.214 115.632C151.159 116.791 150.217 116.833 150.116 119.909C150.056 121.671 150.42 124.926 150.95 126.366C151.445 126.198 152.064 125.894 152.541 125.667C153.971 124.992 163.124 120.942 163.439 120.662V120.662Z" fill="#D8B58B"/>
<path id="Vector_20" fill-rule="evenodd" clip-rule="evenodd" d="M149.21 56.291C149.955 56.2611 150.736 56.3567 151.522 56.3388C152.273 56.3268 153.024 56.2671 153.757 56.2133C155.145 56.1178 156.968 55.8669 158.303 56.1118C157.94 56.3746 150.348 57.3661 149.21 56.291ZM149.079 53.4957C148.322 55.2816 147.625 59.5283 148.215 61.4934L163.761 60.2391C163.815 59.7792 163.69 58.8833 163.672 58.3517C163.642 57.169 163.702 55.7355 164.017 54.6186C164.19 53.9854 164.446 53.6689 164.673 53.1851L149.079 53.4957V53.4957Z" fill="#D8B58B"/>
<path id="Vector_21" fill-rule="evenodd" clip-rule="evenodd" d="M137.978 93.6936C138.181 93.5742 145.837 92.499 146.368 92.5528C145.766 93.1143 138.86 94.2491 137.978 93.6936ZM121.83 94.0221C121.705 97.2893 123.635 96.7398 126.698 96.6921C133.575 96.5786 141.553 96.1187 148.43 95.7244C148.459 95.5034 147.959 93.7534 147.929 93.0306C147.852 91.1253 148.644 91.4597 148.954 90.7072C146.785 91.1551 144.306 91.2089 142.006 91.3881C139.688 91.5673 137.34 91.7823 135.046 92.0212C132.46 92.29 123.337 93.0605 121.83 94.0221V94.0221Z" fill="#F5F5F5"/>
<path id="Vector_22" fill-rule="evenodd" clip-rule="evenodd" d="M141.738 43.9748C142.387 43.8493 147.536 43.5865 147.935 43.8314C147.44 44.1779 142.221 44.6258 141.738 43.9748ZM149.633 48.0483C149.574 47.6661 149.347 47.2838 149.222 46.8C149.097 46.3102 149.013 45.8324 148.96 45.3247C148.829 44.1301 148.87 43.1027 148.888 41.9022C147.041 41.9499 131.817 43.3715 130.691 43.7717C129.392 44.2376 129.85 47.5705 130.291 48.1917C130.637 48.6815 132.127 48.568 132.824 48.5799C138.228 48.6755 144.199 48.2514 149.633 48.0483V48.0483Z" fill="#F5F5F5"/>
<path id="Vector_23" fill-rule="evenodd" clip-rule="evenodd" d="M148.501 98.466L148.674 96.4949C148.155 96.4352 142.25 96.9488 141.094 97.0086C138.508 97.1459 135.898 97.3908 133.324 97.4864C131.924 97.5402 122.283 98.2032 121.407 97.5103C120.555 96.8413 119.655 94.3625 120.555 92.9231C121.073 92.0928 124.553 91.8061 125.518 91.6807C130.685 91.0177 135.797 90.9042 140.922 90.5219C142.119 90.4323 148.209 90.3069 148.739 90.0859C148.888 89.5722 148.757 88.963 148.459 88.6225C147.154 88.5867 142.179 89.1302 140.272 89.2378C134.939 89.5364 129.392 90.2651 123.969 90.5458C122.807 90.6056 120.305 91.8181 119.333 92.5288C118.719 92.9828 118.678 93.156 118.827 94.1415C118.94 94.9061 119.548 98.9498 120.412 99.0931C121.026 99.1887 130.25 98.9438 131.334 98.9259L144.157 98.6033C145.337 98.5794 147.434 98.6392 148.501 98.466Z" fill="#039635"/>
<path id="Vector_24" fill-rule="evenodd" clip-rule="evenodd" d="M149.228 95.3362C149.705 95.3362 156.915 93.2516 157.981 92.959C159.435 92.5528 160.847 92.1526 162.319 91.7465L165.62 90.8326C165.942 90.743 166.431 90.6594 166.663 90.4623C166.353 89.9665 165.978 89.6798 165.644 88.9093C165.15 87.7625 165.477 87.6669 165.555 86.6814C163.958 87.0159 162.158 87.5893 160.514 88.0313C158.78 88.4912 157.076 88.9451 155.359 89.411C153.667 89.8709 151.844 90.2771 150.199 90.7968C149.55 91.0058 148.966 91.8181 148.769 92.6006C148.495 93.6936 148.876 94.494 149.228 95.3362V95.3362Z" fill="#D8B58B"/>
<path id="Vector_25" fill-rule="evenodd" clip-rule="evenodd" d="M148.906 82.7034C149.317 82.1061 154.281 81.5805 155.306 81.688C154.99 82.1061 152.899 82.2793 152.201 82.3689C151.349 82.4764 149.717 82.775 148.906 82.7034ZM149.043 78.9404C148.328 80.6964 147.625 83.7427 149.037 85.2897C149.83 85.224 151.457 84.7461 152.321 84.5371C153.417 84.2802 154.484 84.0294 155.604 83.7665C156.527 83.5455 161.741 82.4346 162.111 82.1658C161.837 81.6461 161.425 81.2997 160.895 80.2306C160.198 78.8209 160.466 78.5103 160.752 77.6323L149.043 78.9404V78.9404Z" fill="#D8B58B"/>
<path id="Vector_26" fill-rule="evenodd" clip-rule="evenodd" d="M162.492 48.0423C162.206 46.9254 161.592 45.5337 161.866 44.1719C162.003 43.5089 162.254 43.479 162.385 43.1445L149.508 42.0515C149.448 43.4372 149.508 45.2828 149.806 46.5491C149.997 47.3256 150.116 47.7317 150.879 47.8811C152.505 48.2036 161.062 48.2394 162.492 48.0423Z" fill="#D8B58B"/>
<path id="Vector_27" fill-rule="evenodd" clip-rule="evenodd" d="M148.138 87.9894C148.227 87.6728 148.221 87.2428 148.048 86.9262C147.345 86.8725 137.275 87.4638 136.298 87.5116C135.279 87.5653 134.343 87.6012 133.318 87.649C132.228 87.7027 131.519 87.8879 130.601 87.3682C128.891 86.4006 128.748 85.3374 128.855 82.9064C128.903 81.8134 129.129 79.9618 129.558 78.9703C129.779 78.4566 129.97 78.4685 130.524 78.3431C132.699 77.8593 139.825 77.8354 142.417 77.8354C143.442 77.8294 144.461 77.8354 145.48 77.8414C146.481 77.8473 147.887 78.1579 147.619 76.8558C146.41 76.2645 132.985 77.041 129.576 77.6025C128.962 77.698 128.855 77.7577 128.539 78.2834C127.687 79.699 126.359 84.9014 126.966 86.7889C127.229 87.6072 127.729 88.3836 128.474 88.7659C129.433 89.2617 133.759 88.8794 135.052 88.8495C136.596 88.8137 147.667 88.2403 148.138 87.9894V87.9894Z" fill="#2F297A"/>
<path id="Vector_28" fill-rule="evenodd" clip-rule="evenodd" d="M127.562 52.2473C126.484 55.174 126.341 59.6538 127.431 62.7597C128.14 64.7785 128.349 64.3784 129.797 64.4799C132.967 64.7069 142.328 64.6531 145.861 64.5994L145.957 63.4585C145.063 62.8373 133.253 63.3211 130.506 63.363C129.022 63.3868 128.706 63.6556 128.176 62.4312C127.479 60.8364 127.08 59.0565 127.336 57.0077C127.449 56.076 127.658 55.2816 127.955 54.4752C128.11 54.0571 128.236 53.7525 128.42 53.3523C128.629 52.9103 128.957 52.8924 129.517 52.8267C131.477 52.5937 133.545 52.5221 135.553 52.4563C136.905 52.4145 147.887 52.3249 148.066 52.2413C148.34 52.0263 148.418 51.4409 148.263 51.0766C148.144 50.7779 147.637 50.8855 146.97 50.8795C142.072 50.8496 131.954 51.5962 127.562 52.2473V52.2473Z" fill="#FDC512"/>
<path id="Vector_29" fill-rule="evenodd" clip-rule="evenodd" d="M149.222 49.1294C147.262 49.1115 145.355 49.2668 143.412 49.2966C140.093 49.3504 134.725 49.446 131.572 49.1712C130.607 49.0876 129.958 49.0338 129.499 48.2454C128.772 46.9851 129.475 44.1539 130.071 43.3954C130.416 42.9593 131.632 42.7622 132.276 42.6308C135.982 41.8782 141.929 41.5258 145.837 41.2093C147.47 41.0779 149.347 41.5258 148.626 39.6981C147.959 39.5727 137.352 40.8987 136.548 41.0181C134.552 41.3168 132.669 41.5557 130.744 41.8842C128.575 42.2605 127.932 42.2008 127.926 45.8264C127.92 46.9134 128.021 47.8691 128.206 48.8845C128.456 50.2762 128.849 50.1747 130.256 50.2523C132.419 50.3778 134.665 50.3479 136.876 50.3419L146.886 50.2045C148.126 50.1866 149.156 50.4554 149.222 49.1294V49.1294Z" fill="#C60276"/>
<path id="Vector_30" fill-rule="evenodd" clip-rule="evenodd" d="M131.417 111.851C135.326 111.977 143.388 112.437 147.226 112.269C148.4 112.216 147.786 110.949 147.619 110.86C147.178 110.705 140.6 110.687 139.521 110.669C136.923 110.621 134.111 110.537 131.513 110.412C127.026 110.197 122.354 110.107 117.933 109.54C117.42 109.474 116.604 109.241 116.211 109.229C115.138 111.129 116.783 110.902 118.29 111.069C120.591 111.332 124.666 111.529 127.032 111.624C128.486 111.678 129.946 111.804 131.417 111.851V111.851Z" fill="#058AC7"/>
<path id="Vector_31" fill-rule="evenodd" clip-rule="evenodd" d="M118.004 100.15C117.891 100.318 117.724 100.772 117.832 101.076C117.933 101.369 117.826 101.285 118.249 101.297L120.781 101.094C123.915 100.712 129.701 100.515 132.824 100.479C136.882 100.431 142.822 100.533 146.874 101.243C147.571 101.363 148.06 101.59 148.465 101.088C148.638 100.867 149.204 99.7741 148.656 99.577C148.519 99.5232 146.85 99.5232 146.559 99.5232C141.345 99.4276 120.102 98.908 118.004 100.15V100.15Z" fill="#058AC7"/>
<path id="Vector_32" fill-rule="evenodd" clip-rule="evenodd" d="M166.943 97.6358C166.878 97.3312 166.461 96.6622 166.306 96.471C164.625 96.3337 159.584 98.472 157.981 99.0991C156.688 99.6068 155.342 100.186 154.102 100.694C153.435 100.969 152.875 101.279 152.207 101.518C151.623 101.733 151.129 101.841 151.927 103.244C152.464 104.188 152.601 104.069 153.62 103.692C156.533 102.623 162.135 99.9891 165.054 98.5556C165.525 98.3286 166.544 97.9046 166.943 97.6358Z" fill="#058AC7"/>
<path id="Vector_33" fill-rule="evenodd" clip-rule="evenodd" d="M165.573 121.259C165.096 121.289 159.542 123.821 158.22 124.389L153.107 126.742C152.041 127.297 150.622 127.787 150.587 128.701C150.569 129.149 150.569 129.728 150.807 130.009C151.182 130.451 152.487 129.657 152.928 129.454L155.949 127.996C156.283 127.811 156.605 127.65 156.927 127.489L160.847 125.452C162.212 124.795 163.404 124.078 164.709 123.355C165.43 122.955 165.799 122.71 165.573 121.259V121.259Z" fill="#E00314"/>
<path id="Vector_34" fill-rule="evenodd" clip-rule="evenodd" d="M123.492 67.3768C123.898 67.4485 127.663 66.9467 128.522 66.887C132.097 66.6302 135.678 66.5883 139.277 66.5704C140.939 66.5585 143.251 66.6899 144.83 66.4808C144.878 66.1404 144.693 65.5013 144.515 65.3042C144.264 65.0234 143.46 65.1668 143.085 65.1668L133.813 65.1966C131.519 65.2385 126.972 65.2624 124.762 65.5252C124.249 65.5909 123.778 65.561 123.612 65.9612C123.463 66.3196 123.367 66.9587 123.492 67.3768Z" fill="#D0630A"/>
<path id="Vector_35" fill-rule="evenodd" clip-rule="evenodd" d="M150.914 113.524C151.004 113.799 151.051 113.769 151.325 113.978C151.743 114.294 151.957 114.014 152.91 113.584L165.9 107.623C166.365 107.354 166.466 107.324 166.508 106.643C166.55 105.98 166.502 105.484 166.329 105.221C165.936 105.329 162.999 106.852 162.313 107.187C161.944 107.36 161.67 107.527 161.354 107.7C161.008 107.891 160.693 108.011 160.329 108.184C159.769 108.459 159.078 108.853 158.446 109.182C157.105 109.874 151.463 112.7 150.914 113.524V113.524Z" fill="#E00314"/>
<path id="Vector_36" fill-rule="evenodd" clip-rule="evenodd" d="M124.571 121.97C124.44 120.93 126.484 118.021 127.109 117.335C127.795 116.588 130.589 117.024 131.078 117.346C131.751 117.8 130.315 119.957 129.916 120.655C129.624 121.163 129.278 121.629 129.016 122.149C127.741 122.352 125.578 122.662 124.571 121.97V121.97ZM123.999 117.203L126.174 117.824C125.751 118.475 125.238 118.858 124.565 120.01C124.178 120.667 123.564 121.934 123.51 122.818C123.761 122.943 128.754 123.935 129.1 123.917C129.594 123.003 130.095 120.661 130.673 119.992C135.952 120.118 144.586 122.854 146.564 122.979C145.927 122.441 140.487 121.127 139.188 120.835C136.411 120.219 133.807 119.807 130.816 119.67C130.923 119.234 131.173 118.953 131.334 118.583C132.353 118.541 134.051 118.804 135.142 118.899C137.626 119.114 140.081 119.371 142.513 119.831C143.055 119.933 145.641 120.578 145.873 120.518C142.727 118.965 135.845 118.422 131.775 118.129C131.787 117.842 131.882 117.872 132.067 117.675C131.435 117.078 129.177 116.474 127.967 116.701C126.942 116.893 126.782 117.538 126.21 117.508C125.524 117.472 124.726 117.167 123.999 117.203V117.203Z" fill="#25221D"/>
<path id="Vector_37" fill-rule="evenodd" clip-rule="evenodd" d="M124.571 121.97C125.578 122.662 127.741 122.352 129.016 122.149C129.278 121.629 129.624 121.163 129.916 120.655C130.315 119.957 131.751 117.8 131.078 117.346C130.589 117.024 127.795 116.588 127.109 117.335C126.484 118.021 124.44 120.93 124.571 121.97V121.97Z" fill="#E00314"/>
<path id="Vector_38" fill-rule="evenodd" clip-rule="evenodd" d="M146.952 62.9031C147.381 64.0618 149.621 63.7154 151.022 63.7214C153.5 63.7333 164.369 63.8946 165.376 63.3749V62.1624C164.703 62.0191 157.272 62.2879 155.991 62.3177C153.977 62.3715 148.662 62.5089 146.952 62.9031V62.9031Z" fill="#CA9D04"/>
<path id="Vector_39" fill-rule="evenodd" clip-rule="evenodd" d="M143.812 75.6255C143.502 75.3388 141.762 75.5418 141.214 75.5598C137.06 75.6792 129.493 75.8285 125.375 75.512C124.774 75.4642 123.915 75.3029 123.367 75.3208C122.914 77.6802 122.873 77.28 127.199 77.1068L138.729 76.5035C139.694 76.4438 140.642 76.3781 141.595 76.3004C142.155 76.2526 144.241 76.2407 143.812 75.6255V75.6255Z" fill="#D0630A"/>
<path id="Vector_40" fill-rule="evenodd" clip-rule="evenodd" d="M149.008 51.1005C149.18 51.8829 149.615 51.9546 150.485 52.0203C152.696 52.1816 155.157 52.1935 157.391 52.2712C158.792 52.3189 165.829 52.6475 166.687 52.3249C166.8 52.2234 166.764 51.5365 166.729 51.3274C163.833 51.1184 160.722 51.0467 157.803 51.0049C155.55 50.9691 150.962 50.6286 149.008 51.1005Z" fill="#CA9D04"/>
<path id="Vector_41" fill-rule="evenodd" clip-rule="evenodd" d="M149.872 50.3718C152.1 50.3718 163.148 50.5689 163.684 50.2284C163.964 50.0492 164.214 49.2071 163.779 49.0577L151.766 48.6516C151.278 48.7591 150.497 48.4127 150.247 48.9502C150.116 49.2429 149.842 49.9656 149.872 50.3718Z" fill="#C60276"/>
<path id="Vector_42" fill-rule="evenodd" clip-rule="evenodd" d="M164.268 41.9977C162.504 41.5438 151.343 39.1964 149.383 39.3696C148.513 41.0958 149.836 40.9764 150.7 41.054C151.165 41.0958 151.403 41.1735 151.772 41.2093C154.907 41.4841 159.34 42.0635 162.558 42.5293C162.933 42.5831 163.332 42.6309 163.69 42.6607C164.351 42.7264 164.262 42.6488 164.268 41.9977V41.9977Z" fill="#C60276"/>
<path id="Vector_43" fill-rule="evenodd" clip-rule="evenodd" d="M149.907 96.9728C150.408 97.0146 152.684 96.3695 153.411 96.1783C153.78 96.0768 154.251 96.035 154.668 95.9155C157.123 95.2227 160.52 94.5716 163.016 93.8489C163.41 93.7354 163.845 93.6757 164.22 93.5562C165.185 93.2456 166.925 92.8275 167.67 92.5408C167.938 92.4393 168.641 92.2123 168.177 91.8599C167.682 91.4776 166.335 91.9973 165.799 92.0988C163.916 92.4751 160.657 93.383 158.619 93.8608C157.707 94.0759 151.403 95.7363 150.45 96.1186C150.032 96.2799 149.8 96.3934 149.907 96.9728V96.9728Z" fill="#039635"/>
<path id="Vector_44" fill-rule="evenodd" clip-rule="evenodd" d="M148.739 76.8797L148.781 77.7398C149.371 77.7159 149.877 77.5009 150.527 77.4651C151.212 77.4173 151.85 77.2859 152.446 77.2142C155.014 76.9215 161.551 76.1869 163.731 75.6672L163.737 75.052C163.255 74.9266 157.028 75.709 156.158 75.8584C154.913 76.0674 149.562 76.4676 148.739 76.8797Z" fill="#2F297A"/>
<path id="Vector_45" fill-rule="evenodd" clip-rule="evenodd" d="M164.017 83.7307C164 83.4261 163.755 82.9005 163.6 82.6855C163.147 82.6735 162.313 82.9841 161.771 83.0737C160.478 83.2827 157.564 84.0831 156.218 84.3997L152.672 85.3793C152.106 85.5644 149.371 86.1737 149.299 86.6634C149.21 87.2249 149.997 86.8606 150.885 86.6634L156.366 85.2777C157.362 84.9373 162.993 83.7546 164.017 83.7307V83.7307Z" fill="#2F297A"/>
<path id="Vector_46" fill-rule="evenodd" clip-rule="evenodd" d="M152.434 87.6967C152.362 88.0014 152.541 87.5175 152.434 87.7863C151.963 87.8281 149.729 88.3597 149.478 88.5509C149.77 89.0168 150.664 88.7002 151.606 88.527C152.321 88.3956 153.155 88.2224 153.84 88.0491C155.258 87.6967 156.897 87.5056 158.321 87.1353C160.019 86.6873 165.745 85.5345 166.812 84.9074L166.83 84.4056C166.198 84.4475 165.686 84.6625 165.048 84.7879L152.434 87.6967Z" fill="#039635"/>
<path id="Vector_47" fill-rule="evenodd" clip-rule="evenodd" d="M129.767 55.837C132.8 56.3328 139.593 55.5384 143.174 55.2278C144.02 55.1561 147.053 55.0486 147.601 54.8694C146.761 54.302 136.476 55.3472 134.23 55.5145C133.467 55.5682 130.184 55.6578 129.767 55.837V55.837Z" fill="#25221D"/>
<path id="Vector_48" fill-rule="evenodd" clip-rule="evenodd" d="M121.544 105.699C121.89 106.01 122.855 106.016 123.308 106.022C123.963 106.022 124.613 105.974 125.262 105.914C127.544 105.693 130.559 105.807 132.877 106.01C134.033 106.111 135.446 106.338 136.572 106.326C136.506 106.273 136.518 106.273 136.399 106.219L135.803 106.058C132.585 105.389 128.706 105.114 125.453 105.46C123.975 105.616 123.081 105.681 121.544 105.699V105.699Z" fill="#25221D"/>
<path id="Vector_49" fill-rule="evenodd" clip-rule="evenodd" d="M121.353 103.603C122.14 104.582 124.309 104.517 125.775 104.367C126.508 104.29 130.113 103.806 130.482 103.567C129.582 103.095 124.791 104.361 122.342 103.871C122.015 103.806 121.657 103.639 121.353 103.603V103.603Z" fill="#25221D"/>
<path id="Vector_50" fill-rule="evenodd" clip-rule="evenodd" d="M149.21 56.291C150.348 57.3661 157.94 56.3746 158.303 56.1118C156.968 55.8669 155.145 56.1178 153.757 56.2133C153.024 56.2671 152.273 56.3268 151.522 56.3388C150.736 56.3567 149.955 56.2611 149.21 56.291Z" fill="#25221D"/>
<path id="Vector_51" fill-rule="evenodd" clip-rule="evenodd" d="M138.133 81.0847C138.854 81.4969 146.35 80.9354 146.934 80.589C146.451 80.2903 138.538 80.8399 138.133 81.0847Z" fill="#25221D"/>
<path id="Vector_52" fill-rule="evenodd" clip-rule="evenodd" d="M137.978 93.6936C138.86 94.2491 145.766 93.1142 146.368 92.5528C145.837 92.499 138.181 93.5742 137.978 93.6936Z" fill="#25221D"/>
<path id="Vector_53" fill-rule="evenodd" clip-rule="evenodd" d="M125.983 69.4076C126.782 70.3872 132.83 69.7421 133.062 69.3837C132.419 69.1209 128.867 69.4733 127.86 69.4793L125.983 69.4076V69.4076Z" fill="#25221D"/>
<path id="Vector_54" fill-rule="evenodd" clip-rule="evenodd" d="M151.212 118.917C151.57 118.858 153.631 117.609 154.227 117.317C154.93 116.97 156.897 116.247 157.344 115.895C156.253 115.608 151.886 117.759 151.212 118.917Z" fill="#25221D"/>
<path id="Vector_55" fill-rule="evenodd" clip-rule="evenodd" d="M148.906 82.7034C149.717 82.7751 151.349 82.4764 152.201 82.3689C152.899 82.2793 154.99 82.1061 155.306 81.688C154.281 81.5805 149.317 82.1061 148.906 82.7034Z" fill="#25221D"/>
<path id="Vector_56" fill-rule="evenodd" clip-rule="evenodd" d="M141.738 43.9747C142.221 44.6258 147.44 44.1778 147.935 43.8314C147.536 43.5865 142.387 43.8493 141.738 43.9747Z" fill="#25221D"/>
<path id="Vector_57" fill-rule="evenodd" clip-rule="evenodd" d="M150.497 121.33C150.879 121.181 151.48 120.572 152.702 120.022C153.304 119.754 154.692 119.324 155.044 118.953C153.566 118.774 150.771 120.297 150.497 121.33Z" fill="#25221D"/>
<path id="Vector_58" fill-rule="evenodd" clip-rule="evenodd" d="M142.584 56.9421C142.781 57.2049 143.251 57.2527 143.573 57.2825C144.372 57.3602 146.69 57.2347 147.095 56.7748C146.88 56.6613 142.876 56.8346 142.584 56.9421Z" fill="#25221D"/>
<path id="Vector_59" fill-rule="evenodd" clip-rule="evenodd" d="M141.702 82.6616C142.179 83.0677 145.248 82.5839 145.933 82.4406C145.504 81.8254 142.119 82.3809 141.702 82.6616Z" fill="#25221D"/>
</g>
</g>
<g id="Layer_x0020_1_0">
<path id="Vector_60" fill-rule="evenodd" clip-rule="evenodd" d="M97.2384 50.2285L93.3712 50.3718C92.972 55.0486 96.7438 53.9436 97.1907 52.9999C97.4946 52.3429 97.2384 51.0049 97.2384 50.2285Z" fill="#F9D8B5"/>
<path id="Vector_61" fill-rule="evenodd" clip-rule="evenodd" d="M111.015 92.3139C110.097 90.1517 102.53 89.5962 102.107 89.7336C77.9799 87.7983 69.888 93.3711 67.9991 94.1297C72.7839 94.9061 92.7098 95.0256 97.4708 94.9599C103.727 94.8643 105.813 94.0938 111.206 92.8694L111.015 92.3139Z" fill="#C9E5E4" stroke="black" stroke-width="2.07696" stroke-miterlimit="2.61313"/>
<path id="Vector_62" fill-rule="evenodd" clip-rule="evenodd" d="M98.9486 95.2107L85.7501 95.2824C84.8443 95.2704 72.492 94.0221 72.2655 93.9444C72.1702 93.9206 71.8663 93.8489 71.7769 93.825C69.8999 93.4009 69.5722 93.825 67.9991 94.1296L68.1898 97.0922C71.6041 100.079 94.5928 100.927 99.9556 99.3918C102.089 99.0633 104.151 99.0394 106.194 98.7109C107.082 98.5735 108.161 98.3585 108.959 98.1733C111.045 97.6059 111.563 97.4446 111.092 93.168C104.413 94.482 107.553 94.2969 100.45 94.8822L98.9486 95.2107V95.2107Z" fill="#C9E5E4" stroke="black" stroke-width="2.07696" stroke-miterlimit="2.61313"/>
<path id="Vector_63" fill-rule="evenodd" clip-rule="evenodd" d="M98.9485 95.2107L100.051 95.4257L99.9556 99.3918C102.089 99.0633 104.15 99.0394 106.194 98.7109C107.082 98.5735 108.161 98.3585 108.959 98.1733C111.045 97.6059 111.563 97.4446 111.092 93.168C104.413 94.482 107.553 94.2969 100.45 94.8822L98.9485 95.2107V95.2107Z" fill="#A0CFCE"/>
<path id="Vector_64" d="M82.3894 93.4128C82.0974 93.4606 79.7497 94.6851 79.4338 94.709C78.0812 95.3839 76.6154 95.4436 75.0959 98.8004C74.0114 101.243 67.5224 124.036 67.5045 124.102L66.855 123.743C66.8729 123.678 72.9389 100.76 74.1127 98.1255C76.0195 93.9026 78.0216 93.7652 79.7675 93.6398C80.0476 93.6219 80.3217 93.598 80.5898 93.5562L82.3894 93.4128V93.4128Z" fill="black"/>
<path id="Vector_65" d="M75.3045 91.7643C75.0125 91.8062 72.1046 93.1083 71.7888 93.1321C70.4362 93.8131 69.2802 93.9266 67.7608 97.2834C66.6703 99.7323 60.6282 121.384 60.658 122.334L59.7642 122.095C59.7821 122.029 65.848 99.1111 67.0219 96.477L67.0278 96.471C68.9346 92.2541 70.9308 92.1108 72.6767 91.9913C72.9627 91.9734 73.2368 91.9495 73.5049 91.9077L75.3045 91.7643V91.7643Z" fill="black"/>
<path id="Vector_66" fill-rule="evenodd" clip-rule="evenodd" d="M100.146 120.572L100.379 121.862V121.982V122.095L100.331 122.214L100.259 122.31L100.164 122.424L100.051 122.519L99.9079 122.639L99.7232 122.728L99.5325 122.848L99.3239 122.943L99.0856 123.039L98.8294 123.128L98.5493 123.224L98.2693 123.296L97.9415 123.391L97.6138 123.457L97.2622 123.529L96.8868 123.624L96.4876 123.696L96.0884 123.744L95.6653 123.809L95.2422 123.857L94.7953 123.929L94.3306 123.976L93.8598 124.024L93.3653 124.048L92.8766 124.096L92.3582 124.12L91.8458 124.144L91.3274 124.162L90.7911 124.186H90.2489H89.6887H89.1465H88.6102L88.068 124.162L87.5555 124.144L87.0133 124.12L86.5247 124.096L86.0301 124.048L85.5355 124.024L85.0708 123.976L84.6 123.929L84.1531 123.857L83.73 123.809L83.307 123.744L82.8899 123.696L82.5145 123.624L82.1391 123.529L81.7875 123.457L81.4598 123.391L81.1321 123.296L80.8222 123.224L80.566 123.128L80.3098 123.039L80.0774 122.943L79.839 122.848L79.6543 122.728L79.4875 122.639L79.3504 122.519L79.2312 122.424L79.1359 122.31L79.0644 122.214L79.0167 122.095L78.7843 120.805L78.832 120.924L78.9035 121.038L78.9988 121.133L79.1121 121.253L79.2551 121.342L79.4398 121.462L79.6305 121.557L79.839 121.647L80.0774 121.743L80.3336 121.838L80.6137 121.934L80.8937 122.023L81.2214 122.095L81.5492 122.191L81.9007 122.262L82.2761 122.334L82.6754 122.4L83.0746 122.471L83.4977 122.519L83.9207 122.591L84.3676 122.639L84.8324 122.686L85.3031 122.728L85.7977 122.776L86.2863 122.8L86.8047 122.824L87.3172 122.848L87.8356 122.871L88.3719 122.895H88.9141H89.4742H90.0165H90.5527L91.095 122.871L91.6074 122.848L92.1497 122.824L92.6383 122.8L93.1329 122.776L93.6274 122.728L94.0922 122.686L94.5629 122.639L95.0099 122.591L95.4329 122.519L95.85 122.471L96.2731 122.4L96.6485 122.334L97.0239 122.262L97.3755 122.191L97.7032 122.095L98.0309 122.023L98.3408 121.934L98.597 121.838L98.8532 121.743L99.0856 121.647L99.3239 121.557L99.5087 121.462L99.6755 121.342L99.8126 121.253L99.9317 121.133L100.027 121.038L100.099 120.924L100.146 120.805V120.685V120.572Z" fill="#C9E5E4"/>
<path id="Vector_67" d="M100.611 120.638C100.706 121.253 100.706 121.934 100.498 122.31C99.4848 124.12 92.0067 124.424 89.1465 124.377C86.5247 124.353 79.416 123.976 78.832 122.167L78.4566 120.685L78.975 120.733C79.559 122.31 86.9656 122.662 88.3719 122.71C90.7196 122.752 97.87 122.567 99.6993 121.086L99.9556 120.59L100.611 120.638V120.638ZM100.164 121.886L100.075 121.277C98.1262 123.039 90.6243 123.2 87.2933 123.063C85.0708 122.943 80.5898 122.567 79.1121 121.486C79.2312 122.167 79.1836 122.358 80.1429 122.752C83.9684 124.401 96.3208 124.448 99.6278 122.567C99.9079 122.423 100.212 122.214 100.164 121.886V121.886Z" fill="#2B2A29"/>
<path id="Vector_68" fill-rule="evenodd" clip-rule="evenodd" d="M90.0165 118.475C114.376 118.852 88.3719 126.515 79.4398 121.462C75.2687 119.091 88.9856 118.475 90.0165 118.475Z" fill="#C9E5E4"/>
<path id="Vector_69" d="M90.0165 118.29C95.3853 118.386 98.3408 118.804 99.5564 119.395C100.587 119.885 100.939 120.638 100.259 121.229C99.6755 121.695 98.2216 122.143 96.72 122.543C92.0067 123.767 83.6586 124.096 79.3266 121.629C78.9035 121.39 78.6413 121.157 78.5281 120.918C78.3136 120.5 78.5281 120.124 79.0644 119.837C79.5351 119.58 80.2144 119.371 81.0606 119.18C84.2246 118.499 89.4027 118.29 90.0165 118.29V118.29ZM99.3955 119.748C98.2216 119.18 95.3138 118.762 90.0165 118.69C89.4027 118.69 84.2723 118.899 81.1321 119.58C80.3336 119.748 79.6782 119.933 79.2551 120.172C78.9274 120.357 78.7843 120.548 78.8797 120.733C78.975 120.9 79.1597 121.086 79.5351 121.277C83.7777 123.696 91.9352 123.176 96.6008 121.982C98.0309 121.605 99.1333 121.157 99.6755 120.733C100.075 120.381 100.027 120.052 99.3955 119.748Z" fill="#2B2A29"/>
<path id="Vector_70" fill-rule="evenodd" clip-rule="evenodd" d="M87.341 100.216H91.6551C91.6551 106.846 91.6551 113.47 91.6551 120.1C91.4942 120.172 91.3274 120.214 91.1665 120.261C89.6888 120.685 88.4196 120.614 87.341 120.1V100.216Z" fill="#A0CFCE"/>
<path id="Vector_71" d="M87.341 100.007H91.8458C91.8458 106.75 92.245 120.124 91.8458 120.237L91.4704 120.381L91.2321 120.452C90.4574 120.661 89.7543 120.757 89.0988 120.733C88.4434 120.709 87.061 120.476 87.0848 119.837L87.1563 100.007H87.341V100.007ZM91.4704 100.407H87.5317V119.981C88.0203 120.196 88.5387 120.309 89.1227 120.333C89.7305 120.357 90.4157 120.261 91.1188 120.076L91.4704 119.957L91.3751 117.723L91.4704 100.407Z" fill="#2B2A29"/>
<path id="Vector_72" fill-rule="evenodd" clip-rule="evenodd" d="M95.7308 92.3915C101.07 91.5672 104.228 88.3777 104.55 82.1777L95.3018 82.4167V82.8407L95.7308 92.3915V92.3915Z" fill="#AE4A84" stroke="black" stroke-width="2.07696" stroke-miterlimit="2.61313"/>
<path id="Vector_73" fill-rule="evenodd" clip-rule="evenodd" d="M99.0439 82.8288V82.8168V82.8288ZM105.843 70.3155L105.867 70.3214L105.819 67.4783C106.713 57.5632 104.776 51.8232 100.963 50.3479C100.099 49.8521 97.6555 49.2907 97.4231 50.2105C97.3695 52.3548 97.2265 52.08 95.2244 52.9282C94.0446 52.9162 94.122 51.3513 93.4844 50.7481C92.3106 49.6311 91.1427 50.7959 91.1427 50.7959C90.66 51.7754 88.9201 48.9144 84.7549 58.931C83.2057 61.3739 82.8839 83.4619 80.6077 83.9756L95.8977 82.8467C97.4708 83.438 104.645 83.1573 105.747 81.8612L105.843 70.3155Z" fill="#1460AC" stroke="black" stroke-width="2.07696" stroke-miterlimit="2.61313"/>
<path id="Vector_74" fill-rule="evenodd" clip-rule="evenodd" d="M94.2114 4.29645C107.243 4.29645 117.808 14.7252 117.808 27.591C117.808 40.4507 107.243 50.8795 94.2114 50.8795C81.1797 50.8795 68.9406 42.1291 68.9406 29.2694C68.9406 16.4036 81.1797 4.29645 94.2114 4.29645V4.29645Z" fill="#F9D8B5"/>
<path id="Vector_75" d="M94.2114 4.02765C100.802 4.02765 106.766 6.66172 111.086 10.9264C115.406 15.1911 118.076 21.0804 118.076 27.5909C118.076 34.0955 115.406 39.9848 111.086 44.2495C106.766 48.5142 100.802 51.1542 94.2114 51.1542C87.4006 51.1542 80.8043 48.783 76.0195 44.6915C71.5564 40.8748 68.6724 35.5529 68.6724 29.2693C68.6724 22.7588 71.765 16.4454 76.5081 11.7626C81.2393 7.07983 87.6211 4.02765 94.2114 4.02765V4.02765ZM110.711 11.3087C106.486 7.13956 100.653 4.56521 94.2114 4.56521C87.77 4.56521 81.5194 7.55766 76.8835 12.1449C72.2417 16.7321 69.2087 22.9081 69.2087 29.2693C69.2087 35.3856 72.0212 40.5642 76.3711 44.2853C81.0546 48.2932 87.5257 50.6107 94.2114 50.6107C100.653 50.6107 106.486 48.0364 110.711 43.8672C114.93 39.7041 117.54 33.9462 117.54 27.5909C117.54 21.2297 114.93 15.4778 110.711 11.3087V11.3087Z" fill="#2B2A29"/>
<path id="Vector_76" d="M85.3329 38.6051C86.6379 38.0257 86.8524 38.0436 87.2516 38.0675C87.4364 38.0794 87.6747 38.0974 88.1812 38.0197L88.2587 38.5513C87.6985 38.6409 87.4304 38.623 87.2159 38.6051C86.9001 38.5871 86.7273 38.5752 85.5415 39.0948L85.3329 38.6051Z" fill="#2B2A29"/>
<path id="Vector_77" d="M78.7367 32.0945C80.6613 32.0945 82.4132 32.9009 83.6764 34.209C84.9397 35.5111 85.7203 37.3149 85.7203 39.3039C85.7203 41.2929 84.9397 43.0967 83.6764 44.3988C82.4132 45.7069 80.6613 46.5132 78.7367 46.5132C76.8061 46.5132 75.0602 45.7069 73.791 44.3988C72.5337 43.0967 71.7471 41.2929 71.7471 39.3039C71.7471 37.3149 72.5337 35.5111 73.791 34.209C75.0602 32.9009 76.8061 32.0945 78.7367 32.0945V32.0945ZM83.2891 34.5853C82.1272 33.3787 80.5124 32.6321 78.7367 32.6321C76.955 32.6321 75.3462 33.3787 74.1783 34.5853C73.0104 35.7918 72.2894 37.4583 72.2894 39.3039C72.2894 41.1495 73.0104 42.822 74.1783 44.0285C75.3462 45.2291 76.955 45.9757 78.7367 45.9757C80.5124 45.9757 82.1272 45.2291 83.2891 44.0285C84.457 42.816 85.184 41.1495 85.184 39.3039C85.184 37.4583 84.457 35.7918 83.2891 34.5853Z" fill="#2B2A29"/>
<path id="Vector_78" d="M94.8251 29.8188C96.7558 29.8188 98.5017 30.6312 99.7649 31.9392C101.028 33.2413 101.809 35.0452 101.809 37.0342C101.809 39.0232 101.028 40.821 99.7649 42.1291C98.5017 43.4372 96.7558 44.2435 94.8251 44.2435C92.8945 44.2435 91.1486 43.4372 89.8854 42.1291C88.6221 40.827 87.8416 39.0232 87.8416 37.0342C87.8416 35.0452 88.6221 33.2413 89.8854 31.9392C91.1486 30.6312 92.8945 29.8188 94.8251 29.8188V29.8188ZM99.3835 32.3096C98.2156 31.109 96.6068 30.3624 94.8251 30.3624C93.0495 30.3624 91.4346 31.109 90.2667 32.3096C89.0988 33.5221 88.3778 35.1885 88.3778 37.0342C88.3778 38.8798 89.1048 40.5463 90.2667 41.7528C91.4346 42.9593 93.0495 43.706 94.8251 43.706C96.6068 43.706 98.2156 42.9593 99.3835 41.7528C100.551 40.5463 101.272 38.8798 101.272 37.0342C101.272 35.1885 100.551 33.5161 99.3835 32.3096V32.3096Z" fill="#2B2A29"/>
<path id="Vector_79" d="M86.906 47.8333C86.769 47.7676 86.7154 47.6123 86.7749 47.4749C86.8345 47.3376 86.9954 47.2838 87.1325 47.3435C88.3242 47.893 89.8616 47.8154 91.3155 47.3973C93.0435 46.9015 94.6285 45.9339 95.3614 44.9663C95.4508 44.8468 95.6177 44.8229 95.7368 44.9125C95.856 45.0021 95.8798 45.1694 95.7905 45.2888C94.992 46.3461 93.2938 47.3913 91.4644 47.9169C89.8973 48.3649 88.2289 48.4426 86.906 47.8333V47.8333Z" fill="#2B2A29"/>
<path id="Vector_80" fill-rule="evenodd" clip-rule="evenodd" d="M89.945 48.0065C91.4108 49.0697 93.1746 48.4605 93.8718 46.7642C93.0792 47.0031 91.8637 47.7616 91.3453 47.8751C91.1903 47.905 90.082 48.0065 89.945 48.0065Z" fill="white"/>
<path id="Vector_81" d="M90.4455 48.5918C90.2191 48.5022 89.9986 48.3768 89.79 48.2275L89.945 47.7377C90.0165 47.7377 90.3621 47.7078 90.6838 47.678C90.9639 47.6541 91.2261 47.6242 91.2916 47.6063C91.5121 47.5585 91.9292 47.3554 92.3702 47.1344C92.8528 46.8955 93.3712 46.6327 93.7943 46.5073L94.3306 46.346L94.1161 46.8716C94.0028 47.1404 93.8658 47.3853 93.7109 47.6063C93.3235 48.1439 92.8111 48.5142 92.245 48.6874C91.673 48.8666 91.0473 48.8427 90.4455 48.5918V48.5918ZM90.9341 48.1917C91.3274 48.2992 91.7207 48.2872 92.0841 48.1737C92.543 48.0364 92.9541 47.7317 93.2699 47.2957C93.0554 47.3973 92.829 47.5048 92.6085 47.6182C92.1318 47.8512 91.6909 48.0722 91.3989 48.1379C91.3393 48.1498 91.1546 48.1737 90.9341 48.1917V48.1917Z" fill="#2B2A29"/>
<path id="Vector_82" fill-rule="evenodd" clip-rule="evenodd" d="M83.009 32.5366C91.1665 29.8607 89.3789 31.0553 97.1788 26.6293C97.0358 27.2505 98.7042 27.8956 99.5444 29.4724C101.833 30.8641 101.284 30.1235 102.929 32.226C104.025 33.6117 103.93 33.8984 104.413 35.3558L104.889 36.4608L107.034 33.6595C105.557 31.557 103.787 30.7208 102.071 27.8717L97.2444 20.519C96.1718 21.3552 96.0586 24.1386 90.8328 26.6771C88.5685 27.8 88.1395 27.4357 85.327 27.4357C85.6845 25.5004 85.47 25.3332 86.7809 21.6718C83.3249 25.0465 78.4268 28.684 74.9886 30.9836C73.7016 31.8676 74.3689 31.5391 72.5575 31.6346C71.6697 28.2659 73.9995 23.9534 73.5884 22.1078C71.1512 22.2691 69.9416 25.2316 69.5603 26.1156C68.8095 29.5083 69.3279 31.9632 70.3111 36.4369L71.3181 38.3482C71.6279 37.2492 72.057 35.9352 72.6528 35.0691C72.8912 34.7346 74.6311 32.5843 74.8933 32.4171C77.2351 30.8641 80.6673 31.4614 83.009 32.5366V32.5366Z" fill="#F2B783"/>
<path id="Vector_83" fill-rule="evenodd" clip-rule="evenodd" d="M103.608 41.5199C103.567 47.5884 96.6068 48.4545 94.7298 50.6585C99.1631 50.2344 102.339 49.655 105.718 47.5884C106.951 46.8358 108.19 46.4177 108.608 45.8025C109.93 43.8673 109.066 42.6309 111.015 41.4124C118.725 36.7176 114.429 27.6865 109.424 31.7063C107.791 32.7277 107.38 33.6655 105.998 35.0512C104.192 36.8849 104.359 38.3721 103.608 41.5199V41.5199Z" fill="#F2B783"/>
<path id="Vector_84" fill-rule="evenodd" clip-rule="evenodd" d="M67.7608 32.2379C67.9693 31.9094 67.7846 32.3096 68.0885 31.5809L69.7986 26.9519C70.5256 25.375 71.4373 23.0276 73.058 22.4423C72.8435 24.1565 72.3072 25.6617 72.051 27.3998C71.6995 29.7472 71.8603 30.6192 71.9318 32.8292C72.7303 32.5425 73.4096 32.214 73.9936 31.7481C76.6452 29.562 79.3862 28.5944 83.1401 25.2854C83.7479 24.7419 84.2902 24.5089 84.7788 23.9176C85.2734 23.2845 85.321 22.723 86.3996 22.3467C86.5604 24.6224 83.8909 27.7283 83.0686 29.2813C85.9527 28.6183 88.7413 27.7283 91.1784 26.4083C95.9871 23.828 96.0586 21.9943 97.2265 21.17C97.298 21.2178 97.3933 21.2417 97.4172 21.3612L98.4957 22.8126C100.349 25.6856 104.711 32.0289 107.404 33.6475C110.145 29.6098 116.312 29.6755 114.674 36.425C114.155 38.5155 112.773 40.3253 111.343 41.2153C109.817 42.1829 110.008 41.4064 109.537 43.2879C109.186 44.6258 108.715 45.3067 108.411 46.4117C111.837 45.7786 116.431 41.1018 118.237 37.9003C123.582 28.457 122.456 18.3986 115.984 10.0783C106.534 -2.07071 88.3421 -2.09461 76.2221 6.29142C75.7752 6.60201 75.5428 6.73939 75.0482 7.23514L73.9459 8.5253C71.7471 11.2788 70.3349 11.673 68.1123 16.8217C65.7884 22.2272 66.2353 26.7846 67.7608 32.2379V32.2379Z" fill="#755826"/>
<path id="Vector_85" d="M68.1719 32.3514C68.16 32.3633 68.1481 32.3753 68.1004 32.4589L67.5522 32.2976L67.3734 32.3454C66.5988 29.5919 66.1042 27.0534 66.0923 24.5149C66.0804 21.9644 66.5571 19.42 67.7429 16.6605C69.3756 12.8915 70.5733 11.6193 71.9557 10.1619C72.48 9.61238 73.0282 9.033 73.636 8.27443C74.0055 7.83244 74.3868 7.38446 74.7682 6.94844C75.227 6.48852 75.4773 6.31531 75.8646 6.0525L75.9957 5.9629C82.3774 1.54292 90.4276 -0.571506 98.0309 0.151221C105.056 0.820192 111.7 3.90821 116.3 9.8274C119.631 14.11 121.568 18.8406 121.961 23.7205C122.342 28.475 121.264 33.3668 118.588 38.1034C117.587 39.8713 115.752 42.0873 113.726 43.8374C111.998 45.3306 110.127 46.5013 108.482 46.8059L107.851 46.9254L108.024 46.3042C108.173 45.7666 108.357 45.3306 108.548 44.8827C108.751 44.3929 108.965 43.8792 109.15 43.1863C109.525 41.6632 109.531 41.6632 110.222 41.3586C110.419 41.269 110.705 41.1436 111.128 40.8748C111.825 40.4388 112.511 39.7698 113.083 38.9455C113.619 38.181 114.048 37.2851 114.28 36.3234C114.721 34.5256 114.578 33.2533 114.096 32.441C113.815 31.9751 113.416 31.6585 112.951 31.4853C112.469 31.3061 111.903 31.2763 111.319 31.3838C110.044 31.6167 108.679 32.4888 107.738 33.8745L107.523 34.1911L107.195 33.994C106.075 33.319 104.699 31.8855 103.334 30.225C101.308 27.7582 99.2822 24.7717 98.162 23.0455L97.1907 21.7315C97.0001 21.9226 96.8213 22.1615 96.6187 22.4423C95.8679 23.4577 94.7834 24.933 91.3691 26.7667C90.1297 27.4357 88.8009 27.9971 87.4244 28.475C86.0539 28.9468 84.6179 29.341 83.158 29.6695L82.3 29.8667L82.7111 29.0902C82.9375 28.6661 83.2891 28.1405 83.6824 27.5491C84.5941 26.1873 85.7441 24.4552 85.9646 23.0157C85.7203 23.2008 85.5892 23.4159 85.4402 23.6548C85.3389 23.8161 85.2316 23.9952 85.1005 24.1685L85.0886 24.1804C84.7609 24.5686 84.4272 24.8135 84.0697 25.0704C83.8552 25.2197 83.6347 25.381 83.4023 25.584C81.2334 27.5073 79.3921 28.6482 77.7118 29.6875C76.4902 30.4401 75.3581 31.1449 74.2498 32.0587H74.2438C73.928 32.3156 73.5884 32.5306 73.2249 32.7158C72.8614 32.9009 72.4741 33.0622 72.0629 33.2055L71.5505 33.3907L71.5326 32.8412C71.5147 32.3872 71.4969 31.9751 71.479 31.5988C71.4134 30.1772 71.3658 29.2275 71.6518 27.3401C71.771 26.5158 71.9616 25.7334 72.1464 24.9569C72.2834 24.3775 72.4264 23.7981 72.5337 23.2008C71.5922 23.9534 70.9248 25.4347 70.3826 26.6353L70.174 27.1012C69.6377 28.5526 68.589 30.8044 68.2494 32.2379C68.2196 32.2976 68.2017 32.3156 68.1719 32.3514V32.3514ZM67.8561 31.0433C68.4341 29.4784 68.9644 27.8179 69.6497 26.3068C70.3766 24.7001 71.3002 22.6513 72.921 22.06L73.5407 21.839L73.4573 22.4901C73.344 23.4039 73.1355 24.27 72.9269 25.142C72.7482 25.8887 72.5694 26.6413 72.4502 27.4596C72.1761 29.2753 72.2179 30.1952 72.2834 31.563L72.3132 32.2499C72.5039 32.1722 72.6886 32.0886 72.8614 31.999C73.1772 31.8377 73.4692 31.6526 73.7373 31.4375C74.8874 30.4878 76.0433 29.7711 77.2887 29.0006C78.9333 27.9792 80.7388 26.8623 82.872 24.9808C83.1282 24.7538 83.3725 24.5806 83.599 24.4133C83.9088 24.1923 84.2008 23.9833 84.463 23.6727C84.5821 23.5174 84.6715 23.3741 84.7549 23.2307C85.0648 22.729 85.3329 22.293 86.2625 21.9644L86.763 21.7912L86.7988 22.3168C86.9299 24.1326 85.464 26.3247 84.3498 27.9971L83.9088 28.6661C85.0112 28.3913 86.1016 28.0748 87.1623 27.7104C88.503 27.2445 89.796 26.701 90.9877 26.0559C94.2471 24.3058 95.2661 22.9141 95.9692 21.9644C96.3148 21.4985 96.5829 21.1282 97.0001 20.8415L97.2205 20.6862L97.4708 20.8475C97.5959 20.9132 97.7211 20.9849 97.7866 21.182L98.8353 22.5976C99.9377 24.3118 101.952 27.2744 103.954 29.7114C105.14 31.1568 106.325 32.4171 107.303 33.104C108.357 31.7123 109.811 30.8402 111.176 30.5894C111.903 30.458 112.606 30.4998 113.226 30.7268C113.863 30.9657 114.405 31.3898 114.787 32.0289C115.371 33.0144 115.555 34.4897 115.061 36.5145C114.805 37.5777 114.328 38.5692 113.744 39.4114C113.112 40.3193 112.344 41.0659 111.557 41.5617C111.092 41.8544 110.771 41.9917 110.55 42.0933C110.216 42.2426 110.21 42.2426 109.93 43.3834L109.924 43.3894C109.734 44.1301 109.501 44.6736 109.287 45.1932C109.198 45.4083 109.108 45.6173 109.025 45.8383C110.348 45.4023 111.813 44.4287 113.196 43.2281C115.156 41.5378 116.926 39.4055 117.885 37.7032C120.483 33.1159 121.526 28.3854 121.157 23.7862C120.775 19.0616 118.898 14.4744 115.669 10.3232C111.212 4.5951 104.77 1.60265 97.9535 0.95757C90.5408 0.252762 82.6813 2.31343 76.4485 6.6259L76.3174 6.72147C75.9718 6.94844 75.7573 7.09776 75.3402 7.51587L74.2617 8.78214C73.636 9.56459 73.0759 10.1559 72.5396 10.7174C71.2108 12.121 70.0549 13.3455 68.4818 16.983C67.3436 19.629 66.8848 22.072 66.8967 24.5089C66.9027 26.6293 67.2721 28.7617 67.8561 31.0433V31.0433Z" fill="black"/>
<path id="Vector_86" d="M101.189 34.9496C101.672 34.7286 104.288 33.546 106.194 32.8173C107.338 32.3812 108.28 32.1125 108.512 32.2857L108.196 32.7157C108.137 32.6739 107.374 32.9427 106.391 33.319C104.478 34.0537 101.892 35.2184 101.421 35.4394L101.189 34.9496V34.9496Z" fill="#2B2A29"/>
<path id="Vector_87" d="M112.403 34.4479C111.617 34.5793 111.086 34.8242 110.651 35.2005C110.205 35.5768 109.829 36.1084 109.37 36.7953L108.87 37.7868C108.78 37.972 108.703 38.0018 108.709 38.0496L108.173 38.0795C108.167 38.0197 108.262 37.8047 108.393 37.5479L108.917 36.5026C109.4 35.7799 109.799 35.2244 110.306 34.7884C110.818 34.3523 111.426 34.0656 112.314 33.9163L112.403 34.4479V34.4479Z" fill="#2B2A29"/>
<path id="Vector_88" fill-rule="evenodd" clip-rule="evenodd" d="M80.6613 41.9559C81.0665 41.711 81.1023 41.6931 81.1917 40.3552C81.287 38.9217 80.2442 38.3542 79.0584 38.9396C78.0514 39.501 78.8082 42.4039 80.6613 41.9559V41.9559Z" fill="#221D1B"/>
<path id="Vector_89" fill-rule="evenodd" clip-rule="evenodd" d="M93.2878 40.0864C94.1816 41.2212 95.9871 40.7434 95.1886 38.4438C93.9433 36.3234 92.1914 38.1093 93.2878 40.0864Z" fill="#221D1B"/>
<path id="Vector_90" fill-rule="evenodd" clip-rule="evenodd" d="M96.7379 25.2137C96.5472 26.2471 94.6762 28.3615 96.1301 27.4237C96.4102 27.2326 95.9633 28.2898 95.8441 29.0424C96.148 28.7139 97.5125 26.4083 96.7856 26.6711C95.8441 26.9997 96.5472 27.0235 96.7379 25.2137V25.2137Z" fill="#AF9778"/>
<path id="Vector_91" d="M95.6892 26.5517C95.9692 26.0738 96.3148 25.5004 96.3744 25.148L97.1014 25.2495C97.0597 25.6856 96.9822 26.026 96.9047 26.2829C96.9524 26.2829 96.9941 26.2948 97.0358 26.3068C97.304 26.3964 97.3933 26.6054 97.3576 26.9041C97.3397 27.0474 97.2861 27.2206 97.2086 27.4118C96.9345 28.0867 96.3148 29.0782 96.1122 29.2932L95.4866 28.9886C95.5342 28.6661 95.6355 28.3137 95.719 28.015V28.0091C95.5164 28.0389 95.3733 27.9792 95.284 27.8299C95.0992 27.5491 95.3674 27.0952 95.6892 26.5517V26.5517ZM95.9037 27.3699C95.8858 27.3938 95.8858 27.4118 95.8977 27.4356C95.9394 27.4954 95.9215 27.4476 95.9037 27.3699ZM96.4876 27.1788L96.4995 27.1967L96.5115 27.1728L96.4876 27.1788V27.1788Z" fill="#2B2A29"/>
<path id="Vector_92" fill-rule="evenodd" clip-rule="evenodd" d="M112.528 63.4585C112.207 61.7204 111.069 59.9584 110.038 58.3158C109.579 57.4916 109.126 56.7211 108.78 56.1357C108.649 55.8729 108.494 55.628 108.328 55.3951L108.304 55.3533C107.315 53.7764 103.686 49.3146 101.618 51.0288C98.0071 52.319 100.826 60.6393 102.16 63.6258C102.583 64.5635 103.376 66.678 103.751 67.3171C105.795 66.7735 107.207 66.4809 109.084 65.6327L109.484 65.3818L109.495 65.4595C111.206 64.8084 111.301 64.5277 112.373 63.5541L112.528 63.4585V63.4585Z" fill="#1460AC" stroke="black" stroke-width="2.07696" stroke-miterlimit="2.61313"/>
<path id="Vector_93" fill-rule="evenodd" clip-rule="evenodd" d="M101.618 51.0288C104.037 52.6296 105.181 54.4573 106.522 57.1631C107.601 59.373 109.031 62.921 109.495 65.4595C111.235 64.8025 111.301 64.5158 112.427 63.5063C112.195 61.8638 109.144 56.7151 108.304 55.3533C107.315 53.7764 103.686 49.3146 101.618 51.0288Z" fill="#022F86"/>
<path id="Vector_94" fill-rule="evenodd" clip-rule="evenodd" d="M99.3776 64.8383C99.3776 64.5575 99.312 64.0558 99.1809 63.13C99.0677 62.2161 98.9962 61.3202 98.8532 60.6632C98.5493 59.1102 97.9415 57.7723 96.9286 57.1152C94.9145 55.8012 92.0543 57.163 92.5251 50.772L89.6709 51.2856C87.3649 52.743 85.7798 56.07 84.7549 58.931C83.2057 61.374 82.8839 83.4619 80.6077 83.9756L95.8977 82.8467L99.0439 82.8288C99.4193 79.6751 100.242 67.8188 99.3776 64.8383Z" fill="#022F86"/>
<path id="Vector_95" d="M96.9047 68.2489C101.052 71.6236 100.569 72.8182 106.79 76.9933C109.108 78.5462 110.383 79.6691 108.929 72.6688C108.542 70.7993 107.958 66.2479 107.91 66.1165" stroke="#2B2A29" stroke-width="4.17699" stroke-miterlimit="2.61313"/>
<path id="Vector_96" fill-rule="evenodd" clip-rule="evenodd" d="M95.6832 92.5707L94.557 63.4526L73.3917 67.6934L74.2855 93.8011C79.7556 93.5921 91.8458 92.9112 95.6832 92.5707Z" fill="#890004" stroke="black" stroke-width="2.07696" stroke-miterlimit="2.61313"/>
<path id="Vector_97" fill-rule="evenodd" clip-rule="evenodd" d="M74.2855 93.8011L73.2904 67.6336C72.2119 67.2812 68.2553 63.8109 66.6405 63.1061C65.8063 62.7477 63.0415 61.3381 62.6542 61.3919C61.6233 62.9687 62.8448 77.3277 63.0057 80.3321C63.3573 86.2812 62.6065 87.195 64.8112 88.4195C67.6833 90.0202 71.4849 92.5468 74.2855 93.8011V93.8011Z" fill="#C80021" stroke="black" stroke-width="2.07696" stroke-miterlimit="2.61313"/>
<path id="Vector_98" fill-rule="evenodd" clip-rule="evenodd" d="M88.4851 64.6651C88.0382 74.0904 91.9828 85.7854 86.2863 91.406C85.5594 92.1586 84.7371 92.4393 84.0816 93.4248L95.6891 92.7917C95.5938 88.1149 95.1052 82.6855 95.129 77.937C95.1469 75.6792 95.0337 72.7704 94.8907 70.417C94.4676 64.6113 94.5987 66.8751 94.557 63.4526L88.4851 64.6651V64.6651Z" fill="#550000"/>
<path id="Vector_99" fill-rule="evenodd" clip-rule="evenodd" d="M83.7837 64.241C84.314 65.334 88.068 61.9295 90.0701 63.136C90.0463 63.136 84.6894 63.8707 85.5415 66.7078C86.5485 67.3051 89.1882 63.7213 91.7445 64.4262C90.2131 64.9518 87.9965 67.3111 89.081 68.213C89.4504 68.5117 91.3512 66.218 93.4427 66.8034C94.8609 67.2215 93.8122 68.5475 95.5223 68.9238C97.9654 69.4554 98.0965 64.3485 92.7158 61.9175C89.9211 60.5318 84.1591 61.9175 83.7837 64.241V64.241Z" fill="#F9D8B5"/>
<path id="Vector_100" d="M84.0697 64.1753C84.2782 64.3127 84.9814 63.9901 85.8394 63.5959C87.2397 62.9568 88.9737 62.1624 90.2071 62.909L90.0701 63.4107C90.0641 63.4107 89.3908 63.5003 88.5447 63.7572C87.9011 63.9543 87.1742 64.241 86.6141 64.6412C86.0897 65.0234 85.7143 65.5073 85.7143 66.1165C85.7143 66.2419 85.7322 66.3733 85.762 66.5107C86.0778 66.5585 86.6796 66.1464 87.3946 65.6506C88.646 64.7965 90.2131 63.7213 91.816 64.1633L91.8339 64.677C91.1427 64.9159 90.2965 65.561 89.7126 66.2598C89.4742 66.5525 89.2776 66.8512 89.1644 67.1319C89.0631 67.3768 89.0333 67.6038 89.0929 67.7829C89.1167 67.8606 89.1703 67.9382 89.2478 68.0039C89.2716 68.0219 89.4683 67.8248 89.8079 67.5978C90.6779 67.0184 92.0305 66.1284 93.5142 66.5465C94.3306 66.7855 94.4676 67.2573 94.6106 67.7352C94.7179 68.1115 94.8371 68.4937 95.5819 68.655C95.9752 68.7446 96.291 68.655 96.5055 68.434C96.6842 68.2488 96.8034 67.9741 96.8511 67.6336C96.8988 67.2752 96.869 66.8452 96.7379 66.3853C96.3506 64.9757 95.0814 63.2793 92.6025 62.1624L92.5966 62.1564C92.1854 61.9533 91.7087 61.81 91.1903 61.7264C89.8675 61.5173 88.2944 61.6666 86.9537 62.0728C85.6428 62.473 84.5583 63.1121 84.1769 63.8946C84.1293 63.9842 84.0935 64.0797 84.0697 64.1753V64.1753ZM86.0599 64.0857C84.8622 64.6352 83.8909 65.0772 83.5394 64.3605L83.5155 64.1992C83.5453 64.008 83.6049 63.8289 83.6943 63.6556C84.1472 62.7358 85.3508 62.0011 86.7988 61.5591C88.211 61.1291 89.8735 60.9738 91.2738 61.2008C91.8398 61.2904 92.3702 61.4457 92.823 61.6726C95.4687 62.8672 96.8332 64.7069 97.2563 66.2419C97.4052 66.7735 97.441 67.2752 97.3814 67.7113C97.3218 68.1592 97.149 68.5415 96.8868 68.8103C96.5412 69.1627 96.0586 69.312 95.4627 69.1866C94.408 68.9536 94.2531 68.4161 94.0922 67.8845C93.9969 67.55 93.8956 67.2155 93.3653 67.0602C92.1199 66.7138 90.8924 67.5201 90.1058 68.0458C89.5696 68.3982 89.1942 68.649 88.9141 68.4221H88.9082C88.7532 68.2906 88.646 68.1354 88.5864 67.9562C88.4791 67.6515 88.5208 67.2932 88.6638 66.9288C88.8009 66.6003 89.0273 66.2479 89.3014 65.9134C89.7066 65.4236 90.2369 64.9577 90.7673 64.6173C89.6887 64.7367 88.6043 65.4774 87.6985 66.0986C86.7511 66.7496 85.9765 67.2753 85.4044 66.9408L85.2793 66.7855C85.2138 66.5525 85.178 66.3255 85.178 66.1165C85.178 65.3042 85.6487 64.677 86.2982 64.2052C86.9179 63.7572 87.7045 63.4466 88.3897 63.2435L88.6162 63.1778C87.7939 63.2913 86.8643 63.7154 86.0599 64.0857V64.0857Z" fill="black"/>
<path id="Vector_101" fill-rule="evenodd" clip-rule="evenodd" d="M71.1393 91.9196C71.7293 92.7439 72.5039 93.0963 73.6241 93.4726C73.9995 90.301 73.4871 81.9807 73.2308 78.7851C73.064 76.6468 72.9925 73.732 72.9925 71.6415C73.0163 67.102 72.7839 67.5261 70.8116 66.0209L71.1393 91.9196V91.9196Z" fill="#890004"/>
<path id="Vector_102" fill-rule="evenodd" clip-rule="evenodd" d="M64.1975 57.4856C63.4586 58.8892 62.3682 60.92 64.5788 62.1206C64.8887 61.589 64.4477 58.5368 65.8778 58.1247C64.8053 60.0779 64.9244 62.5088 66.6882 62.3356C66.9266 61.6547 65.9612 60.1973 66.7359 59.4626C67.2722 58.9729 68.3984 59.0684 69.1015 59.4447C69.7986 60.5258 67.8502 62.8553 69.2207 63.9065C70.907 63.7452 70.4839 63.2017 71.6578 61.9772C74.1664 59.373 74.7503 56.8106 70.4183 55.401C64.4835 53.4479 60.1456 59.0684 61.4624 61.2545C62.2907 61.374 63.3454 58.0889 64.1975 57.4856V57.4856Z" fill="#F9D8B5"/>
<path id="Vector_103" d="M64.4358 57.611L64.4179 57.6409C63.7684 58.8713 62.8508 60.6154 64.412 61.7025C64.4298 61.5293 64.4418 61.3023 64.4596 61.0455C64.5311 59.8628 64.6324 58.2024 65.8063 57.8679L66.426 57.6887L66.1162 58.2561C65.6275 59.1401 65.4011 60.1257 65.4726 60.8902C65.5024 61.147 65.562 61.38 65.6573 61.5651C65.7467 61.7384 65.8719 61.8757 66.0268 61.9593C66.146 62.0251 66.2949 62.0669 66.4618 62.0728C66.4618 61.8698 66.3962 61.601 66.3307 61.3202C66.1579 60.6035 65.9672 59.8151 66.5511 59.2715V59.2655C66.861 58.9848 67.3079 58.8654 67.7786 58.8594C68.2792 58.8534 68.8214 58.9848 69.2266 59.2058L69.3279 59.2954C69.6973 59.8748 69.4828 60.6453 69.2564 61.4397C69.024 62.2699 68.7797 63.136 69.3041 63.6258C70.2098 63.5243 70.3707 63.2794 70.6626 62.8254C70.8414 62.5507 71.0619 62.2102 71.4671 61.7921C72.3192 60.9081 72.9389 60.0301 73.201 59.2178C73.3441 58.7877 73.3798 58.3696 73.2964 57.9814C73.213 57.5991 73.0044 57.2347 72.6528 56.8943C72.1702 56.4284 71.4075 56.0043 70.3349 55.6579C67.9991 54.8874 65.9255 55.3353 64.3703 56.2731C63.6731 56.6912 63.0832 57.2109 62.6184 57.7663C62.1596 58.3158 61.8259 58.9012 61.6471 59.4507C61.4565 60.0181 61.4386 60.5497 61.6114 60.9619C61.9034 60.8006 62.3383 59.9763 62.7733 59.164C63.2024 58.3577 63.6254 57.5633 64.0425 57.2646L64.4358 57.611V57.611ZM64.4477 62.3595C63.2083 61.6846 62.8985 60.7887 62.9938 59.8808C62.4933 60.8006 61.9868 61.601 61.4207 61.5174L61.2956 61.4994L61.23 61.3919C60.8904 60.8245 60.8785 60.0779 61.1347 59.2835C61.3373 58.6683 61.7008 58.0232 62.2073 57.4199C62.7078 56.8226 63.3454 56.2612 64.0962 55.8072C65.7646 54.7978 67.9991 54.3199 70.4958 55.1442C71.6577 55.5205 72.48 55.9804 73.0282 56.506C73.4573 56.9242 73.7135 57.3841 73.8207 57.8679C73.928 58.3517 73.8803 58.8594 73.7135 59.379C73.4215 60.2809 72.7601 61.2247 71.8484 62.1684C71.4849 62.5507 71.2764 62.8672 71.1095 63.1241C70.7163 63.7333 70.5077 64.0499 69.2445 64.1753L69.0538 64.1216C68.1421 63.4167 68.446 62.3297 68.738 61.2963C68.9227 60.6513 69.0955 60.0241 68.9108 59.6418C68.5831 59.4865 68.1719 59.391 67.7786 59.397C67.433 59.397 67.1172 59.4806 66.9146 59.6657C66.5631 60.0002 66.712 60.6274 66.8491 61.1948C66.9623 61.6547 67.0636 62.0788 66.9385 62.4252L66.8848 62.5865L66.712 62.5985C66.3426 62.6343 66.0268 62.5746 65.7706 62.4312C65.5203 62.2938 65.3236 62.0788 65.1866 61.816C65.0972 61.6428 65.0257 61.4516 64.984 61.2366C64.9602 61.6906 64.9244 62.0609 64.8112 62.258L64.6742 62.479L64.4477 62.3595V62.3595Z" fill="black"/>
<path id="Vector_104" fill-rule="evenodd" clip-rule="evenodd" d="M83.5275 62.2819C84.3438 60.0241 85.3985 58.1904 86.5009 56.2671C88.354 53.0238 89.3849 52.5041 90.3263 51.1184C86.62 51.4708 82.0259 54.29 79.5173 55.7713C80.9235 59.7195 82.2106 61.4397 82.4013 62.1027L83.5275 62.2819Z" fill="#1460AC"/>
<path id="Vector_105" d="M83.3487 61.9832C84.1531 59.827 85.1661 58.059 86.2268 56.2074L86.2685 56.1297C87.49 53.9974 88.354 53.0298 89.075 52.2294C89.3074 51.9666 89.5279 51.7217 89.7305 51.4649C86.3996 52.0084 82.4609 54.3379 80.0536 55.7654L79.845 55.8908C80.7626 58.4174 81.6147 59.9942 82.1391 60.9559C82.3477 61.3441 82.5085 61.6368 82.5979 61.8578L83.3487 61.9832ZM86.6915 56.4762C85.6071 58.3696 84.5762 60.1734 83.7777 62.3715L83.7003 62.5805L82.1868 62.3356L82.1391 62.1744C82.0855 61.9832 81.9186 61.6726 81.6684 61.2127C81.1202 60.2093 80.2204 58.5428 79.261 55.861L79.1895 55.6519L79.7795 55.2995C82.3715 53.7645 86.7213 51.1901 90.2965 50.8497L90.8626 50.7959L90.5468 51.2678C90.2072 51.7755 89.8616 52.1577 89.4742 52.5878C88.7711 53.3702 87.925 54.314 86.7333 56.3985L86.6915 56.4762V56.4762Z" fill="black"/>
<path id="Vector_106" fill-rule="evenodd" clip-rule="evenodd" d="M71.8186 64.5396C73.0402 65.6207 72.9448 65.788 74.071 65.4594C74.3511 64.8741 74.8695 66.2837 74.1187 64.4022L72.7363 62.0489L71.05 63.793L71.8246 64.5396H71.8186V64.5396Z" fill="white"/>
</g>
</g>
</g>
<defs>
<clipPath id="clip0_85_28">
<rect width="118" height="132" fill="white" transform="translate(52)"/>
</clipPath>
</defs>
</svg>
