<svg width="193" height="152" viewBox="0 0 193 152" fill="none" xmlns="http://www.w3.org/2000/svg">
<g id="parent_vector">
<path id="Ellipse 11" d="M190.395 139.921C190.395 162.186 150.077 132.5 101 132.5C51.9234 132.5 -21.4327 171.056 6.39461 78.754C6.39461 56.4883 77.8183 26.254 126.895 26.254C212.351 12.3852 190.395 117.655 190.395 139.921Z" fill="#CEEAFA"/>
<g id="parent 1" clip-path="url(#clip0_85_31)">
<g id="Layer_x0020_1">
<g id="_2180259781168">
<path id="Vector" fill-rule="evenodd" clip-rule="evenodd" d="M47.922 134.571C48.3878 132.836 53.4942 137.075 54.374 137.731L56.6771 139.483C57.0911 139.776 57.6863 140.277 58.3246 140.631C58.9974 142.254 58.4712 139.423 59.42 142.297C59.6788 143.109 59.1354 142.453 60.0325 143.35C61.4557 144.775 66.5449 146.009 66.6139 143.592C67.0279 146.423 66.7001 148.573 65.6047 150.308C60.7311 150.282 47.4907 137.558 47.5338 135.469C47.5511 134.528 47.4217 135.055 47.922 134.571ZM133.886 104.53C134.697 105.713 135.49 107.025 136.215 108.406C137.155 110.184 141.959 121.053 142.089 122.52C139.786 123.841 137.465 119.404 135.62 116.926C134.766 115.804 133.696 114.164 132.989 112.731C131.824 110.409 133.713 111.436 133.454 109.287C133.316 108.19 133.101 108.346 132.79 108.173C132.333 107.293 132.35 107.051 131.781 106.369C131.126 105.583 131.212 106.17 130.772 105.1C131.634 103.866 132.264 102.795 133.886 104.53ZM81.4587 65.503C81.7606 65.8137 84.633 71.891 85.1419 72.8146C86.8929 76.0432 88.9113 78.6761 90.9039 81.3694C94.5698 86.2899 96.1483 85.9791 94.2161 89.8205C93.759 90.7442 92.9913 92.5829 92.4392 93.4634C90.533 93.1095 88.0315 91.642 87.1776 90.3903C84.1931 89.1817 83.1666 88.353 82.5111 86.1345C80.8894 80.5407 78.6899 69.4998 79.8112 63.9491C81.4156 63.9664 80.7514 63.9491 81.4587 65.503ZM64.4143 75.8015C61.8956 77.1136 60.3602 77.7955 57.6173 77.8214C55.1417 77.8214 54.2446 77.4848 52.7092 76.5007C51.3032 75.6029 48.5171 72.6851 47.3354 71.2349C46.1968 69.8278 44.9634 68.274 44.7046 66.582C44.6356 66.1418 44.6615 65.5893 44.6615 65.1577C45.6017 64.9591 45.0324 65.0195 46.0847 64.6311C49.2848 63.4657 47.3095 67.3071 50.8892 70.7946C54.1325 73.98 66.5621 68.6193 67.8819 66.1849C72.0739 67.8941 69.9003 72.1586 67.14 74.0404L64.4143 75.8015ZM100.823 97.3308C99.2363 98.6256 94.0868 100.119 91.5422 100.404C89.5065 100.879 86.8498 100.706 84.8314 100.067C81.5881 99.04 78.2068 89.363 77.1114 86.3071C73.9802 77.3985 73.9371 70.3112 74.5668 61.2903L75.7744 62.4125C76.197 62.9995 76.0418 62.7147 76.2833 63.4657C77.4909 63.2671 77.3356 63.224 77.9481 62.5161C79.6818 64.6052 79.0004 63.224 78.871 66.159C78.7847 67.851 78.8883 69.6724 78.871 71.3903C79.3713 73.0563 79.6818 79.8155 81.8469 87.0582C82.442 88.9918 82.3989 88.8796 83.9515 89.6911C86.8498 91.2276 90.4726 94.4303 92.9482 94.0159C93.6037 93.0491 94.1558 91.3139 94.8113 90.045C95.4927 88.6983 96.3639 87.5588 95.4927 86.0482C95.4065 85.8496 94.5008 84.6842 94.3283 84.4425C93.9315 83.9418 93.4485 83.4153 93.0775 82.975C92.0942 81.8096 91.6974 81.1708 90.6623 79.9278C89.1787 78.1236 82.6836 68.5588 82.7094 65.7447C80.6048 63.7937 82.028 62.3694 83.5806 59.7969C84.9608 60.3925 84.633 60.7896 86.0131 61.0055L87.0741 59.2099C87.6175 63.2844 88.7992 65.7447 90.6451 69.0164C96.2777 79.0645 101.522 82.4053 110.07 89.4062C108.802 92.1254 102.945 96.5797 100.823 97.3308ZM76.7836 60.8932C77.5771 61.8601 77.2494 61.5579 77.0682 62.7578C75.9296 62.1449 75.6191 61.7047 75.5156 60.6084C74.8946 60.0818 75.0067 60.3062 74.6789 59.2703L75.9986 59.184L76.7836 60.8932ZM81.4328 61.9032L80.1649 62.9823C78.6899 62.3694 77.465 60.8501 77.1804 59.2272L79.1298 59.0114L83.4254 58.2431C82.4679 60.1077 82.9682 60.0386 81.4328 61.9032ZM84.5467 59.3826L83.9084 58.6574C84.4346 57.2331 84.633 57.5611 86.3064 56.9655C86.7377 57.2935 86.7204 56.1799 86.6083 57.8028L85.5991 60.4789L84.5467 59.3826ZM45.6879 58.8732C44.1525 57.8028 43.98 58.6143 43.9973 56.6374C45.5758 56.2835 46.7834 56.6806 47.5338 58.1567C47.3958 60.194 46.7661 61.463 45.6017 62.6715C43.6954 64.6483 43.0139 63.9491 41.5044 62.896C43.2986 62.542 44.4803 61.5752 44.6615 59.6933C43.5401 60.2372 40.5384 64.4498 38.2353 60.2199C37.5711 58.7438 37.9679 57.4057 38.9599 56.3526C40.1416 55.1009 41.237 55.2303 43.2986 55.4548C43.2986 55.4721 43.3676 55.5152 43.3676 55.5152C43.9541 56.4648 42.7983 55.8087 43.0571 57.5179C43.2296 58.7438 44.4631 59.4948 45.6879 58.8732ZM94.0177 52.6924L93.4743 53.219L92.4392 52.6665L90.9729 53.3916C90.3173 53.8492 90.3173 53.9355 89.5496 54.3585C88.6094 54.9023 87.4191 55.498 86.3667 55.9382C81.0792 58.1567 75.6709 58.6833 69.9175 58.502C66.7605 58.4157 64.4833 57.3453 62.2234 57.1209C61.0589 56.6202 60.0497 56.0936 58.9801 56.0504L58.9974 56.3353C60.0497 58.5279 69.2188 59.2703 72.2465 59.4516C69.4862 65.2871 60.8864 70.4234 55.1589 70.9069C50.1819 71.3471 49.4832 67.6352 47.7926 63.7074C46.7661 61.2472 47.137 62.9995 47.922 60.5652C48.3619 59.2531 48.2756 57.3367 47.4476 56.577C46.8696 56.0418 46.4987 56.0677 45.7569 55.8519C44.0922 55.3426 39.6327 52.7097 37.5539 57.0777C35.4492 61.463 40.5556 63.0427 40.6246 63.1118C40.9783 63.6642 41.7201 66.5993 42.3325 67.8337C44.1353 71.4507 47.0508 76.587 50.6218 79.0041C53.7616 81.1277 57.2205 81.4384 61.1969 80.3162C62.948 79.8328 64.2849 79.1767 65.7513 78.4085C68.7358 76.8719 68.7185 76.328 69.9606 75.6461C70.0124 80.4716 72.1171 88.8796 73.7818 93.0491C74.8083 95.5956 76.1022 97.5293 77.3356 100.067C79.8543 105.29 82.1315 103.537 83.5375 104.09C83.2529 104.901 83.4513 104.435 82.7267 104.945C76.5679 109.356 77.1545 105.247 69.193 119.732C67.3988 122.986 65.5788 126.362 64.1124 129.677C61.7662 135.011 61.7662 135.538 59.9462 140.605C56.263 139.293 50.7943 132.922 47.5338 133.829C45.4033 134.416 46.9386 137.403 47.7063 138.585C50.4924 142.824 53.451 145.129 57.462 148.288C58.937 149.471 63.2757 153.796 66.105 151.163C69.0032 148.443 66.3206 143.506 67.5713 141.02C70.3143 135.538 77.0941 119.956 83.0545 117.582C85.3144 116.659 90.8607 114.492 92.7929 114.337L96.4761 118.506C97.8821 119.974 98.8913 121.122 100.34 122.477C104.11 126.008 107.422 125.792 111.649 123.642L129.15 113.456C129.858 112.999 130.867 112.204 131.764 111.833C132.506 114.794 134.748 117.28 136.301 119.292C137.664 121.07 139.725 125.352 142.839 123.09C143.952 119.404 139.872 113.284 138.561 110.21C137.095 106.852 134.895 98.9105 130.729 104.133C129.418 105.773 128.65 105.385 125.096 107.025L107.862 115.96C106.81 114.708 105.378 111.436 104.524 109.882C105.757 108.89 110.467 107.75 114.133 105.29C117.704 102.856 117.592 99.5407 117.592 94.3008C120.887 94.8878 121.896 94.3439 123.164 92.1254C129.262 81.5075 124.061 79.876 113.822 75.5166C111.321 74.4634 110.976 74.1268 109.613 71.8737C107.836 68.9732 105.447 65.0886 104.524 61.4198C108.975 57.1899 121.387 58.105 127.77 64.3203C129.814 66.2971 130.927 67.4798 133.558 69.4135C133.558 71.7787 133.342 71.9773 134.748 73.5139C135.378 73.8851 135.404 73.9973 135.93 73.9368C137.396 73.7815 136.301 74.2649 136.939 73.1858C135.275 73.0304 134.265 72.288 134.239 70.622C134.222 69.1717 135.887 68.1186 136.698 67.6352C136.896 67.1517 136.81 67.2208 137.224 66.6424C139.57 66.4957 142.727 68.5761 141.847 71.0363C141.563 72.3744 140.881 72.5298 140.165 73.7556L140.709 73.9973C142.175 73.4966 142.132 72.8146 142.839 71.2522C143.081 69.6724 142.753 69.3271 142.115 68.2049C140.252 66.3403 140.183 66.1418 137.267 65.8569C137.138 63.9491 134.921 62.4557 132.902 60.5479C128.952 56.836 119.653 49.179 114.676 50.2494C113.952 50.5602 114.193 50.3185 113.952 50.8019C118.144 50.9573 122.905 53.4348 126.062 55.7397C127.227 56.5943 127.969 57.2935 129.064 58.174L135.033 63.5261C135.887 64.3635 137.621 65.4166 136.896 66.513C136.232 67.5057 135.404 67.1517 134.481 66.7115C131.082 65.0886 127.641 60.9623 123.587 58.502L117.419 55.9814C108.716 54.8419 105.292 60.8069 104.041 61.0486C104.041 64.6052 104.524 66.9791 105.602 69.94L106.456 72.1586C110.01 81.9219 110.355 75.905 117.618 79.4875C118.454 79.9019 118.981 80.2731 119.791 80.7565C123.587 83.0613 125.752 85.0813 124.587 88.5947C124.018 90.304 123.25 91.8837 122.224 93.1786C120.887 94.8878 119.222 94.6547 117.29 93.4893L101.41 81.4643C96.502 76.6733 99.9867 67.8769 98.5807 64.1218C97.5974 63.7506 94.8113 64.6742 96.916 58.8819L98.4255 55.6965C98.9775 54.7728 100.798 52.4507 101.695 52.0277L106.499 50.4911C106.43 50.4739 105.887 50.2753 105.775 50.2494C104.351 49.9905 98.9085 51.6824 96.985 52.2694L94.8286 52.7528C94.7423 52.7528 94.6388 52.7528 94.5439 52.7528L94.0177 52.6924Z" fill="#1E1E1D"/>
<path id="Vector_2" fill-rule="evenodd" clip-rule="evenodd" d="M55.6247 43.2054C57.0048 44.06 58.7386 49.861 66.0877 48.3417C68.9342 47.7547 72.6001 46.1663 74.1786 44.1118C74.9894 43.05 74.9204 42.8342 74.308 41.5652L78.4483 43.6457C76.5679 44.9837 77.051 42.9205 75.4294 44.3708C74.5927 45.1132 74.1096 45.8815 73.2125 46.5893C71.8497 47.6597 69.1067 48.8683 67.071 49.3517C60.9985 50.802 56.5908 48.0827 55.6247 43.2054ZM52.9939 19.0432C51.4585 19.941 49.1296 25.7161 48.543 27.995C47.5511 31.8365 47.1112 35.8765 47.7322 40.2013C49.2158 50.9142 58.1434 54.6607 58.9801 56.0505C60.0497 56.0936 61.0589 56.6202 62.2234 57.1209C66.2775 58.0877 70.6248 57.5353 74.4633 56.5943L76.8267 55.826C80.8204 54.3585 80.691 54.0046 83.7187 51.6997C85.0298 50.7156 84.771 50.6897 85.7284 49.5244C92.2409 41.5825 88.342 30.7402 88.342 22.1164C86.4358 22.2027 88.2558 21.9005 86.7635 22.6861C83.8912 24.2486 88.4714 22.1595 85.97 23.1522C85.9527 20.7524 86.2977 19.7683 86.2977 17.6879L82.6836 17.4894L77.4219 18.3612C77.5513 17.2477 77.396 18.0159 78.1033 17.006C76.1453 17.006 73.9112 16.8937 71.9791 17.006L57.9709 19.3971C58.3159 17.99 59.1958 17.9037 60.0325 16.6779C58.9111 16.7383 58.9543 16.8506 57.945 17.1786L55.8662 18.0764C55.7972 18.1023 55.711 18.1627 55.642 18.1886L52.9939 19.0432Z" fill="#DB9455"/>
<path id="Vector_3" fill-rule="evenodd" clip-rule="evenodd" d="M142.115 68.2049C142.744 69.3271 143.081 69.6724 142.839 71.2522L145.332 71.7183L138.63 77.1999C137.465 78.0545 138.406 77.5107 137.509 77.7697C137.026 76.4748 137.336 75.6461 137.552 74.4548C138.871 74.8519 139.458 74.8519 140.709 73.9973L140.165 73.7556C136.758 73.4707 138.25 74.567 137.224 71.4507C136.741 71.209 136.81 71.4076 137 70.9069L135.758 70.8378C136.172 71.6061 136.473 72.1758 136.939 73.1858C136.301 74.2649 137.396 73.7815 135.93 73.9282C135.404 73.9973 135.378 73.8851 134.748 73.5139C133.739 76.5007 133.756 77.2431 134.791 80.1867C133.058 82.1204 128.469 84.2008 127.658 86.333C127.641 87.1445 134.852 95.3971 136.016 96.692C137.353 98.2027 137.621 99.0832 138.82 100.352L147.549 110.426C149.878 112.826 153.647 109.9 155.554 108.121C158.495 105.402 161.523 103.52 165.861 99.3249L172.486 93.3081C173.909 92.1686 178.231 88.2408 178.955 86.6611C179.041 85.7374 170.424 76.587 169.148 74.8346C167.552 72.5902 165.775 71.1917 164.11 68.93C163.23 67.7474 162.678 66.9791 161.85 65.7447C158.564 60.9191 158.78 62.4989 153.406 66.0295C151.741 67.1259 149.127 68.7747 148.101 69.9573C145.185 68.4466 146.298 68.3776 142.115 68.2049Z" fill="#1E1E1D"/>
<path id="Vector_4" fill-rule="evenodd" clip-rule="evenodd" d="M51.562 14.7442C51.9847 14.9169 51.2774 14.9428 52.0968 14.8046C52.0968 14.8046 52.6661 14.5888 52.7524 14.5457C53.3648 14.2781 53.6926 14.1486 54.2446 13.95C57.7035 12.7674 61.0158 12.5084 64.7421 12.5257C66.2171 12.5947 67.3988 12.1286 68.8048 12.6379C68.339 13.8637 67.071 14.0191 66.2171 14.8564L75.9037 14.2176C77.396 13.5098 80.0527 13.2681 81.6744 12.7242C83.6238 12.0423 84.9004 11.2567 86.5651 10.592C86.4357 11.8437 85.6853 13.294 85.3575 14.5888C87.6433 14.2608 88.6267 11.2135 90.6623 10.592L90.7572 15.9528C92.1373 14.701 91.7233 13.4234 93.4053 12.2667C93.9315 13.8637 93.7158 20.7524 94.1299 23.5234C94.3714 25.1463 94.656 26.985 95.2253 28.5648L96.6313 31.6206C97.399 32.5443 96.6054 31.9918 97.5715 32.3026C98.5635 30.2567 97.4421 28.5906 98.6066 26.985C100.78 28.3921 101.962 31.7933 104.196 33.5284C104.438 31.7933 103.842 28.6597 103.342 26.9418C102.816 25.1636 101.393 23.0831 101.039 21.5207C104.61 21.6588 106.258 24.4212 108.63 25.4312C107.293 18.8015 105.559 13.4234 99.6762 10.3071L101.677 9.67697C101.393 9.43526 101.255 9.15039 100.004 9.16766C99.1759 9.19355 99.0638 9.34031 98.253 9.60791C98.2098 9.53885 98.1667 9.40936 98.1236 9.34031L97.4421 7.95912C96.8901 8.85689 97.3731 8.55475 96.2173 8.95185C96.1483 8.88279 96.062 8.77056 96.0362 8.7274C94.4404 6.70741 94.1126 6.33622 91.5422 4.92913C89.8515 3.98819 87.8849 3.04726 85.9096 2.38256C81.6312 0.940941 76.4299 0.233081 71.2804 0.699233C66.8985 1.07043 62.2234 2.29623 58.4712 4.21264C55.5385 5.68015 50.7512 9.21082 49.9662 11.6452C51.217 10.2899 55.0727 10.333 57.4879 10.333C56.3061 11.3171 53.6926 11.9991 51.562 14.7442Z" fill="#EBA42C"/>
<path id="Vector_5" fill-rule="evenodd" clip-rule="evenodd" d="M105.775 50.2494C105.887 50.2753 106.43 50.4739 106.499 50.4912L101.695 52.0277C100.798 52.4507 98.9775 54.7728 98.4255 55.6965L96.916 58.8733C94.8113 64.6743 97.5974 63.7506 98.5807 64.1218C99.9867 67.8769 96.502 76.6733 101.41 81.4644L117.29 93.4893C119.222 94.6461 120.887 94.8878 122.224 93.1786C123.25 91.8837 124.018 90.304 124.587 88.5947C125.752 85.0813 123.587 83.0614 119.791 80.7565C118.981 80.2731 118.454 79.9019 117.618 79.4875C110.355 75.9051 110.01 81.9219 106.456 72.1586L105.602 69.94C104.524 66.9791 104.041 64.6052 104.041 61.0486C105.292 60.8069 108.716 54.8419 117.419 55.9814L123.587 58.5021C127.641 60.9623 131.082 65.0886 134.481 66.7115C135.404 67.1518 136.232 67.5057 136.896 66.513C137.621 65.4166 135.887 64.3635 135.033 63.5261L129.064 58.174C127.969 57.2935 127.227 56.5943 126.062 55.7397C122.905 53.4348 118.144 50.9573 113.952 50.8019C114.193 50.3185 113.952 50.5602 114.676 50.2494C113.65 49.4812 111.39 49.5761 110.208 49.5761C108.802 49.5761 107.353 49.5934 106.016 50.12C105.973 50.1459 105.861 50.2063 105.775 50.2494Z" fill="#1E1E1D"/>
<path id="Vector_6" fill-rule="evenodd" clip-rule="evenodd" d="M82.7095 65.7447C82.6836 68.5589 89.1787 78.1236 90.6624 79.9278C91.6975 81.1709 92.0942 81.8097 93.0776 82.975C93.4485 83.4153 93.9315 83.9419 94.3283 84.4426C94.5008 84.6843 95.4065 85.8496 95.4928 86.0482C96.364 87.5589 95.4928 88.6983 94.8113 90.045C94.1558 91.314 93.6037 93.0491 92.9482 94.0159C90.4726 94.4303 86.8498 91.2277 83.9516 89.6911C82.3989 88.8796 82.4421 88.9918 81.8469 87.0582C79.6818 79.8156 79.3713 73.0564 78.871 71.3903C76.7232 74.9641 79.8975 85.9791 81.3207 88.9659C85.2713 97.3308 87.4191 96.9078 90.9298 99.8083C91.4301 100.205 91.1885 99.9809 91.5422 100.404C94.0868 100.119 99.2449 98.6257 100.823 97.3308C101.281 94.413 103.118 91.9269 100.228 86.7043C98.5635 83.6743 96.6745 81.5075 94.8545 78.7365C93.2501 76.3022 86.1942 63.0255 82.7095 65.7447Z" fill="white"/>
<path id="Vector_7" fill-rule="evenodd" clip-rule="evenodd" d="M82.6836 17.4893L86.3064 17.6879C86.3064 19.7683 85.9527 20.7524 85.97 23.1522C88.4714 22.1595 83.8912 24.2485 86.7635 22.686C88.2558 21.9005 86.4357 22.2026 88.342 22.1163C88.342 30.7401 92.2495 41.5825 85.7284 49.5243C84.771 50.6897 85.0298 50.7156 83.7187 51.6997C80.691 54.0045 80.8204 54.3585 76.8267 55.826L74.4633 56.5943C70.6248 57.5352 66.2775 58.0877 62.2234 57.1208C64.4833 57.3453 66.7605 58.4157 69.9175 58.502C75.6709 58.6833 81.0792 58.1567 86.3667 55.9382C87.4191 55.4979 88.6094 54.9023 89.5496 54.3585C90.3173 53.9355 90.3173 53.8491 90.9729 53.3916L92.4392 52.6665C93.2501 51.0004 93.6727 51.9414 94.5698 49.2394C95.0701 47.7547 95.1822 46.5202 95.1218 44.7247L98.0546 43.4039L97.9252 43.6283L97.33 42.5493C96.2346 42.3507 96.4329 42.5061 96.3208 40.9437C96.3036 40.3739 96.3639 39.1049 96.5192 38.5525C96.8901 37.154 97.8389 36.6274 99.4606 36.4721C99.4174 36.3598 99.3312 36.0491 99.2881 35.5743C98.8654 35.3067 99.3484 35.393 98.5376 35.3067C97.8131 35.2203 97.2006 35.5225 96.6313 36.2044C95.7343 37.3008 96.0793 37.8532 94.8372 38.5956C94.1126 37.7669 94.1558 37.6547 93.8711 36.3598L92.0942 29.2467C90.4467 22.6688 91.43 21.3049 90.8866 18.9137C90.3346 20.01 89.4375 21.7019 88.342 22.1854C88.3162 20.4934 88.3679 15.8146 88.8682 14.7442C87.859 14.9427 83.365 16.5225 82.6836 17.4893Z" fill="#A85916"/>
<path id="Vector_8" fill-rule="evenodd" clip-rule="evenodd" d="M75.9037 14.2177L84.1327 14.0882L84.2621 15.7111C85.6249 15.0723 87.6865 14.0191 89.3685 13.9932L89.0234 20.1395C90.8866 18.5425 89.1528 18.0332 91.5249 17.6361C91.7664 19.3108 91.5249 21.3308 91.6974 23.1695C92.0252 26.5966 93.9315 34.2277 94.9407 37.3699C96.1483 36.0318 96.1052 34.4262 98.5807 34.4953C100.444 34.5384 101.436 36.1009 101.565 37.9396C101.876 41.4703 99.0034 44.4571 95.8895 45.07C95.9758 48.3417 95.1822 49.0496 94.6129 51.5271C96.7176 50.9746 102.531 46.7188 103.937 43.8615C106.413 38.777 107.068 37.1972 106.232 31.4912L106.413 29.8855C107.396 29.7302 107.991 30.6538 109.199 30.9819L108.63 25.4312C106.258 24.4212 104.61 21.6588 101.039 21.5207C101.393 23.0832 102.816 25.1636 103.342 26.9419C103.842 28.6597 104.438 31.7933 104.196 33.5284C101.962 31.7933 100.772 28.3921 98.6066 26.985C97.4421 28.5907 98.5635 30.2567 97.5715 32.3026C96.6054 31.9919 97.399 32.5443 96.6313 31.6207L95.2253 28.5648C94.656 26.985 94.3714 25.1463 94.1299 23.5234C93.7158 20.7524 93.9315 13.8637 93.4053 12.2667C91.7147 13.4235 92.1373 14.7011 90.7572 15.9528L90.6623 10.592C88.6267 11.2136 87.6433 14.2608 85.3575 14.5889C85.6853 13.294 86.4357 11.8437 86.5651 10.592C84.9004 11.2567 83.6238 12.0423 81.6743 12.7243C80.0527 13.2681 77.396 13.5098 75.9037 14.2177Z" fill="#D96B08"/>
<path id="Vector_9" fill-rule="evenodd" clip-rule="evenodd" d="M108.63 25.4312L109.199 30.9818C107.991 30.6538 107.396 29.7301 106.413 29.8855L106.24 31.4912C107.068 37.1972 106.413 38.7769 103.937 43.8701C102.531 46.7188 96.7176 50.9746 94.6129 51.5271C95.1822 49.0495 95.9758 48.3417 95.8895 45.07C99.0034 44.4571 101.876 41.4703 101.565 37.9396C101.436 36.1009 100.444 34.5384 98.5807 34.4952C96.1051 34.4262 96.1483 36.0318 94.9407 37.3699C93.9315 34.2276 92.0252 26.5966 91.6974 23.1695C91.5249 21.3308 91.7664 19.3108 91.5249 17.6361C89.1528 18.0332 90.8866 18.5425 89.0234 20.1395L89.3771 13.9932C87.6865 14.0191 85.6249 15.0723 84.2621 15.7111L84.1327 14.0882L75.9037 14.2176L66.2171 14.8564C67.071 14.0191 68.339 13.8637 68.8048 12.6379C67.3988 12.1286 66.2171 12.5947 64.7421 12.5257C64.0865 12.94 63.8709 12.8796 62.8185 13.0523C62.1371 13.1818 61.6541 13.2767 60.8605 13.4062C59.6357 13.6479 58.5143 13.9328 57.2722 14.2349C54.8139 14.8564 52.5971 15.7542 50.0525 16.3412L51.562 14.7442C53.6926 11.9991 56.3061 11.3171 57.4879 10.3331C55.0727 10.3331 51.217 10.2899 49.9662 11.6452C50.7512 9.21083 55.5385 5.68017 58.4712 4.21265C62.2234 2.29625 66.8985 1.07044 71.2804 0.699248C76.4385 0.233096 81.6312 0.940956 85.9096 2.39121C87.8848 3.04727 89.8515 3.98821 91.5421 4.92914C94.1126 6.33623 94.4404 6.70743 96.0361 8.72742C96.062 8.77058 96.1483 8.8828 96.2173 8.95186C97.3731 8.55477 96.8901 8.86554 97.4421 7.95913L98.1236 9.34032C98.1667 9.40938 98.2098 9.53887 98.2529 9.60793C99.0638 9.34032 99.1759 9.19357 100.004 9.16767C101.255 9.15041 101.393 9.43528 101.677 9.67698L99.6762 10.3072C105.559 13.4235 107.293 18.8015 108.63 25.4312ZM58.9974 56.3353L58.9801 56.0505C58.1434 54.6606 49.2158 50.9141 47.7322 40.2013C47.1111 35.8764 47.551 31.8365 48.543 27.995C49.1296 25.7161 51.4585 19.941 52.9939 19.0432C54.3912 16.2549 55.6678 15.3571 59.1958 14.5025C61.1279 14.045 65.6219 12.9832 67.6662 13.0782C66.3723 13.3803 64.6558 14.6147 63.9744 15.8405C70.4695 15.4262 76.7663 14.6147 83.4771 14.7615C82.3558 16.0391 82.1833 15.7542 81.4156 16.5398C80.7341 17.2217 81.1913 16.6261 80.7341 17.3771L82.6835 17.4893C83.365 16.5225 87.859 14.9428 88.8682 14.7442C88.3679 15.8146 88.3161 20.4934 88.342 22.1854C89.4375 21.702 90.3345 20.01 90.8866 18.9137C91.43 21.3049 90.4467 22.6688 92.0942 29.2467L93.8711 36.3599C94.1557 37.6547 94.1126 37.7669 94.8372 38.5957C96.0793 37.8533 95.7342 37.3008 96.6313 36.2045C97.2006 35.5225 97.813 35.2204 98.5376 35.3067C99.3484 35.393 98.8654 35.3067 99.288 35.5743C100.142 35.7038 100.444 35.8764 100.798 36.9987C101.065 37.8705 101.039 38.8633 100.841 39.7179C100.383 41.6515 99.3915 42.5234 98.0546 43.4039L95.1218 44.7247C95.1822 46.5202 95.0701 47.7547 94.5698 49.2395C93.6727 51.9414 93.25 51.0005 92.4392 52.6665L93.4743 53.219L94.0177 52.6924C95.1391 52.1831 96.0189 51.8551 96.985 51.2594C99.0034 50.0509 102.531 47.0295 103.911 44.8714C107.051 40.0027 107.62 37.4821 106.827 30.6279C108.25 31.3099 108.647 31.8192 109.742 32.5875C110.208 25.6038 106.853 12.7415 101.695 10.7906C102.333 9.97912 101.85 10.7301 102.35 10.1777C102.988 9.5216 102.505 10.3935 103.032 9.34032C101.108 8.08862 100.754 8.51161 98.6066 8.72742C98.8913 6.36213 98.7619 6.37939 97.9252 4.71333C97.1575 5.89598 97.9942 5.52478 96.847 8.11451C95.8205 7.78648 96.6744 8.2699 95.648 7.32896C95.2685 6.94913 95.0528 6.66426 94.656 6.26717C93.7331 5.3953 93.1897 5.08453 92.0252 4.44573C89.8515 3.24582 88.273 2.56385 85.8406 1.76967C76.9561 -1.16536 65.5356 -0.509293 57.117 4.21265C54.2618 5.80965 49.1123 9.82374 48.3187 12.94C50.5097 12.3099 51.9415 11.4294 54.4602 11.0323C53.52 13.0954 49.8541 13.5357 48.8277 17.6188L53.9772 15.8146C53.4079 17.0922 53.2785 17.0232 52.485 18.0159C51.9157 18.7151 51.5879 19.3281 50.9927 20.2949C45.8604 28.9014 44.9892 40.8833 50.6045 49.3085C51.9588 51.3976 56.2113 55.5152 58.9974 56.3353Z" fill="#1E1E1D"/>
<path id="Vector_10" fill-rule="evenodd" clip-rule="evenodd" d="M87.1776 90.3903C88.0315 91.642 90.533 93.1095 92.4393 93.4635C92.9913 92.583 93.759 90.7443 94.2162 89.8206C96.1483 85.9791 94.5698 86.2899 90.9039 81.3694C88.9113 78.6761 86.8929 76.0432 85.1419 72.8147C84.633 71.891 81.7606 65.8138 81.4587 65.503C79.725 66.3144 81.5191 75.2059 81.959 77.4676C82.5715 80.6011 85.3144 88.8537 87.1776 90.3903Z" fill="#5E5E5E"/>
<path id="Vector_11" fill-rule="evenodd" clip-rule="evenodd" d="M91.5422 100.404C91.1885 99.9809 91.43 100.205 90.9297 99.8083C87.4191 96.9078 85.2713 97.3308 81.3207 88.9659C79.8975 85.9791 76.7232 74.9641 78.871 71.3903C78.8882 69.6724 78.7847 67.851 78.871 66.1677C79.0004 63.224 79.6818 64.6052 77.948 62.5161C77.3356 63.224 77.4909 63.2672 76.2833 63.4657C76.0418 62.7147 76.197 62.9996 75.7744 62.4126L74.5668 61.2903C73.9371 70.3112 73.9802 77.3985 77.1114 86.3072C78.2068 89.363 81.5881 99.04 84.8314 100.067C86.8498 100.706 89.5065 100.879 91.5422 100.404Z" fill="#F0EAC0"/>
<path id="Vector_12" fill-rule="evenodd" clip-rule="evenodd" d="M82.7094 65.7447C86.1942 63.0254 93.2501 76.3021 94.8544 78.7365C96.6745 81.5075 98.5635 83.6742 100.228 86.7042C103.118 91.9269 101.281 94.413 100.823 97.3308C102.945 96.5797 108.802 92.1254 110.07 89.4062C101.522 82.4053 96.2777 79.0645 90.6451 69.0164C88.7992 65.7447 87.6175 63.2844 87.0654 59.2099L86.0131 61.0054C84.633 60.7896 84.9607 60.3925 83.5806 59.7969C82.028 62.3694 80.6048 63.7937 82.7094 65.7447Z" fill="#F0EAC0"/>
<path id="Vector_13" fill-rule="evenodd" clip-rule="evenodd" d="M44.6615 65.1577C44.6615 65.5893 44.6356 66.1418 44.7046 66.5821C44.9634 68.274 46.1968 69.8279 47.3354 71.2349C48.5172 72.6852 51.3033 75.603 52.7092 76.5007C54.2446 77.4848 55.1417 77.8129 57.6173 77.8129C60.3602 77.7956 61.8956 77.1136 64.4143 75.8015L67.1401 74.0405C69.9003 72.1586 72.074 67.8942 67.8819 66.185C66.5621 68.6193 54.1325 73.9801 50.8892 70.7947C47.3096 67.3072 49.2848 63.4657 46.0847 64.6311C45.0324 65.0196 45.6017 64.9592 44.6615 65.1577Z" fill="#1E1E1D"/>
<path id="Vector_14" fill-rule="evenodd" clip-rule="evenodd" d="M52.9939 19.0432L55.642 18.1886C55.711 18.1627 55.7973 18.1023 55.8663 18.0764L57.9451 17.1786C58.9543 16.8506 58.9111 16.7383 60.0325 16.6779C59.1958 17.9037 58.3246 17.99 57.9709 19.3971L71.9791 17.0059C73.9112 16.8937 76.1453 17.0059 78.1033 17.0059C77.396 18.0159 77.5513 17.2476 77.4219 18.3612L82.6836 17.4894L80.7342 17.3771C81.1913 16.6261 80.7342 17.2218 81.4156 16.5398C82.1833 15.7542 82.3558 16.0391 83.4771 14.7615C76.7663 14.6148 70.4696 15.4262 63.9744 15.8406C64.6559 14.6148 66.3724 13.3803 67.6662 13.0782C65.6219 12.9832 61.1279 14.045 59.1958 14.5025C55.6679 15.3571 54.3913 16.2549 52.9939 19.0432Z" fill="#A85916"/>
<path id="Vector_15" fill-rule="evenodd" clip-rule="evenodd" d="M132.79 108.173C133.101 108.346 133.316 108.19 133.454 109.287C133.713 111.436 131.824 110.409 132.989 112.731C133.696 114.164 134.766 115.804 135.62 116.926C137.465 119.404 139.786 123.841 142.089 122.52C141.959 121.053 137.155 110.184 136.215 108.406C135.49 107.025 134.697 105.713 133.886 104.522C134.239 105.29 134.697 105.773 134.326 106.852C133.981 107.862 133.454 107.88 132.79 108.173Z" fill="#5E5E5E"/>
<path id="Vector_16" fill-rule="evenodd" clip-rule="evenodd" d="M58.3246 140.631C58.4108 141.089 58.5833 141.814 58.5833 141.831C58.6523 143.083 58.5575 144.075 56.1681 143.592L47.922 134.571C47.4217 135.055 47.5511 134.528 47.5338 135.469C47.4907 137.558 60.7311 150.282 65.6047 150.308C66.7001 148.573 67.0279 146.423 66.6139 143.592C66.5449 146.009 61.4557 144.775 60.0325 143.35C59.1354 142.453 59.6788 143.109 59.42 142.297C58.4712 139.423 58.9974 142.254 58.3159 140.631H58.3246Z" fill="#5E5E5E"/>
<path id="Vector_17" fill-rule="evenodd" clip-rule="evenodd" d="M87.1775 90.3903C85.3144 88.8537 82.5714 80.6011 81.959 77.4676C81.5191 75.2059 79.7249 66.3144 81.4587 65.503C80.7514 63.9492 81.4156 63.9664 79.8112 63.9492C78.6899 69.4998 80.8894 80.5407 82.511 86.1345C83.1666 88.3531 84.1931 89.1818 87.1775 90.3903Z" fill="#5E5E5E"/>
<path id="Vector_18" fill-rule="evenodd" clip-rule="evenodd" d="M58.3246 140.631C57.6863 140.277 57.0911 139.776 56.6771 139.483L54.374 137.731C53.4942 137.075 48.3878 132.836 47.922 134.571L56.1681 143.592C58.5661 144.075 58.6523 143.083 58.5833 141.831C58.5833 141.814 58.4108 141.089 58.3246 140.631Z" fill="#5E5E5E"/>
<path id="Vector_19" fill-rule="evenodd" clip-rule="evenodd" d="M55.6247 43.2054C56.5908 48.0827 60.9985 50.802 67.071 49.3517C69.1067 48.8683 71.8497 47.6597 73.2125 46.5893C74.1096 45.8815 74.5927 45.1132 75.4293 44.3708C77.051 42.9205 76.5679 44.9837 78.4483 43.6457L74.308 41.5652C74.9204 42.8342 74.9894 43.05 74.1786 44.1118C72.6001 46.1663 68.9342 47.7547 66.0791 48.3417C58.7386 49.861 57.0048 44.06 55.6247 43.2054Z" fill="#1E1E1D"/>
<path id="Vector_20" fill-rule="evenodd" clip-rule="evenodd" d="M38.2353 60.2199C40.5384 64.4498 43.5401 60.2372 44.6614 59.6934C44.4803 61.5752 43.2986 62.5421 41.5044 62.896C43.0139 63.9492 43.6954 64.6484 45.6016 62.6716C46.7661 61.463 47.3958 60.194 47.5338 58.1568C47.2492 59.2099 47.9737 58.5452 46.723 59.0114C46.3866 59.4258 47.1802 59.4948 45.6879 58.8733C44.4631 59.4948 43.2296 58.7438 43.0571 57.518C42.7983 55.8088 43.9541 56.4648 43.3676 55.5153C43.3676 55.5153 43.2986 55.4721 43.2986 55.4548C42.4015 57.2935 43.0398 57.0518 41.3664 58.7697C40.2106 59.9264 39.831 60.3667 38.2353 60.2199Z" fill="#A85916"/>
<path id="Vector_21" fill-rule="evenodd" clip-rule="evenodd" d="M136.698 67.6352C136.611 69.4135 136.258 69.4739 137 70.9069C136.81 71.4076 136.741 71.209 137.224 71.4507C138.733 72.4435 139.613 72.7283 141.606 71.9773C141.873 71.4939 141.787 71.6493 141.847 71.0364C142.727 68.5761 139.57 66.4957 137.224 66.6425C136.81 67.2208 136.896 67.1518 136.698 67.6352Z" fill="#A85916"/>
<path id="Vector_22" fill-rule="evenodd" clip-rule="evenodd" d="M38.2353 60.2199C39.8311 60.3667 40.2106 59.9264 41.3664 58.7697C43.0398 57.0518 42.4015 57.2935 43.2986 55.4548C41.2371 55.2304 40.1416 55.1009 38.9599 56.3526C37.9679 57.4058 37.5711 58.7438 38.2353 60.2199Z" fill="#A85916"/>
<path id="Vector_23" fill-rule="evenodd" clip-rule="evenodd" d="M140.709 73.9973C139.458 74.8519 138.871 74.8519 137.552 74.4635C137.336 75.6461 137.026 76.4748 137.509 77.7697C138.406 77.5107 137.465 78.0546 138.63 77.1999L145.332 71.7183L142.839 71.2522C142.132 72.8147 142.175 73.4966 140.709 73.9973Z" fill="white"/>
<path id="Vector_24" fill-rule="evenodd" clip-rule="evenodd" d="M51.562 14.7442L50.0525 16.3412C52.5971 15.7542 54.8139 14.8565 57.2722 14.2349C58.5143 13.9328 59.6357 13.6479 60.8605 13.4062C61.6541 13.2681 62.1371 13.1818 62.8186 13.0523C63.8709 12.8796 64.0865 12.9401 64.7421 12.5257C61.0158 12.5084 57.7035 12.7674 54.2446 13.95C53.6926 14.1486 53.3648 14.2781 52.7524 14.5457C52.6661 14.5888 52.0968 14.8047 52.0968 14.8047C51.2774 14.9428 51.9847 14.9169 51.562 14.7442Z" fill="#D96B08"/>
<path id="Vector_25" fill-rule="evenodd" clip-rule="evenodd" d="M79.1298 59.0114C78.6295 60.9364 79.5007 60.8328 80.1649 62.0845L81.4328 61.9033C82.9682 60.0386 82.4679 60.1077 83.4254 58.2431L79.1298 59.0114Z" fill="#5E5E5E"/>
<path id="Vector_26" fill-rule="evenodd" clip-rule="evenodd" d="M132.79 108.173C133.454 107.888 133.981 107.862 134.326 106.852C134.697 105.773 134.239 105.29 133.886 104.53C132.264 102.795 131.634 103.866 130.772 105.1C131.212 106.17 131.126 105.583 131.781 106.369C132.35 107.051 132.333 107.293 132.79 108.173Z" fill="#5E5E5E"/>
<path id="Vector_27" fill-rule="evenodd" clip-rule="evenodd" d="M136.939 73.1859C136.473 72.1759 136.172 71.6061 135.758 70.8378L137 70.9069C136.258 69.4739 136.611 69.4135 136.698 67.6352C135.887 68.1186 134.222 69.1718 134.239 70.622C134.265 72.2881 135.274 73.0305 136.939 73.1859Z" fill="#A85916"/>
<path id="Vector_28" fill-rule="evenodd" clip-rule="evenodd" d="M97.33 42.5493L97.2006 42.2645L96.916 40.2013L98.4513 39.2172C97.2696 37.413 98.2098 37.9396 100.159 38.2072C99.9867 37.4562 99.9867 37.5425 99.7711 37.016C99.7452 36.9555 99.5899 36.7742 99.5727 36.6448C99.5468 36.5325 99.5037 36.5325 99.4605 36.4721C97.8389 36.6189 96.8901 37.1541 96.5192 38.5525C96.3639 39.105 96.3035 40.374 96.3208 40.9437C96.4329 42.5062 96.2345 42.3508 97.33 42.5493Z" fill="#1E1E1D"/>
<path id="Vector_29" fill-rule="evenodd" clip-rule="evenodd" d="M99.4606 36.4721C99.5037 36.5325 99.5468 36.5325 99.5727 36.6447C99.5899 36.7742 99.7452 36.9555 99.7711 37.0159C99.9867 37.5425 99.9867 37.4562 100.159 38.2072L100.34 39.8732C98.4082 41.1249 99.2622 41.4702 97.2006 42.2644L97.33 42.5493L97.9252 43.6283L98.0546 43.4039C99.3916 42.5234 100.384 41.6515 100.841 39.7179C101.039 38.8632 101.065 37.8705 100.798 36.9986C100.444 35.8764 100.142 35.7038 99.288 35.5743C99.3312 36.0491 99.4174 36.3598 99.4606 36.4721Z" fill="#A85916"/>
<path id="Vector_30" fill-rule="evenodd" clip-rule="evenodd" d="M97.2007 42.2645C99.2622 41.4703 98.4083 41.125 100.34 39.8733L100.159 38.2072C98.2099 37.9396 97.2697 37.413 98.4514 39.2172L96.916 40.2013L97.2007 42.2645Z" fill="#A85916"/>
<path id="Vector_31" fill-rule="evenodd" clip-rule="evenodd" d="M70.7542 27.8483C73.0142 29.0309 73.9802 22.0041 71.0216 23.8687C72.4449 22.9882 67.6231 26.1822 70.7542 27.8483Z" fill="#1E1E1D"/>
<path id="Vector_32" fill-rule="evenodd" clip-rule="evenodd" d="M45.6879 58.8733C47.1802 59.4948 46.3952 59.4257 46.723 59.0114C47.9737 58.5452 47.2492 59.2099 47.5338 58.1568C46.7834 56.6806 45.5758 56.2835 43.9973 56.6375C43.98 58.6143 44.1525 57.8028 45.6879 58.8733Z" fill="#A85916"/>
<path id="Vector_33" fill-rule="evenodd" clip-rule="evenodd" d="M81.4328 61.9032L80.1649 62.0845C79.5007 60.8328 78.6295 60.9364 79.1298 59.0114L77.1804 59.2272C77.465 60.8501 78.6899 62.3694 80.1649 62.9823L81.4328 61.9032Z" fill="#5E5E5E"/>
<path id="Vector_34" fill-rule="evenodd" clip-rule="evenodd" d="M54.7276 29.1173C55.4522 29.5575 55.9956 29.1173 56.3234 28.677C56.979 27.7533 56.979 26.2686 56.263 25.2758C54.581 24.6111 53.8565 28.5821 54.7276 29.1173Z" fill="#1E1E1D"/>
<path id="Vector_35" fill-rule="evenodd" clip-rule="evenodd" d="M137.224 71.4507C138.25 74.567 136.758 73.4707 140.165 73.7556C140.881 72.5298 141.563 72.3744 141.847 71.0364C141.787 71.6493 141.873 71.4939 141.606 71.9773C139.613 72.7283 138.733 72.4435 137.224 71.4507Z" fill="#A85916"/>
<path id="Vector_36" fill-rule="evenodd" clip-rule="evenodd" d="M84.5467 59.3826L85.599 60.4789L86.6082 57.8029C85.0297 57.5352 84.8572 58.0187 84.5467 59.3826Z" fill="#F0EAC0"/>
<path id="Vector_37" fill-rule="evenodd" clip-rule="evenodd" d="M75.5156 60.6083C75.6191 61.7047 75.9296 62.1449 77.0682 62.7578C77.2493 61.5579 77.5771 61.8601 76.7835 60.8932C75.9555 60.194 76.6283 61.532 75.9555 59.9782C75.3776 60.4098 75.4293 59.3566 75.5156 60.6083Z" fill="#F0EAC0"/>
<path id="Vector_38" fill-rule="evenodd" clip-rule="evenodd" d="M84.5467 59.3826C84.8572 58.0186 85.0297 57.5352 86.6082 57.8028C86.7204 56.1799 86.7376 57.2935 86.3063 56.9655C84.6329 57.5611 84.4346 57.2331 83.9084 58.6574L84.5467 59.3826Z" fill="#C1BE9D"/>
<path id="Vector_39" fill-rule="evenodd" clip-rule="evenodd" d="M75.5156 60.6084C75.4293 59.3567 75.3776 60.4098 75.9555 59.9782C76.6283 61.532 75.9555 60.194 76.7836 60.8932L75.9986 59.184L74.6789 59.2704C75.0067 60.3062 74.8945 60.0818 75.5156 60.6084Z" fill="#C1BE9D"/>
</g>
</g>
</g>
</g>
<defs>
<clipPath id="clip0_85_31">
<rect width="142" height="152" fill="white" transform="translate(37)"/>
</clipPath>
</defs>
</svg>
