<svg width="310" height="275" viewBox="0 0 310 275" fill="none" xmlns="http://www.w3.org/2000/svg">
<g id="summer">
<path id="Ellipse 6" d="M0 168.491C0 121.025 96.3594 70.8013 169.137 70.8013C241.914 70.8013 310 166.72 310 214.186C310 261.652 222.729 257.39 149.951 257.39C23.2248 286.956 0 215.957 0 168.491Z" fill="#CEEAFA"/>
<g id="kids_outside 1" clip-path="url(#clip0_85_34)">
<g id="Layer_x0020_1">
<g id="_2028401415040">
<path id="Vector" fill-rule="evenodd" clip-rule="evenodd" d="M43.4022 190.726L49.0271 192.031C49.4044 192.1 49.4387 192.1 49.8846 192.168L50.9821 192.477L52.5942 192.649L53.1429 190.554C53.8975 191.138 54.3777 192.1 54.9951 192.752C55.6467 193.473 56.1269 194.091 56.6757 194.95C57.7732 196.529 58.7679 198.109 59.6596 199.963C60.62 201.852 61.306 203.603 62.0605 205.595C62.4035 206.419 63.3982 211.227 64.0155 211.707C64.873 212.429 136.865 211.124 148.184 211.673C148.87 220.292 157.17 226.027 165.402 222.627C168.488 221.357 171.369 217.614 172.158 214.317C172.364 213.424 172.33 212.669 172.639 211.742L177.2 211.57C177.989 206.351 173.53 199.414 168.866 196.873C162.966 193.611 151.716 194.538 146.435 201.612L144.445 205.286C143.999 206.282 144.274 206.144 143.519 206.454H109.221C112.033 204.359 112.582 200.547 110.181 198.384C109.358 197.594 108.192 197.731 107.643 196.77C106.854 195.293 104.488 186.399 103.802 184.03C101.881 177.299 97.4222 163.392 100.646 156.318C104.488 158.31 112.582 160.095 116.766 160.782C123.215 161.847 128.942 162.19 135.699 161.091C138.477 160.645 139.232 162.293 143.039 163.701C151.751 166.963 161.903 166.757 171.301 166.757C171.369 170.569 175.314 181.626 179.773 182.038C186.461 182.691 182.105 167.616 180.561 164.731C178.401 160.645 172.776 160.061 171.198 165.109C166.293 165.487 159.159 165.006 154.186 164.456C152.059 164.25 141.804 162.602 140.192 160.37C141.015 159.924 144.72 159.237 145.92 158.893C151.408 157.28 157.582 155.494 162.726 153.227C162.761 150.995 158.782 142.033 157.753 139.698C156.793 137.397 155.901 135.474 154.803 133.311C154.152 131.971 151.716 128.194 151.579 127.233C152.745 126.649 154.872 125.928 156.004 125.516C156.004 123.455 155.318 120.159 155.043 118.098C154.7 115.626 154.323 113.359 153.912 110.956C152.78 104.053 151.305 97.1169 149.556 90.4551L148.081 85.6819C147.704 84.6517 147.772 85.1325 147.361 84.3427C145.886 81.5955 145.543 79.0544 143.382 75.8608C142.799 75.0024 142.147 74.3499 141.667 73.3884C144.137 72.6329 146.88 72.1179 149.281 71.1563C162.829 65.6964 174.937 49.6599 172.124 34.4475C171.85 32.9366 171.575 31.8721 171.129 30.5328C170.684 29.1593 170.169 28.0948 169.723 26.8242C170.512 27.3393 173.222 30.9449 173.976 32.0438C180.013 41.1094 182.208 51.1365 182.894 52.098C185.123 51.6859 188.759 49.3852 189.822 48.0116L189.136 45.4705C190.028 46.1916 189.891 47.3248 191.125 47.7025C191.468 47.4965 194.144 44.5777 194.487 44.1312C194.247 41.7618 192.669 38.4309 191.949 36.0958C194.075 37.4351 195.207 40.6973 196.819 42.0022C198.054 41.6588 204.022 36.5422 204.605 35.3404C203.644 32.4215 198.019 24.5921 196.27 22.4288C190.268 14.9084 181.659 6.56396 171.644 4.67529C160.806 2.64927 158.062 8.38394 155.421 9.10507C153.809 7.25074 152.814 5.63679 150.653 4.40058C148.595 3.1987 146.332 2.23719 143.656 1.58475C135.665 -0.406939 125.821 -0.303921 117.315 1.41305C113.577 2.16851 109.667 3.40473 106.34 5.1217C104.179 6.22056 105.139 5.56811 103.116 4.84699C100.989 4.09152 100.406 5.1217 99.0685 5.01868C95.6386 4.67529 90.8712 -0.0292061 80.6846 6.87301C76.6716 9.58582 74.0993 12.8481 71.3554 16.9688C68.8859 20.6774 66.7594 25.3476 65.1131 30.0864C63.9126 33.5547 61.3403 42.1739 61.2031 46.0199C63.5011 46.8784 68.1656 49.5225 70.8066 49.4882L73.1046 42.3113C73.5505 42.792 73.2418 41.6245 73.4819 43.1011C73.722 44.4403 73.2761 45.1271 73.4133 46.4663C73.5848 47.9086 73.4476 49.2822 73.5505 50.7244C74.305 51.3082 77.1861 52.8878 78.318 52.8535L78.7981 50.8618C79.3126 51.2738 79.1754 52.201 79.244 52.8191C80.5474 53.7463 84.9375 54.7765 87.2355 54.3644C87.6814 53.2312 87.3384 53.7806 87.3384 53.1968L87.6128 51.9263C88.6761 56.6651 89.0877 58.3478 91.077 62.1938C94.3353 68.4779 99.6516 72.4269 106.237 74.6933C109.872 75.9639 117.041 76.6163 117.864 76.9597C111.142 79.5352 104.522 83.5185 99.4458 88.326C96.2217 91.4166 97.4908 91.0045 99.4801 94.3698C97.4908 95.812 86.3781 94.5758 83.6685 94.1981L72.5901 92.5841C72.2129 92.5154 71.1496 92.3781 70.8066 92.2751C70.1549 92.069 69.9835 91.7943 69.5033 91.2792C65.4218 87.0211 56.3327 90.146 55.4752 94.4041C55.3723 95.0566 55.4409 95.709 55.4752 96.3615C55.5095 97.1169 55.3723 97.1856 55.4409 98.2158C55.681 101.032 57.9447 101.306 59.5567 102.92C59.0766 105.255 56.9501 117.171 57.0187 119.06L58.1162 119.712C57.8075 123.078 55.098 134.203 54.2405 138.462C53.8289 140.694 53.5545 142.994 53.1086 145.089C52.3541 148.832 48.1354 167.204 47.861 170.329C46.4891 170.603 46.4548 170.26 46.1118 171.702C45.3915 174.621 45.8374 173.865 46.0432 175.651C46.1804 176.819 44.3626 184.854 44.1568 185.266C43.5737 186.262 43.4365 185.06 42.922 187.155C42.2018 190.177 42.0646 190.589 43.4022 190.726ZM69.7777 109.926C69.0917 110.647 69.0574 111.849 68.8173 112.879C68.5772 114.012 68.3371 114.836 68.0627 115.969C67.7884 117.102 67.5826 117.961 67.3082 119.094C66.9309 120.639 66.7594 120.777 65.3532 121.258L54.8579 171.736C55.3723 172.526 55.5095 171.942 56.1955 172.801C54.9608 179.36 54.8236 175.72 54.3777 177.78C54.069 179.291 55.0637 179.325 57.2245 181.489C57.8418 182.141 58.4249 182.45 59.008 183.034C64.6329 188.872 71.5612 198.521 73.1389 206.419L90.9055 206.454C89.7393 201.131 96.4275 199.38 100.921 198.246C102.361 197.903 104.934 197.8 105.962 197.148C105.86 196.083 104.968 193.473 104.591 192.34C102.464 185.987 99.0342 173.385 98.2796 167.032C97.4908 160.576 98.0052 161.229 98.9313 155.7C98.1767 155.219 97.9366 155.425 97.1821 154.67C97.7308 152.163 105.242 144.711 106.991 142.96C113.954 135.989 111.999 139.526 115.017 129.568C114.263 129.087 113.268 128.984 112.479 128.572L112.205 114.287C112.17 108.964 113.405 109.41 111.073 108.998C102.533 107.556 98.5883 106.835 89.8079 104.603C87.5442 104.053 84.4574 103.161 82.1594 102.852C81.7478 104.706 80.8903 104.878 79.93 106.08C78.2837 108.037 78.6952 109.651 73.6191 111.196C70.1549 112.226 71.2525 111.024 69.7777 109.926ZM82.3995 101.169L97.0106 104.672C100.372 105.393 109.632 107.522 112.445 107.59C112.479 105.221 113.028 102.096 112.925 100.104L109.872 102.68C107.026 102.474 102.224 97.5977 100.749 95.7777C97.6622 97.1856 87.6471 96.3615 83.5999 95.8464C82.0565 95.606 79.4841 95.1596 78.0436 95.2283C78.9696 95.9494 80.0672 96.7735 80.7531 97.632C81.1304 98.1471 81.4048 98.5935 81.7135 99.2116C82.1251 100.07 82.0908 100.414 82.3995 101.169Z" fill="#2A2629"/>
<path id="Vector_2" fill-rule="evenodd" clip-rule="evenodd" d="M152.951 59.4466L152.814 60.6828C153.706 59.5152 154.872 58.7254 155.764 57.6609C161.663 50.4153 163.309 42.7576 161.766 33.1769C160.84 27.2706 160.222 27.2362 159.125 22.8408C155.524 22.6691 156.107 20.231 154.906 19.9563C151.854 19.9563 149.59 18.0676 149.487 15.1488C149.35 10.2382 153.088 10.0665 154.289 9.44841C153.569 7.07899 148.973 4.36618 146.023 3.37034C133.573 -0.750387 119.613 0.588849 108.501 5.19033C104.453 6.87296 99.6172 10.2726 96.6333 13.2944C91.317 18.617 83.9086 31.5286 83.154 38.2592C85.8636 38.6712 88.5389 38.8773 91.4542 38.8773C93.4092 33.6577 91.9687 34.6192 96.1188 28.3007C97.3536 26.4121 97.6622 25.8283 98.8627 25.6223C98.6226 27.0645 96.9077 28.7472 95.6386 31.9407C94.987 33.6233 93.4778 37.0916 93.3749 38.8429C94.6783 38.8773 95.9473 38.8429 97.2164 38.8429C98.6912 38.8429 99.5487 39.1176 101.023 39.1176C103.39 34.9626 100.578 34.9969 109.701 24.0083C110.284 23.2872 111.004 22.7034 112.068 22.5317C111.827 23.9053 110.49 25.1759 109.701 26.3434C107.643 29.4683 104.145 35.7524 104.625 39.5641C107.026 39.9075 122.597 42.2769 124.552 42.2082C125.101 40.0448 125.272 32.1124 127.742 29.846C128.908 31.3226 125.856 35.9584 126.61 42.4486C126.679 42.4829 133.744 44.6119 134.19 44.6463C134.43 42.7233 133.847 39.0146 135.253 38.1218C136.042 39.2207 135.768 47.4965 138.923 52.0979C139.918 53.5059 140.741 53.7119 141.701 55.1541C142.97 55.0168 144.925 52.8191 149.178 53.4715C153.088 54.0553 152.643 55.8753 152.951 59.4466Z" fill="#F1BA19"/>
<path id="Vector_3" fill-rule="evenodd" clip-rule="evenodd" d="M119.613 75.9982L123.592 74.453C127.365 72.7017 129.868 70.916 132.441 67.7224C133.676 66.2115 140.329 56.0127 138.855 53.712C138.752 53.1282 137.14 51.1709 136.66 49.7286C136.385 48.8701 136.214 48.2177 136.008 47.2905C135.939 46.8784 135.871 46.535 135.768 46.0199L135.15 44.5434L134.567 45.8483L127.57 43.7535C123.523 42.792 125.067 43.1698 119.716 42.5517L104.968 40.457C103.973 40.2509 104.659 40.7317 104.076 40.1136C102.567 38.6026 105.688 32.2155 106.031 30.6016C103.699 32.6276 103.184 36.4393 101.847 39.8732L88.5732 39.7015C86.3438 54.3644 91.8315 67.9628 105.071 73.2854C109.324 74.9681 114.914 75.8952 119.613 75.9982Z" fill="#F3D2B3"/>
<path id="Vector_4" fill-rule="evenodd" clip-rule="evenodd" d="M155.078 155.013C155.284 153.124 151.785 145.329 150.825 143.509C145.028 132.109 144.205 133.448 137.586 133.448C131.343 133.448 120.402 133.688 115.154 132.864C113.508 136.126 115.052 136.333 112.205 139.148C108.672 142.582 100.886 150.206 98.554 154.155C101.023 156.764 120.231 160.92 126.439 160.885C133.847 160.851 148.664 158.001 155.078 155.013Z" fill="#5E4D88"/>
<path id="Vector_5" fill-rule="evenodd" clip-rule="evenodd" d="M62.232 45.4361C63.3296 46.1916 68.9888 48.458 70.1206 48.3893C71.4583 45.8482 72.0413 39.8044 74.4422 38.946C74.9567 39.6671 74.6823 40.1478 74.4765 41.2467C74.2021 42.7233 74.2707 48.5266 74.3393 50.1063L77.5977 51.7889C78.3865 49.7972 78.4551 47.7712 79.4498 45.6421C80.1358 46.2259 79.587 45.4361 79.8957 46.2602C80.1701 46.9814 79.9643 50.8617 80.0329 52.1666C81.3362 52.9221 84.3888 53.5402 86.3781 53.5402C86.3781 51.1021 86.1037 49.0761 86.1037 46.4663C86.1037 44.2342 86.6868 41.5558 86.5839 39.461L82.3652 39.152C81.885 33.8981 88.7104 21.7419 91.7972 17.4838C92.5518 16.4537 93.272 15.5265 94.0952 14.6337C95.2614 13.3288 94.9184 12.5733 96.4961 11.6118C96.3246 7.80013 96.4275 7.90315 98.1081 5.84279C96.2903 4.60657 92.9977 4.12582 90.1852 4.16016C83.7371 4.22883 76.3629 11.1654 72.8302 16.385C70.3264 20.0593 67.9941 24.8325 66.3135 29.4683C65.3189 32.1811 62.0262 42.895 62.232 45.4361Z" fill="#F1BA19"/>
<path id="Vector_6" fill-rule="evenodd" clip-rule="evenodd" d="M186.701 49.1792L188.759 47.7712C188.553 45.7109 186.941 43.3071 186.769 41.5215C188.004 41.4528 187.661 41.2124 189.205 43.5132C189.856 44.509 190.199 45.0928 190.885 46.226C191.777 45.8482 192.772 44.612 193.423 43.8909C193.423 42.5173 192.257 39.6671 191.777 38.3279C191.468 37.4007 191.091 36.5766 190.714 35.7525C190.302 34.8253 189.753 34.3789 189.582 33.2113C192.086 33.2113 195.104 38.2936 196.579 40.2166L197.093 40.8003C198.362 40.1136 203.027 36.1989 203.507 34.997C202.581 33.7264 201.792 32.1125 200.866 30.7732C195.618 22.8752 192.086 18.205 184.643 12.0926C183.34 11.0281 177.783 7.04472 175.794 7.01038C173.667 6.73567 169.963 7.38811 168.008 8.04056C166.43 8.55565 163.035 10.1353 162.52 11.5432C162.863 12.0926 165.916 14.6681 166.533 15.1488C169.689 17.6556 174.971 24.1801 177.44 27.5453C185.569 38.6713 185.843 47.3248 186.701 49.1792Z" fill="#F1BA19"/>
<path id="Vector_7" fill-rule="evenodd" clip-rule="evenodd" d="M132.304 129.842L132.647 129.602C132.715 129.568 132.955 129.465 133.024 129.43C141.05 125.275 141.153 123.833 139.884 113.6C139.643 111.642 138.923 108.243 138.923 106.286C138.683 105.599 139.06 105.873 138.374 105.839C137.757 106.354 136.694 108.14 136.111 108.861C134.842 108.861 134.499 108.552 133.504 108.037C133.058 107.796 131.309 106.801 131.172 106.766C130.554 106.595 128.565 108.106 126.301 108.758C121.294 110.235 118.481 109.342 113.302 109.445L113.268 127.748C115.772 129.259 123.695 130.117 127.227 130.083C129.045 130.083 130.863 129.842 132.304 129.842Z" fill="#D9E378"/>
<path id="Vector_8" fill-rule="evenodd" clip-rule="evenodd" d="M159.125 22.8408C160.222 27.2362 160.84 27.2706 161.766 33.177C163.309 42.7576 161.663 50.4153 155.764 57.6609C154.872 58.7255 153.706 59.5153 152.814 60.6828L152.951 59.4466L152.711 59.7556C151.442 61.8503 151.751 62.9835 148.218 65.3873C145.234 67.4133 143.588 67.1386 140.021 67.8254C139.541 69.199 137.62 71.6371 137.277 72.839C148.698 73.148 160.874 64.5288 166.671 54.9138C169.689 49.9002 172.124 43.2041 171.472 35.8898C171.164 32.7305 169.895 29.3996 168.591 26.8242C167.802 25.2789 167.219 24.2487 166.087 23.3559C165.127 22.6004 163.549 21.3642 162.418 21.1925C161.354 22.2227 160.943 22.6691 159.125 22.8408Z" fill="#E0960E"/>
<path id="Vector_9" fill-rule="evenodd" clip-rule="evenodd" d="M138.374 105.839C139.06 105.873 138.683 105.599 138.923 106.286C138.923 108.243 139.643 111.642 139.884 113.6C141.153 123.833 141.05 125.275 133.024 129.43C132.955 129.465 132.715 129.568 132.647 129.602L132.304 129.842C140.432 129.808 148.081 127.37 154.906 124.863C155.043 122.562 152.402 107.865 151.785 104.775C151.476 103.298 148.39 87.4676 146.88 86.094L145.406 91.5196C144.068 95.503 143.073 97.6664 141.118 101.238L138.374 105.839Z" fill="#B9CC39"/>
<path id="Vector_10" fill-rule="evenodd" clip-rule="evenodd" d="M40.3496 198.83L42.0989 198.658C42.2704 199.036 42.4075 199.277 42.2704 200.135C42.1332 200.959 41.9274 200.925 41.653 203.088C41.5158 204.256 41.5501 204.221 41.1385 204.634C41.31 206.041 40.6583 207.381 40.6583 209.304C40.6583 211.227 40.8984 212.566 42.6476 212.875C46.3862 213.459 46.4891 208.995 47.4837 206.866C47.5866 205.561 47.9639 204.771 48.204 203.603C48.4098 202.504 48.4098 201.165 49.0614 200.204L49.13 199.277C51.3251 199.826 53.5202 202.917 54.5149 204.805C55.1322 205.973 55.5438 207.14 55.9211 208.754C56.367 210.815 55.8182 212.497 55.8182 214.214L61.1345 214.18C63.0209 208.48 59.6939 200.719 55.2008 196.701C54.7893 196.323 54.4463 196.117 54.069 195.774C51.3594 193.37 50.9821 194.297 50.3305 193.13C51.0164 192.168 50.2962 193.027 50.9821 192.477L49.8846 192.168C49.4387 192.1 49.4044 192.1 49.0271 192.031L43.4022 190.726C44.1911 191.516 43.6766 190.692 43.9853 191.688L43.3336 191.997C41.1728 192.512 36.8169 191.413 30.1287 195.74C26.939 197.8 22.5831 203.054 22.8232 206.625C24.6067 207.278 26.1501 208.445 28.3795 208.48C28.4824 207.93 28.551 207.69 28.7225 207.209L29.1684 206.11C30.9519 202.058 34.9648 198.968 39.6294 197.972C39.9038 197.903 40.9327 197.663 41.0699 197.628C42.8877 197.319 42.4761 197.731 42.6819 197.903C42.1332 198.899 42.8877 198.246 41.6187 198.555L40.3496 198.83Z" fill="#C78694" stroke="#2B2A29" stroke-width="2.07173" stroke-miterlimit="2.61313"/>
<path id="Vector_11" fill-rule="evenodd" clip-rule="evenodd" d="M113.542 103.951V107.831L120.745 108.106C123.043 108.106 127.913 106.835 129.285 105.496C127.605 104.431 122.426 100.448 122.323 98.4905C122.288 97.5977 123.489 96.1555 123.935 95.4687C125.718 92.7902 129.731 87.0555 131.789 84.9265C130.692 85.2355 129.354 85.7163 128.051 85.6133C123.18 85.2012 122.734 81.7329 122.631 76.9254C120.093 78.5394 117.212 84.9608 116.046 88.3261C115.292 90.4208 114.674 93.5457 114.4 95.7434L113.782 101.856C113.748 102.989 113.542 102.955 113.542 103.951Z" fill="#D9E378"/>
<path id="Vector_12" fill-rule="evenodd" clip-rule="evenodd" d="M115.154 132.864C120.402 133.688 131.343 133.448 137.586 133.448C144.205 133.448 145.028 132.109 150.825 143.509C151.785 145.329 155.284 153.124 155.078 155.013C156.587 154.395 160.771 153.125 161.56 152.335C160.017 146.669 153.26 131.422 150.242 127.748L142.456 129.636C136.282 130.873 126.713 131.456 120.299 130.598C118.962 130.426 117.178 129.945 116.08 129.945L115.154 132.864Z" fill="#403367"/>
<path id="Vector_13" fill-rule="evenodd" clip-rule="evenodd" d="M48.8214 170.741L53.726 171.805L64.4957 120.948L59.1452 119.918C58.9394 121.635 58.1505 124.279 57.7732 126.168L53.8289 145.226C53.3487 147.458 53.2115 149.45 52.7314 151.648C51.8053 155.872 49.13 167.993 48.8214 170.741Z" fill="#9DA1A0"/>
<path id="Vector_14" fill-rule="evenodd" clip-rule="evenodd" d="M49.0614 200.204C48.4098 201.165 48.4098 202.504 48.204 203.603C47.9639 204.771 47.5866 205.561 47.4837 206.866C48.0668 206.282 47.861 207.861 48.0325 205.87C47.9982 206.316 52.0797 210.506 49.13 215.073C47.2779 217.889 43.6766 219.777 40.041 218.541C32.118 215.828 34.416 204.496 41.0356 203.981L41.1385 204.634C41.5501 204.221 41.5158 204.256 41.653 203.088C41.9274 200.925 42.1332 200.959 42.2703 200.135C42.4075 199.277 42.2704 199.036 42.0989 198.658L40.3496 198.83C27.7278 201.131 26.6303 220.464 40.5211 223.314C45.7345 224.379 49.3358 222.318 52.457 219.125C55.1322 216.378 55.8525 210.712 54.2062 206.213C53.2801 203.638 51.5652 201.303 49.0614 200.204Z" fill="#444444" stroke="#2B2A29" stroke-width="2.07173" stroke-miterlimit="2.61313"/>
<path id="Vector_15" fill-rule="evenodd" clip-rule="evenodd" d="M186.701 49.1792C185.843 47.3248 185.569 38.6713 177.44 27.5454C174.971 24.1801 169.689 17.6556 166.533 15.1488C165.916 14.6681 162.863 12.0926 162.52 11.5432C163.035 10.1353 166.431 8.55568 168.008 8.04059C169.963 7.38814 173.667 6.73569 175.794 7.01041C174.765 5.84287 163.961 2.34025 156.655 9.72322L157.787 10.7191C159.502 12.127 159.468 12.8824 159.948 14.9085C161.286 15.3205 161.869 15.5953 162.52 16.6254C163.412 18.0677 163.172 18.4454 163.035 20.0594L166.602 22.6005C170.546 25.588 172.844 28.6786 175.657 32.9366C177.337 35.4434 178.847 38.3966 180.116 41.4872C180.733 43.0324 181.385 44.5434 181.933 46.123C182.276 47.1875 182.962 50.2437 183.374 51.0335L185.946 49.8316C186.015 49.7973 186.083 49.7629 186.118 49.7286L186.701 49.1792Z" fill="#E0960E"/>
<path id="Vector_16" fill-rule="evenodd" clip-rule="evenodd" d="M52.6628 186.949C53.0743 188.185 53.1086 187.121 53.4516 188.391C53.6917 189.387 53.1429 189.112 53.9661 190.142C54.5835 190.932 55.2694 191.447 56.0926 192.443C59.934 197.251 63.4324 204.634 64.5986 210.815H73.036C73.1732 206.797 68.5429 196.976 65.9705 193.164C64.873 191.585 64.2899 190.76 63.3638 189.559C61.3402 186.846 56.6414 181.695 53.9318 179.978C53.8289 181.523 53.2458 185.953 52.6628 186.949Z" fill="#F17794"/>
<path id="Vector_17" fill-rule="evenodd" clip-rule="evenodd" d="M119.613 75.9982C123.558 75.9638 132.852 74.7963 135.802 73.4571L137.688 70.1261C138.477 68.7869 138.786 68.1688 139.438 66.7265C143.245 66.2115 143.725 66.9326 147.052 65.0096C152.094 62.0564 154.495 55.2228 148.87 54.2957C145.131 53.6432 143.519 56.1844 141.461 56.253C140.329 55.2228 140.467 54.7078 138.855 53.7119C140.329 56.0127 133.676 66.2115 132.441 67.7224C129.868 70.916 127.365 72.7016 123.592 74.4529L119.613 75.9982Z" fill="#E6AE7D"/>
<path id="Vector_18" fill-rule="evenodd" clip-rule="evenodd" d="M75.1968 210.574H141.976C143.176 210.574 143.622 209.99 143.485 207.552L107.54 207.518C105.345 207.518 103.596 208.308 101.607 208.308H95.6386C93.958 208.308 92.9977 207.518 91.2484 207.518L73.4476 207.552C74.2021 209.922 73.3447 210.574 75.1968 210.574Z" fill="#F17794"/>
<path id="Vector_19" fill-rule="evenodd" clip-rule="evenodd" d="M129.148 100.826C129.697 101.924 134.945 105.358 136.865 106.114C140.604 99.6236 142.422 98.2844 144.96 89.5622C145.166 88.8067 146.092 85.7505 145.954 84.8577L145.406 83.2437C142.627 82.0762 140.981 83.4841 139.369 85.0294C137.723 86.6777 136.934 88.0169 135.665 90.1116L129.148 100.826Z" fill="#D9E378"/>
<path id="Vector_20" fill-rule="evenodd" clip-rule="evenodd" d="M47.4837 206.866C46.4891 208.995 46.3862 213.459 42.6476 212.875C40.8984 212.566 40.6583 211.227 40.6583 209.304C40.6583 207.381 41.31 206.041 41.1385 204.634L41.0356 203.981C34.416 204.496 32.118 215.828 40.041 218.541C43.6766 219.777 47.2779 217.889 49.13 215.073C52.0797 210.506 47.9982 206.316 48.0325 205.87C47.861 207.861 48.0668 206.282 47.4837 206.866Z" fill="#131314"/>
<path id="Vector_21" fill-rule="evenodd" clip-rule="evenodd" d="M129.148 100.826L135.665 90.1117C136.934 88.017 137.723 86.6778 139.369 85.0295C140.981 83.4842 142.627 82.0763 145.406 83.2438C144.651 80.7027 142.49 79.2605 139.403 80.428C134.464 82.2823 127.639 91.5196 124.964 95.9151C125.65 97.3573 127.879 100.07 129.148 100.826Z" fill="#B9CC39"/>
<path id="Vector_22" fill-rule="evenodd" clip-rule="evenodd" d="M57.979 118.167C58.3563 118.751 58.0819 118.373 58.5964 118.751C58.665 118.785 58.6993 118.854 58.7679 118.854L59.4881 119.128C60.0369 119.266 60.8601 119.266 61.5803 119.369C66.828 120.365 65.799 121.017 67.3082 114.973C67.7883 113.153 68.2685 111.127 68.6458 109.376C66.4507 108.243 67.9598 110.029 66.9309 107.796C66.5536 107.007 61.2716 103.813 60.4142 103.367L57.979 118.167Z" fill="#F17794"/>
<path id="Vector_23" fill-rule="evenodd" clip-rule="evenodd" d="M115.154 79.1231C114.949 79.9129 113.028 82.0076 112.411 82.9004C111.553 84.2396 110.833 85.5102 110.078 87.0554C108.638 89.94 107.472 93.2365 106.477 96.4644C107.369 97.735 109.735 99.3146 111.176 100.07C114.914 97.6663 112.239 96.7735 115.154 87.9826C115.806 86.0253 116.595 83.9992 117.452 82.2479C118.447 80.3249 119.339 79.3291 120.471 77.3374C119.476 77.6465 118.962 77.6121 117.898 78.0585C116.904 78.4363 116.149 78.8827 115.154 79.1231Z" fill="#B9CC39"/>
<path id="Vector_24" fill-rule="evenodd" clip-rule="evenodd" d="M75.4369 98.1815C74.6137 98.8682 74.6823 98.3875 72.7616 98.6622C70.9781 98.9369 66.3135 99.8298 65.559 101.718C67.1367 102.165 70.2921 100.654 71.5269 101.341C71.1496 102.955 68.3028 102.611 66.6222 105.221C68.8516 105.221 70.6008 103.298 72.5215 103.538C72.1442 105.221 69.1946 105.702 67.9256 108.174C70.4293 107.831 72.5901 105.496 74.0993 105.599C74.1336 107.659 71.081 108.827 71.5269 110.475C72.8302 110.99 74.9567 107.796 76.5344 106.835C78.9353 105.427 81.3362 104.431 81.3362 101.615C81.3362 98.8682 78.1808 96.5675 76.0886 95.2969C73.036 93.4426 71.767 93.58 74.4079 96.7392C75.7456 98.3532 75.6084 97.8037 75.4369 98.1815Z" fill="#F3D2B3"/>
<path id="Vector_25" fill-rule="evenodd" clip-rule="evenodd" d="M106.477 96.4644C107.472 93.2365 108.638 89.94 110.078 87.0554C110.833 85.5102 111.553 84.2396 112.411 82.9004C113.028 82.0076 114.949 79.9129 115.154 79.123C110.387 81.9389 103.493 85.0638 100.063 89.4592C100.955 91.5196 104.625 95.4686 106.477 96.4644Z" fill="#D9E378"/>
<path id="Vector_26" fill-rule="evenodd" clip-rule="evenodd" d="M56.4699 96.2928C57.9447 95.8464 57.7046 93.786 59.591 93.9577C59.5224 95.1252 58.3563 96.7735 58.0476 98.3875C59.1109 98.0097 59.5567 97.3573 60.2084 96.6705C61.1345 95.7433 61.0316 95.0566 62.4378 95.2626C62.4035 96.0524 61.7861 96.6705 61.3402 97.323C60.7572 98.1471 60.5171 98.6622 60.1398 99.658C62.0605 98.7652 63.0552 96.0181 65.0102 96.2928C65.0445 97.5977 63.7754 99.1773 63.261 100.276C65.7304 99.349 65.4903 95.2969 69.8805 97.3573C72.1099 98.3875 71.9384 97.4603 71.1496 95.812C70.5322 94.5415 69.9834 93.4083 69.0917 92.4811C67.171 90.4551 65.1131 89.1845 61.3059 90.5924C59.1794 91.3822 55.4409 93.8203 56.4699 96.2928Z" fill="#F3D2B3"/>
<path id="Vector_27" fill-rule="evenodd" clip-rule="evenodd" d="M45.0485 185.713C46.2147 186.399 50.2619 187.258 51.6681 187.224C52.114 185.987 53.8289 177.815 53.4859 176.75L47.2779 175.308L45.0485 185.713Z" fill="#F17794"/>
<path id="Vector_28" fill-rule="evenodd" clip-rule="evenodd" d="M108.329 68.993C106.991 68.993 106.374 68.5809 107.3 69.4394C110.01 71.8431 112.754 74.0408 117.247 72.3582L118.516 71.8431C120.059 71.122 121.328 69.8858 122.048 68.3062L122.563 67.173C122.563 64.0481 123.283 63.9451 121.465 65.3186C117.864 68.0315 114.914 68.5465 110.764 69.0273C110.421 69.096 109.049 69.4737 108.329 68.993Z" fill="white" stroke="#2B2A29" stroke-width="2.07173" stroke-miterlimit="2.61313"/>
<path id="Vector_29" fill-rule="evenodd" clip-rule="evenodd" d="M154.632 19.1666C155.318 18.7888 154.872 19.1666 155.146 18.4798C155.146 18.4798 155.352 17.7586 155.352 17.6556C155.524 17.1062 155.729 16.6941 156.038 16.2821C156.827 15.2519 157.684 15.0458 158.816 14.6681C158.885 10.8908 153.74 9.07078 151.442 11.9209C148.973 14.9428 150.928 18.8575 154.632 19.1666Z" fill="#16B1C3"/>
<path id="Vector_30" fill-rule="evenodd" clip-rule="evenodd" d="M91.7972 204.908C95.2613 206.454 97.3192 205.801 100.338 205.664C101.607 205.629 101.881 205.561 101.607 204.428C101.195 202.676 100.097 201.303 98.9999 200.513C97.285 199.311 91.9001 202.745 91.7972 204.908Z" fill="#DADADA"/>
<path id="Vector_31" fill-rule="evenodd" clip-rule="evenodd" d="M180.39 181.214C180.87 177.952 181.11 177.609 180.493 174.175C180.356 173.316 180.356 171.496 179.498 171.29C178.606 171.05 175.52 172.938 175.074 174.69C174.765 176.063 177.44 180.768 180.39 181.214Z" fill="#DADADA"/>
<path id="Vector_32" fill-rule="evenodd" clip-rule="evenodd" d="M128.771 82.2136C130.177 82.2136 131.721 81.4238 132.098 80.2906C132.132 80.1189 132.441 75.6548 132.441 75.4144C131.035 75.5518 129.834 75.7922 128.531 76.0325C126.884 76.3073 125.718 75.8265 125.513 77.3031C125.135 79.7755 125.65 82.2136 128.771 82.2136Z" fill="#F3D2B3"/>
<path id="Vector_33" fill-rule="evenodd" clip-rule="evenodd" d="M104.282 199.654C105.242 200.444 106.511 200.341 106.477 202.058C105.825 201.921 104.179 200.959 103.459 200.547C102.224 202.47 102.498 203.123 102.67 205.389C104.762 204.908 107.231 204.531 109.152 203.397C109.324 203.294 109.804 202.985 109.941 202.882C110.901 202.127 110.284 202.951 110.627 202.058C110.833 200.822 109.667 197.697 105.962 198.384C104.453 198.659 105.002 198.487 104.282 199.654Z" fill="#F9B32C"/>
<path id="Vector_34" fill-rule="evenodd" clip-rule="evenodd" d="M172.433 168.474L173.839 169.195C174.525 167.787 174.216 166.86 176 166.723C175.794 167.65 175.725 167.581 175.348 168.371C173.667 171.736 178.606 170.5 179.532 169.951C179.292 168.646 178.778 167.375 178.161 166.139C177.68 165.246 176.72 163.323 176.137 162.911C174.971 162.087 173.153 163.426 172.673 164.147C171.781 165.452 172.261 166.963 172.433 168.474Z" fill="#F9B32C"/>
<path id="Vector_35" fill-rule="evenodd" clip-rule="evenodd" d="M136.385 74.4186C136.762 76.1699 136.934 79.5695 135.905 81.0118C137.345 80.9431 137.688 79.0888 141.701 79.0888C142.936 79.0888 143.176 79.4322 144.308 79.6726C143.691 78.0929 142.559 76.273 141.53 75.1054C140.089 73.4571 138.409 73.0794 136.385 74.4186Z" fill="#B9CC39"/>
<path id="Vector_36" fill-rule="evenodd" clip-rule="evenodd" d="M158.062 15.9386C154.083 17.4838 156.724 23.1155 160.017 21.7763C164.338 20.025 161.663 14.4963 158.062 15.9386Z" fill="#16B1C3"/>
<path id="Vector_37" fill-rule="evenodd" clip-rule="evenodd" d="M97.4221 11.0624C97.8337 10.9937 99.7887 9.27674 100.44 8.79599C101.401 8.04052 103.116 7.07902 103.836 6.35789C100.68 3.95413 96.7019 6.87298 97.4221 11.0624Z" fill="#16B1C3"/>
<path id="Vector_38" fill-rule="evenodd" clip-rule="evenodd" d="M99.6516 43.7192C98.0395 44.5777 97.5594 49.7286 100.166 48.9388C102.224 48.3207 102.258 42.3456 99.6516 43.7192Z" fill="#010101"/>
<path id="Vector_39" fill-rule="evenodd" clip-rule="evenodd" d="M119.305 50.1063C119.305 51.4112 119.236 51.5142 119.819 52.5788C121.225 52.7161 121.603 52.5444 122.117 51.4456C124.209 46.7067 119.305 45.6422 119.305 50.1063Z" fill="#010101"/>
<path id="Vector_40" d="M160.188 222.696C166.363 222.696 171.369 217.653 171.369 211.433C171.369 205.212 166.363 200.169 160.188 200.169C154.013 200.169 149.007 205.212 149.007 211.433C149.007 217.653 154.013 222.696 160.188 222.696Z" fill="#444444" stroke="#2B2A29" stroke-width="2.07173" stroke-miterlimit="2.61313"/>
<path id="Vector_41" d="M160.188 219.09C164.374 219.09 167.768 215.662 167.768 211.433C167.768 207.203 164.374 203.775 160.188 203.775C156.002 203.775 152.608 207.203 152.608 211.433C152.608 215.662 156.002 219.09 160.188 219.09Z" fill="#2B2A29" stroke="#2B2A29" stroke-width="2.07173" stroke-miterlimit="2.61313"/>
<path id="Vector_42" fill-rule="evenodd" clip-rule="evenodd" d="M144.137 210.746C147.12 211.055 170.203 210.815 176.343 210.78C174.971 201.715 170.546 196.152 160.325 196.117C153.774 196.117 148.047 199.414 145.68 204.702C144.994 206.179 144.068 208.754 144.137 210.746Z" fill="#F17794"/>
<path id="Vector_43" fill-rule="evenodd" clip-rule="evenodd" d="M43.8824 190.795L50.2276 192.168C48.9585 198.04 47.7238 203.912 46.4547 209.784C43.951 214.764 39.6294 213.665 40.1095 208.445L43.8824 190.795Z" fill="#9DA1A0" stroke="#2B2A29" stroke-width="2.07173" stroke-miterlimit="2.61313"/>
</g>
<g id="_2028401442784">
<path id="Vector_44" fill-rule="evenodd" clip-rule="evenodd" d="M223.572 269.913C223.263 267.921 223.469 266.685 224.395 265.14C224.772 264.453 225.218 263.972 225.698 263.251C226.247 262.461 226.418 262.083 226.899 261.397C230.26 261.603 231.357 262.702 233.175 264.006C232.078 266.307 226.693 269.638 223.572 269.913ZM249.501 261.294L265.004 261.225C264.661 271.08 250.53 271.664 249.501 261.294ZM245.008 261.877H249.158C251.456 274.789 266.17 271.183 266.17 261.877H271.246C271.246 264.659 270.766 265.037 269.943 266.822C269.12 268.642 269.017 268.539 267.302 270.359C267.233 270.428 267.165 270.531 267.062 270.6C266.993 270.668 266.925 270.771 266.822 270.84C266.719 270.943 266.445 271.183 266.342 271.286C259.859 276.815 249.467 274.789 246.071 265.243L245.008 261.877ZM159.674 256.933L180.596 256.829C182.002 257.036 181.59 257.242 183.1 257.585C187.764 258.684 198.637 256.623 206.388 256.623L229.437 256.692C227.139 261.191 224.669 260.263 218.358 260.263C199.254 260.263 179.327 260.641 160.394 260.332L159.674 256.933ZM234.341 263.457C233.072 262.324 232.146 261.431 232.181 258.752C233.93 258.684 234.581 259.027 235.748 258.203C234.581 256.967 234.513 257.31 232.249 257.516C233.244 251.953 239.898 253.808 239.863 256.452C238.766 259.027 236.159 262.118 234.341 263.457ZM249.673 245.532C256.738 243.746 265.21 242.956 270.08 248.107C273.407 249.996 275.911 256.314 276.014 260.16L241.647 260.263C240.789 254.014 240.412 254.46 242.367 251.404C243.979 248.897 244.631 248.348 247.272 246.665C248.266 246.013 248.507 245.91 249.673 245.532ZM191.674 254.632C186.667 254.872 185.5 255.422 180.527 253.979C180.973 251.37 183.923 249.756 186.598 248.966C189.719 248.073 191.571 251.576 191.674 254.632ZM194.932 247.592C198.019 245.154 201.449 246.837 201.861 250.82C200.317 252.331 189.856 258.409 193.561 249.172L197.333 250.786C197.299 249.481 197.916 250.099 194.932 247.592ZM126.336 234.028C128.119 233.685 133.367 235.093 135.974 235.264C133.984 240.827 131.823 236.569 126.336 236.569V234.028ZM141.667 229.255C144.754 231.659 148.835 236.81 151.168 240.244C151.888 241.274 152.197 241.651 152.78 242.785C153.843 244.845 154.392 246.356 155.284 248.794L157.582 254.048C158.37 256.52 158.851 257.963 159.262 260.779C147.498 260.607 150.379 261.843 148.87 256.349C147.806 252.468 145.234 246.665 142.936 243.403C142.216 242.338 141.427 240.965 140.535 239.831C139.678 238.733 138.134 237.428 137.517 236.363C135.733 233.273 137.105 229.907 137.86 226.027C139.815 227.023 140.844 227.641 141.667 229.255ZM135.047 233.753L127.639 232.483L130.074 220.567L137.071 222.009L135.047 233.753ZM129.971 216.24L132.475 216.652C134.705 217.064 137.723 217.889 139.438 217.786C138.615 219.434 138.477 218.816 138.306 220.601C135.562 220.292 132.544 219.159 130.006 219.056L129.971 216.24ZM213.899 212.12L222.165 214.386C223.023 224.86 220.485 221.632 225.355 235.505L232.969 253.602C230.946 256.04 230.534 255.628 226.624 255.593L201.003 255.696C202.238 253.602 203.953 252.331 202.855 248.966C201.792 245.566 199.528 246.425 198.431 244.055C197.093 241.136 195.275 233.822 194.246 230.319C192.291 223.692 187.318 207.072 190.405 199.689C193.355 200.169 201.792 206.763 205.462 208.102C205.531 208.033 205.668 207.758 205.702 207.862C205.736 207.93 205.908 207.621 206.148 207.346L216.609 194.916C216.472 200.753 213.934 206.248 213.899 212.12ZM241.818 211.192C235.164 212.738 221.96 211.673 215.58 209.991L215.752 206.763C216.472 202.951 217.569 198.624 217.741 194.916L217.878 191.585C216.369 192.34 207.143 203.912 205.359 206.522C203.576 205.561 201.449 204.668 200.077 203.157C198.225 202.676 189.822 197.457 187.661 196.049C188.827 193.508 192.84 189.593 194.487 187.361L206.045 172.561L206.868 168.955C210.401 169.436 212.596 169.951 216.438 170.294C220.382 170.603 223.229 170.363 227.07 170.226C233.587 169.951 240.618 168.577 246.277 166.689C248.232 177.712 248.301 199.448 245.831 210.197L241.818 211.192ZM185.912 196.839L188.656 198.178C186.049 211.398 189.685 222.112 193.355 234.372C198.088 250.408 198.328 242.991 185.26 248.073C181.659 249.481 178.641 251.37 179.361 255.559L159.468 255.662C155.112 245.257 153.774 239.213 144.925 230.388C135.528 221.082 138.752 225.924 140.124 219.915C140.604 217.648 140.295 217.614 139.575 216.79L139.095 216.309C139.746 210.918 141.598 203.912 142.73 198.659L150.139 163.289C151.957 154.258 151.579 165.143 154.495 151.408C154.838 149.725 154.769 148.317 155.318 146.772C156.827 148.042 156.038 149.279 158.953 148.626C165.264 147.149 164.544 145.57 166.945 142.754C167.768 141.827 167.734 142.239 168.557 141.14C169.552 139.87 168.831 140.144 170.032 138.977C175.622 140.041 180.87 141.586 186.495 142.857C192.189 144.093 197.814 144.952 203.781 146.085L203.85 166.586C204.776 169.642 206.457 166.895 205.188 170.844C204.262 173.728 196.613 182.622 194.246 185.301C192.909 186.846 192.669 187.361 191.468 188.941C190.028 190.795 186.495 193.92 185.912 196.839ZM222.817 169.298C219.147 169.813 207.177 168.268 205.016 166.586L204.81 146.291C208.24 145.81 212.562 146.978 216.986 146.016C224.841 144.299 223.263 142.067 226.693 144.334C228.305 145.329 228.511 145.467 230.603 145.707L233.312 141.483C233.381 141.415 233.45 141.277 233.518 141.209C233.552 141.14 233.621 141.003 233.69 140.934C239.383 131.903 239.76 129.43 242.71 119.609C242.024 120.605 241.921 116.656 243.876 123.936C246.346 133.242 251.148 155.563 251.285 163.323C245.523 165.624 237.497 167.959 231.014 168.543C228.579 168.749 225.287 168.852 222.817 169.298ZM137.688 216.172L131.961 215.244C132.612 210.677 133.744 205.87 134.773 201.268L142.113 165.452C142.662 162.946 143.485 160.37 143.862 158.104L149.624 159.168L137.688 216.172ZM144.788 157.142C142.97 157.039 143.691 156.971 143.245 156.558C142.353 156.146 142.147 157.142 143.039 152.85L145.166 139.423C146.983 140.11 148.561 141.38 150.345 142.548C151.374 143.235 151.717 143.372 152.471 144.505L153.672 146.154C153.74 146.257 153.843 146.36 153.912 146.428L154.426 146.978C153.123 149.416 152.814 155.425 151.305 157.966L144.788 157.142ZM216.849 132.315C218.461 135.44 221.685 137.672 224.326 139.389C226.315 140.694 225.149 140.385 228.133 141.999L229.883 143.269C229.951 143.338 230.088 143.441 230.157 143.544C229.54 143.887 231.563 145.604 225.973 142.411C220.45 139.251 220.656 138.977 216.129 133.963L216.849 132.315ZM165.264 130.426C171.781 130.392 178.812 132.555 186.152 131.765C191.949 131.147 190.371 130.77 193.732 134.101C195.241 135.577 198.122 138.015 200.866 138.668C201.998 138.015 204.022 136.745 204.296 136.024L203.919 143.922C200.146 144.025 175.76 138.702 171.267 137.225C168.008 136.195 170.066 133.002 165.264 130.426ZM162.075 134.238C161.183 130.941 160.017 131.971 159.159 129.43C161.149 129.156 164.407 131.319 165.882 132.555C173.153 138.702 164.407 142.445 162.692 143.578C160.565 144.952 159.605 147.321 157.479 147.39C157.547 146.325 158.336 145.604 158.919 144.883C159.742 143.853 160.531 143.544 160.257 141.896C158.267 142.205 156.621 143.75 154.117 144.677C155.318 141.518 157.479 142.136 158.576 139.87C157.033 139.045 154.666 140.831 152.574 141.312C153.843 139.423 156.69 138.977 157.547 137.122C155.729 136.264 153.329 137.878 151.305 137.122C153.26 134.513 159.022 134.238 162.075 134.238ZM140.535 131.147C141.256 126.924 145.611 124.005 150.207 124.382C153.637 124.623 157.273 129.396 157.479 132.933C155.284 132.693 154.7 131.319 152.334 132.177C151.099 132.624 150.036 134.272 149.007 135.337C149.59 134.032 150.413 132.899 150.242 131.285C147.635 131.525 147.258 133.585 145.234 134.753C145.886 132.899 146.915 132.006 147.498 129.98C145.234 130.358 144.685 132.418 142.73 133.345L144.48 128.606C141.255 128.95 142.902 129.808 140.535 131.147ZM197.779 134.204C198.705 134.959 200.18 135.749 201.14 136.642C199.974 137.878 195.173 133.894 193.869 132.59C191.708 130.358 188.347 126.992 188.279 124.554C190.405 125.413 188.827 124.314 190.096 126.271L197.779 134.204ZM222.954 136.504C220.965 135.371 218.736 132.727 217.981 130.667C219.113 128.4 223.503 123.284 225.012 121.223C226.864 118.716 227.139 118.133 229.197 116.69L229.745 116.313C232.283 114.527 238.491 109.136 240.755 116.381C242.779 118.304 238.731 127.954 237.771 130.323C236.022 134.513 233.621 138.393 231.186 142.102C228.991 141.518 223.537 137.706 222.954 136.504ZM222.234 141.724L220.039 142.926C219.593 143.097 218.255 143.544 217.638 143.716C214.654 144.505 207.211 145.398 204.913 143.647C204.982 143.441 205.325 135.783 205.599 133.894C206.8 125.516 207.005 123.558 210.332 116.175C211.224 114.184 213.591 110.544 215.237 109.479C215.786 120.124 218.838 119.197 224.909 118.957L216.506 130.254C213.694 134.993 213.659 134.341 221.445 140.968C222.165 141.586 221.651 141.003 222.234 141.724ZM229.883 109.994C229.745 113.978 226.007 117.652 222.303 118.098C219.662 118.373 218.255 117.309 217.364 115.523C216.849 114.39 216.06 112.192 216.232 110.887C216.575 108.346 215.992 110.441 216.952 109.513C218.118 111.677 216.609 115.798 221.994 116.175C226.658 116.519 227.516 114.115 227.516 109.994H229.883ZM219.25 113.669C218.598 112.947 218.29 111.917 218.427 110.921C218.667 108.895 220.107 109.891 226.315 109.891C226.041 117.137 220.382 114.939 219.25 113.669ZM231.597 110.235C233.072 109.651 236.914 109.204 238.183 109.445L239.452 112.02C235.164 110.166 232.523 112.638 230.671 113.531L231.597 110.235ZM196.407 130.667C194.795 130.358 191.125 126.065 190.131 123.764C191.022 122.425 196.03 118.579 197.711 117.377C201.724 114.493 202.547 114.596 204.605 113.256L206.388 112.192C207.589 111.574 210.641 109.891 212.425 110.303C209.646 111.677 205.805 123.558 204.879 129.259C204.124 133.894 205.531 132.521 202.684 135.371C200.729 134.616 197.882 132.143 196.407 130.667ZM243.053 113.806C240.789 112.879 240.344 110.887 239.452 108.552C243.053 108.38 246.62 106.869 250.496 106.286C253.411 105.874 257.321 103.641 259.928 102.302C264.901 99.7268 271.658 94.9193 274.676 90.2148L275.499 92.2751C276.631 97.1513 278.312 101.478 277.969 106.904C277.592 112.707 275.396 115.695 270.903 117.446C262.226 120.811 250.427 116.484 243.053 113.806ZM251.696 77.3718C252.485 78.1616 252.862 79.1231 253.274 80.4624C253.583 81.4925 253.48 81.4582 253.72 82.351L254.234 83.7933C257.321 82.8318 259.173 80.3594 263.529 81.3209C271.384 83.0378 265.862 92.1034 260.58 95.091C257.184 97.014 252.485 96.6362 250.976 97.5291L253.274 98.4562C252.245 105.771 246.929 105.771 240.206 107.316C236.845 108.071 222.851 109.926 220.313 108.38C214.002 108.621 205.325 105.255 200.935 102.508C198.397 100.894 196.304 99.0743 194.315 96.7049C192.051 94.0951 191.091 92.7559 189.342 89.2876C184.06 78.9171 184.197 69.1991 186.769 58.0387C187.696 53.9867 188.484 52.2697 191.777 50.4841C191.057 53.0939 189.856 53.8837 189.616 57.1459C194.212 57.2146 210.23 53.0252 213.591 51.3082C212.939 52.3384 211.121 53.9867 210.092 54.7422C206.011 57.6954 206.217 55.532 206.422 58.2791C217.535 58.3478 220.553 59.7214 229.985 54.9139C230.466 61.9534 236.845 70.0575 240.206 68.993L240.927 62.2282C243.43 64.3229 250.976 72.633 251.696 77.3718ZM264.833 74.0066C267.714 77.6809 268.091 77.1314 272.378 83.4499C274.368 86.4031 275.122 87.2272 272.755 90.3178C271.418 92.0691 268.708 94.4728 266.993 95.9838C265.45 97.323 264.935 97.5634 263.495 98.4562C261.437 99.7954 254.68 103.641 252.588 104.157L255.126 98.4219C258.693 97.426 261.334 96.9109 263.632 95.0223C266.993 92.2064 270.286 87.0555 268.262 82.6601C265.999 77.7152 257.801 80.5997 255.16 81.4582C254.063 77.5435 251.525 72.839 249.261 69.3707C247.546 66.7266 242.573 61.1293 240.412 60.1334C239.383 61.8504 239.349 64.8723 239.074 67.2074C238.526 67.07 239.074 67.276 238.354 66.7953C234.238 64.1168 232.283 60.5799 231.529 55.6006L230.774 52.9222C229.471 53.1282 219.524 59.5497 209.612 57.0086C210.504 54.7078 212.939 55.9097 215.477 51.8577L216.232 50.6558C216.472 50.2437 216.506 50.8618 216.952 49.1792C216.472 48.9045 217.501 47.3249 213.694 49.4882C212.802 50.0033 211.91 50.4497 210.881 50.8275C206.182 52.5444 195.927 55.2916 191.228 55.5663C192.086 53.6776 192.326 52.7161 193.252 51.1709C195.653 47.1532 195.687 49.7286 195.516 46.7067L189.033 50.2094C187.97 51.0335 184.883 53.6433 184.643 54.3301C184.506 51.6173 186.015 47.8056 187.353 45.6422C188.45 43.8566 188.69 44.0626 190.714 44.303C200.352 45.4362 205.359 45.7109 215.237 48.3207C227.996 51.7203 237.668 55.1199 248.266 61.2323C252.417 63.6361 262.535 71.019 264.833 74.0066ZM195.07 43.3415C195.961 39.2208 198.808 34.3789 200.935 30.8076C205.531 23.0812 211.053 17.5183 219.147 13.1915C226.556 9.17379 231.838 7.73153 240.172 8.86473C242.367 9.17379 245.694 9.20813 246.552 11.2685C251.696 23.3216 243.568 44.5434 239.898 54.6391C237.394 54.5361 232.283 51.8233 229.505 50.8618C219.833 47.6339 204.982 43.5475 195.07 43.3415ZM273.304 47.8056C273.304 41.2468 270.903 33.4861 268.262 28.2665C264.592 21.0896 262.226 19.6816 258.041 14.8055C260.648 15.87 263.735 18.3424 265.93 19.9907C272.756 25.0729 278.998 35.3747 281.707 43.7879C283.937 50.7931 284.348 58.9659 283.011 66.4519C282.188 71.019 278.483 82.9005 275.842 85.3729L269.943 77.2001C269.154 76.2386 268.743 75.5175 267.851 74.4873C271.212 63.6017 273.304 60.6485 273.304 47.8056ZM241.167 55.635C241.441 52.6818 249.261 37.6068 249.261 22.4975C249.227 13.7066 248.301 15.0458 247.958 10.7534C256.567 11.6462 266.479 25.8284 269.669 35.0657C271.795 41.2124 272.413 48.2177 271.624 55.1542C271.143 59.6527 268.811 70.1262 266.65 73.0451C263.769 69.8858 258.659 66.0055 254.817 63.2927C252.245 61.4383 244.082 56.5278 241.167 55.635ZM188.21 42.483C192.086 27.7857 195.824 25.1073 204.33 17.6556C208.995 13.5349 217.158 10.0666 223.4 9.51718C221.788 10.5474 219.696 11.1998 217.878 12.2987C207.177 18.7545 201.243 25.9314 195.824 37.2634C194.864 39.2551 194.452 41.0407 193.526 42.8951L188.21 42.483ZM125.89 238.149C126.747 238.286 127.811 238.321 128.565 238.492L131.103 239.248C133.024 239.728 134.396 239.935 136.282 239.385L136.762 237.908C138.923 239.076 143.005 245.257 144.445 248.348C146.64 252.983 148.595 260.538 149.384 261.637L225.149 261.5C223.777 264.418 219.696 268.608 223.743 271.767C227.687 273.209 232.078 269.604 234.719 267.715C240.309 263.8 238.869 261.362 243.739 261.362C244.151 265.689 245.523 268.642 247.889 270.977C252.965 275.922 262.192 276.403 267.817 270.84C271.109 267.612 270.8 265.826 272.172 261.397L277.18 261.294C278.346 248.416 263.015 237.496 247.923 244.982C244.116 246.837 241.064 249.962 240.001 253.739C238.766 253.327 238.8 253.121 237.462 252.777C234.101 251.85 235.336 253.361 233.861 250.065C229.54 240.381 221.685 225.34 224.292 214.901C227.722 214.626 232.043 215.966 236.571 215.313C239.829 214.832 244.254 213.768 246.757 212.154C247.889 209.132 248.884 193.233 248.884 189.147C248.85 176.784 248.129 176.269 247.546 166.345L252.725 164.182C252.108 156.146 250.324 146.325 248.712 138.496C246.174 126.202 245.214 125.241 242.539 115.179C251.182 117.961 266.307 123.352 274.813 117.206C281.845 112.158 280.678 102.302 278.621 94.3011C278.278 92.8932 276.357 88.2574 276.597 87.1242C276.94 85.4759 285.549 74.2813 284.966 55.6006C284.623 44.097 279.581 33.5548 274.127 26.5152C268.605 19.3382 261.197 13.6379 250.153 9.92926C239.177 6.25494 226.556 6.35796 215.614 10.0323C212.905 10.9594 207.417 13.2602 205.256 14.9085C204.399 15.5953 203.644 16.4537 202.581 17.2779C200.146 19.1666 198.877 19.8533 197.059 21.8794C192.189 27.305 188.553 34.6536 187.044 41.8649C186.564 44.0626 181.487 53.1282 183.374 57.0086C185.398 56.4591 184.06 56.3905 186.186 55.1199C184.54 58.1074 183.785 68.993 183.923 73.5945C184.094 79.5695 185.946 85.785 188.484 90.5582C192.875 98.8339 197.436 102.577 205.153 106.148C206.354 106.698 211.67 108.689 212.63 108.724C206.354 108.861 189.719 120.571 186.667 125.138C187.387 127.233 188.347 127.336 189.102 129.43C183.58 130.495 176.994 129.739 171.026 129.018C147.532 126.237 158.062 125.275 152.368 123.49C151.305 123.146 149.384 123.112 147.978 123.284C145.474 123.593 143.039 124.863 141.393 126.408C139.232 128.469 139.198 130.014 139.643 133.414C140.124 136.882 142.49 137.054 144.137 138.702L141.324 156.455C142.525 158.859 142.765 157.348 142.044 160.611C141.667 162.327 141.29 164.25 140.913 166.002L134.259 197.525C133.504 201.234 132.818 204.496 132.029 208.205C131.789 209.441 131.275 212.6 130.932 213.596C129.731 217.099 129.423 212.909 128.496 217.167C127.879 219.88 128.942 219.64 128.462 222.559C127.948 225.684 127.09 230.113 125.615 232.655C124.861 233.994 124.586 235.814 124.518 237.634L125.89 238.149Z" fill="#393931"/>
<path id="Vector_45" fill-rule="evenodd" clip-rule="evenodd" d="M223.126 99.0744C224.155 98.2846 224.566 97.3231 226.007 97.1857C225.801 99.4864 222.68 101.341 220.245 102.199C212.459 104.981 199.769 100.517 197.745 92.4812C199.666 93.374 198.259 92.1378 199.769 94.0952C205.599 101.547 215.957 104.672 223.126 99.0744ZM225.595 78.7798C223.503 72.7017 229.402 69.4051 229.402 74.9681C229.402 77.9556 228.373 79.3979 225.595 78.7798ZM198.499 71.7402C198.499 69.1304 199.357 67.5508 201.792 67.7225C205.599 72.2553 198.499 78.4707 198.499 71.7402ZM220.313 108.38C227.516 107.281 226.384 109.376 233.072 105.805C235.507 104.534 239.589 101.65 241.75 98.834C244.562 95.091 252.074 83.9307 251.696 77.3719C250.976 72.633 243.43 64.3229 240.927 62.2282L240.206 68.9931C236.845 70.0576 230.466 61.9535 229.985 54.9139C220.553 59.7214 217.535 58.3479 206.422 58.2792C206.217 55.532 206.011 57.6954 210.092 54.7422C211.121 53.9867 212.939 52.3385 213.591 51.3083C210.23 53.0252 194.212 57.2147 189.616 57.146C189.856 53.8837 191.057 53.0939 191.777 50.4841C188.484 52.2698 187.696 53.9868 186.769 58.0388C184.197 69.1991 184.06 78.9171 189.342 89.2876C191.091 92.7559 192.051 94.0952 194.315 96.7049C196.304 99.0744 198.397 100.894 200.935 102.508C205.325 105.255 214.002 108.621 220.313 108.38Z" fill="#F6D5B5"/>
<path id="Vector_46" fill-rule="evenodd" clip-rule="evenodd" d="M200.077 203.157C202.067 203.294 203.576 201.234 204.948 199.654L218.633 187.842C218.633 189.284 218.427 194.057 217.741 194.916C217.569 198.624 216.472 202.951 215.752 206.763L215.58 209.991C221.96 211.673 235.164 212.738 241.818 211.192C244.425 204.256 243.396 176.166 239.074 172.526C237.565 171.908 233.347 173.522 231.186 173.934C212.665 177.3 208.309 172.217 206.045 172.561L194.487 187.361C192.84 189.593 188.827 193.508 187.661 196.049C189.822 197.457 198.225 202.676 200.077 203.157Z" fill="#0D73B9"/>
<path id="Vector_47" fill-rule="evenodd" clip-rule="evenodd" d="M198.98 39.9762C199.46 36.2332 202.993 32.2498 204.913 30.2238C212.253 22.5318 233.209 29.846 226.247 46.432C224.326 46.1573 221.788 44.7837 219.764 44.0626C208.858 40.2852 200.935 40.8346 198.98 39.9762ZM195.07 43.3414C204.982 43.5475 219.833 47.6339 229.505 50.8618C232.283 51.8233 237.394 54.5361 239.898 54.6391C243.568 44.5433 251.696 23.3216 246.552 11.2684C245.694 9.20807 242.367 9.17373 240.172 8.86468C231.838 7.73148 226.556 9.17373 219.147 13.1914C211.053 17.5182 205.531 23.0812 200.935 30.8075C198.808 34.3788 195.961 39.2207 195.07 43.3414Z" fill="#D81F2B"/>
<path id="Vector_48" fill-rule="evenodd" clip-rule="evenodd" d="M241.167 55.635C244.082 56.5278 252.245 61.4384 254.817 63.2927C258.659 66.0055 263.769 69.8858 266.65 73.0451C268.811 70.1262 271.143 59.6527 271.624 55.1543C272.413 48.2177 271.795 41.2125 269.669 35.0657C266.479 25.8284 256.567 11.6462 247.958 10.7534C248.301 15.0458 249.227 13.7066 249.261 22.4975C249.261 37.6068 241.441 52.6818 241.167 55.635Z" fill="#EB7022"/>
<path id="Vector_49" fill-rule="evenodd" clip-rule="evenodd" d="M226.693 144.334L226.35 168.646L223.537 168.955C223.434 168.955 223.229 169.23 223.16 169.127C223.091 168.989 222.92 169.23 222.817 169.298C225.287 168.852 228.579 168.749 231.014 168.543C237.497 167.959 245.523 165.624 251.285 163.323C251.147 155.563 246.346 133.242 243.876 123.936C241.921 116.656 242.024 120.605 242.71 119.609C239.76 129.43 239.383 131.903 233.69 140.934C233.621 141.003 233.552 141.14 233.518 141.209C233.45 141.277 233.381 141.415 233.312 141.483L230.603 145.707C228.511 145.467 228.305 145.329 226.693 144.334Z" fill="#5BA850"/>
<path id="Vector_50" fill-rule="evenodd" clip-rule="evenodd" d="M184.643 54.3301C184.883 53.6434 187.97 51.0336 189.033 50.2094L195.516 46.7068C195.687 49.7287 195.653 47.1532 193.252 51.1709C192.326 52.7162 192.086 53.6777 191.228 55.5664C195.927 55.2916 206.182 52.5445 210.881 50.8275C211.91 50.4498 212.802 50.0034 213.694 49.4883C217.501 47.3249 216.472 48.9045 216.952 49.1792C216.506 50.8619 216.472 50.2438 216.232 50.6558L215.477 51.8577C212.939 55.9098 210.504 54.7079 209.612 57.0086C219.524 59.5497 229.471 53.1283 230.774 52.9222L231.529 55.6007C232.283 60.5799 234.238 64.1169 238.354 66.7953C239.074 67.2761 238.526 67.0701 239.074 67.2074C239.349 64.8723 239.383 61.8505 240.412 60.1335C242.573 61.1293 247.546 66.7267 249.261 69.3708C251.525 72.8391 254.063 77.5436 255.16 81.4583C257.801 80.5998 265.999 77.7153 268.262 82.6601C270.286 87.0556 266.993 92.2065 263.632 95.0223C261.334 96.911 258.693 97.4261 255.126 98.4219L252.588 104.157C254.68 103.642 261.437 99.7955 263.495 98.4563C264.935 97.5634 265.45 97.3231 266.993 95.9838C268.708 94.4729 271.418 92.0691 272.755 90.3178C275.122 87.2273 274.368 86.4031 272.378 83.4499C268.091 77.1315 267.714 77.6809 264.833 74.0066C262.535 71.0191 252.417 63.6361 248.266 61.2324C237.668 55.1199 227.996 51.7203 215.237 48.3208C205.359 45.711 200.352 45.4362 190.714 44.303C188.69 44.0627 188.45 43.8566 187.353 45.6423C186.015 47.8057 184.506 51.6173 184.643 54.3301Z" fill="#824A3D"/>
<path id="Vector_51" fill-rule="evenodd" clip-rule="evenodd" d="M273.304 47.8056C273.304 60.6485 271.212 63.6017 267.851 74.4873C268.743 75.5175 269.154 76.2386 269.943 77.2001L275.842 85.3729C278.483 82.9004 282.188 71.019 283.011 66.4519C284.348 58.9659 283.937 50.7931 281.707 43.7879C278.998 35.3747 272.756 25.0729 265.93 19.9907C263.735 18.3424 260.648 15.8699 258.042 14.8054C262.226 19.6816 264.593 21.0895 268.262 28.2665C270.903 33.486 273.304 41.2468 273.304 47.8056Z" fill="#D81F2B"/>
<path id="Vector_52" fill-rule="evenodd" clip-rule="evenodd" d="M222.817 169.298C222.92 169.23 223.091 168.989 223.16 169.127C223.229 169.23 223.434 168.955 223.537 168.955L226.35 168.646L226.693 144.334C223.263 142.067 224.841 144.299 216.986 146.016C212.562 146.978 208.24 145.81 204.81 146.291L205.016 166.586C207.177 168.268 219.147 169.814 222.817 169.298Z" fill="#86BC52"/>
<path id="Vector_53" fill-rule="evenodd" clip-rule="evenodd" d="M243.053 113.806C250.427 116.484 262.226 120.811 270.903 117.446C275.396 115.695 277.592 112.707 277.969 106.904C278.312 101.478 276.631 97.1513 275.499 92.2751L273.682 94.4385C273.236 95.091 272.858 95.6404 272.31 96.2929C271.109 97.7008 270.492 98.834 269.223 100.105C259.551 109.514 244.734 112.638 243.053 113.806Z" fill="#D81F2B"/>
<path id="Vector_54" fill-rule="evenodd" clip-rule="evenodd" d="M270.08 248.107C270.595 248.931 271.246 249.859 271.589 250.58C271.898 251.198 271.932 251.267 271.932 251.816C271.967 252.88 272.07 252.091 271.658 252.743C269.6 253.258 268.708 251.507 267.576 250.374C261.06 243.918 253 246.974 250.084 246.596C249.09 246.253 249.227 247.008 249.673 245.532C248.507 245.91 248.266 246.013 247.272 246.665C244.631 248.348 243.979 248.897 242.367 251.404C240.412 254.46 240.789 254.014 241.647 260.263L276.014 260.16C275.911 256.314 273.407 249.996 270.08 248.107Z" fill="#EB7022"/>
<path id="Vector_55" fill-rule="evenodd" clip-rule="evenodd" d="M253.102 92.1378C254.337 84.5831 266.239 85.5103 263.426 90.6268C261.78 89.7683 263.221 90.7985 262.26 88.9785C260.957 86.5748 258.041 88.0514 256.944 89.6997C257.561 91.2449 258.144 90.5238 258.487 92.4812C256.567 92.2064 256.429 91.7944 255.778 90.3865C253.686 91.8287 255.4 91.4853 253.102 92.1378ZM220.313 108.38C222.851 109.926 236.845 108.071 240.206 107.316C246.929 105.77 252.245 105.771 253.274 98.4562L250.976 97.5291C252.485 96.6362 257.184 97.014 260.58 95.091C265.861 92.1034 271.384 83.0378 263.529 81.3209C259.173 80.3594 257.321 82.8318 254.234 83.7933L253.72 82.351C253.48 81.4582 253.583 81.4926 253.274 80.4624C252.862 79.1231 252.485 78.1616 251.696 77.3718C252.074 83.9306 244.562 95.091 241.75 98.8339C239.589 101.65 235.507 104.534 233.072 105.805C226.384 109.376 227.516 107.281 220.313 108.38Z" fill="#EDB482"/>
<path id="Vector_56" fill-rule="evenodd" clip-rule="evenodd" d="M222.234 141.724C221.651 141.003 222.165 141.586 221.445 140.968C213.659 134.341 213.694 134.993 216.506 130.254L224.909 118.957C218.838 119.197 215.786 120.124 215.237 109.479C213.591 110.544 211.224 114.184 210.332 116.175C207.006 123.558 206.8 125.516 205.599 133.894C205.325 135.783 204.982 143.441 204.913 143.647C207.211 145.398 214.654 144.505 217.638 143.715C218.255 143.544 219.593 143.097 220.039 142.926L222.234 141.724Z" fill="#86BC52"/>
<path id="Vector_57" fill-rule="evenodd" clip-rule="evenodd" d="M206.045 172.561C208.309 172.217 212.665 177.299 231.186 173.934C233.347 173.522 237.565 171.908 239.075 172.526C243.396 176.166 244.425 204.256 241.818 211.192L245.831 210.197C248.301 199.448 248.232 177.712 246.277 166.689C240.618 168.577 233.587 169.951 227.07 170.226C223.229 170.363 220.382 170.603 216.438 170.294C212.596 169.951 210.401 169.436 206.868 168.955L206.045 172.561Z" fill="#064E9C"/>
<path id="Vector_58" fill-rule="evenodd" clip-rule="evenodd" d="M149.624 159.168L143.862 158.104C143.485 160.37 142.662 162.946 142.113 165.452L134.773 201.268C133.744 205.87 132.612 210.677 131.961 215.245L137.688 216.172L149.624 159.168Z" fill="#9CA49D"/>
<path id="Vector_59" fill-rule="evenodd" clip-rule="evenodd" d="M132.304 249C131.137 250.236 131.652 249.927 131.24 252.056C131 253.396 130.692 254.185 130.52 255.902C135.596 256.932 132.612 272.832 121.946 268.883C118.687 267.681 116.252 264.59 116.561 260.092C116.766 257.207 120.505 252.846 122.906 253.189C123.489 252.468 123.077 253.224 123.455 252.194C123.489 252.125 123.798 251.129 123.798 251.06C123.969 250.271 124.072 249.172 124.141 248.382C115.635 249.412 108.363 259.405 115.429 269.054C121.191 276.952 133.298 275.853 137.757 265.826L138.34 263.32C139.026 257.516 137.723 254.941 133.744 251.232C131.926 249.549 132.681 251.473 132.304 249Z" fill="#393931"/>
<path id="Vector_60" fill-rule="evenodd" clip-rule="evenodd" d="M200.489 39.3581C226.761 40.9034 226.247 50.4154 226.247 39.9762C226.247 33.4861 221.068 28.4725 215.134 28.4725C211.361 28.4725 207.486 28.4382 204.673 32.2499C203.473 33.8982 200.729 36.5423 200.489 39.3581Z" fill="#824A3D"/>
<path id="Vector_61" fill-rule="evenodd" clip-rule="evenodd" d="M155.284 248.794C155.627 250.236 155.901 250.58 156.072 252.022C156.175 252.777 156.244 252.846 156.072 253.602C155.798 254.872 156.175 253.842 155.489 254.7C154.289 252.228 155.009 250.168 149.076 240.072C145.749 234.475 143.073 232.929 140.055 229.152C139.986 229.083 139.884 229.015 139.849 228.809C139.781 228.637 139.678 228.603 139.609 228.5C140.741 228.877 140.604 228.809 141.667 229.255C140.844 227.641 139.815 227.023 137.86 226.027C137.105 229.907 135.733 233.273 137.517 236.363C138.134 237.428 139.678 238.733 140.535 239.832C141.427 240.965 142.216 242.338 142.936 243.403C145.234 246.665 147.807 252.468 148.87 256.349C150.379 261.843 147.498 260.607 159.262 260.779C158.851 257.963 158.37 256.52 157.582 254.048L155.284 248.794Z" fill="#EB7022"/>
<path id="Vector_62" fill-rule="evenodd" clip-rule="evenodd" d="M222.954 136.504C223.537 137.706 228.991 141.518 231.186 142.102C233.621 138.393 236.022 134.513 237.771 130.323C238.731 127.954 242.779 118.304 240.755 116.381C235.919 113.84 231.666 121.017 229.883 124.279C228.648 126.58 222.817 134.925 222.954 136.504Z" fill="#86BC52"/>
<path id="Vector_63" fill-rule="evenodd" clip-rule="evenodd" d="M160.394 260.332C179.327 260.641 199.254 260.263 218.358 260.263C224.669 260.263 227.139 261.191 229.437 256.692L206.388 256.623C198.637 256.623 187.764 258.684 183.1 257.585C181.59 257.242 182.002 257.036 180.596 256.829L159.674 256.932L160.394 260.332Z" fill="#EB7022"/>
<path id="Vector_64" fill-rule="evenodd" clip-rule="evenodd" d="M188.21 42.483L193.526 42.8951C194.452 41.0408 194.864 39.2551 195.824 37.2634C201.243 25.9314 207.177 18.7545 217.878 12.2987C219.696 11.1998 221.788 10.5474 223.4 9.51721C217.158 10.0666 208.995 13.5349 204.33 17.6556C195.824 25.1073 192.086 27.7858 188.21 42.483Z" fill="#EB7022"/>
<path id="Vector_65" fill-rule="evenodd" clip-rule="evenodd" d="M124.003 260.985C123.592 258.169 124.003 257.448 126.85 257.722C128.702 260.71 127.33 262.667 124.003 260.985ZM122.426 239.728C122.974 239.694 124.518 239.557 124.998 239.66C126.199 239.969 126.336 238.904 125.958 240.587L125.204 244.261L124.827 245.291L121.74 247.214L123.558 246.974C125.135 247.695 124.758 246.768 124.141 248.382C124.072 249.172 123.969 250.271 123.798 251.06C123.798 251.129 123.489 252.125 123.455 252.194C123.077 253.224 123.489 252.468 122.906 253.189C123.42 255.971 120.574 262.839 125.41 262.942C128.839 262.976 129.525 258.546 130.52 255.902C130.692 254.185 131 253.396 131.24 252.056C131.652 249.927 131.137 250.236 132.304 249L132.99 248.931C132.132 247.936 133.95 248.657 132.029 247.936L132.749 247.729C132.201 246.596 132.166 247.317 132.578 246.219L133.195 242.544V241.377L134.464 241.514C133.984 240.827 134.121 240.93 133.676 240.037C134.636 240.106 134.464 240.209 135.425 239.969C137.037 239.557 135.253 240.656 136.282 239.385C134.396 239.934 133.024 239.728 131.103 239.248L128.565 238.492C127.811 238.32 126.747 238.286 125.89 238.149C126.267 239.454 126.541 238.733 125.41 239.282C124.724 239.282 124.278 239.248 123.592 239.351C122.494 239.522 122.803 239.522 122.426 239.728Z" fill="#9CA49D"/>
<path id="Vector_66" fill-rule="evenodd" clip-rule="evenodd" d="M243.053 113.806C244.734 112.638 259.551 109.513 269.223 100.104C270.492 98.8339 271.109 97.7007 272.31 96.2928C272.858 95.6403 273.236 95.0909 273.682 94.4385L275.499 92.2751L274.676 90.2147C271.658 94.9192 264.901 99.7267 259.928 102.302C257.321 103.641 253.411 105.873 250.496 106.286C246.62 106.869 243.053 108.38 239.452 108.552C240.344 110.887 240.789 112.879 243.053 113.806Z" fill="#B70408"/>
<path id="Vector_67" fill-rule="evenodd" clip-rule="evenodd" d="M222.954 136.504C222.817 134.925 228.648 126.58 229.882 124.279C231.666 121.017 235.919 113.84 240.755 116.381C238.491 109.136 232.283 114.527 229.745 116.313L229.197 116.69C227.139 118.133 226.864 118.716 225.012 121.223C223.503 123.284 219.113 128.4 217.981 130.667C218.736 132.727 220.965 135.371 222.954 136.504Z" fill="#5BA850"/>
<path id="Vector_68" fill-rule="evenodd" clip-rule="evenodd" d="M130.52 255.902C129.525 258.546 128.839 262.976 125.41 262.942C120.574 262.839 123.42 255.971 122.906 253.19C120.505 252.846 116.766 257.207 116.561 260.092C116.252 264.59 118.687 267.681 121.946 268.883C132.612 272.832 135.596 256.933 130.52 255.902Z" fill="#0B0B0A"/>
<path id="Vector_69" fill-rule="evenodd" clip-rule="evenodd" d="M246.071 265.243C249.467 274.789 259.859 276.815 266.342 271.286C266.445 271.183 266.719 270.943 266.822 270.84C266.925 270.771 266.993 270.668 267.062 270.6C267.165 270.531 267.233 270.428 267.302 270.359C269.017 268.539 269.12 268.642 269.943 266.822C270.766 265.037 271.246 264.659 271.246 261.877H266.17C266.17 271.183 251.456 274.789 249.158 261.877H245.008L246.071 265.243Z" fill="#393931"/>
<path id="Vector_70" fill-rule="evenodd" clip-rule="evenodd" d="M206.388 112.192C204.399 116.793 200.42 119.678 197.436 131.044L196.407 130.667C197.882 132.143 200.729 134.616 202.684 135.371C205.531 132.521 204.124 133.894 204.879 129.259C205.805 123.558 209.646 111.677 212.425 110.303C210.641 109.891 207.589 111.574 206.388 112.192Z" fill="#5BA850"/>
<path id="Vector_71" fill-rule="evenodd" clip-rule="evenodd" d="M162.075 134.238C159.022 134.238 153.26 134.513 151.305 137.122C153.329 137.878 155.729 136.264 157.547 137.122C156.69 138.977 153.843 139.423 152.574 141.312C154.666 140.831 157.033 139.045 158.576 139.87C157.479 142.136 155.318 141.518 154.117 144.677C156.621 143.75 158.268 142.205 160.257 141.896C160.531 143.544 159.742 143.853 158.919 144.883C158.336 145.604 157.547 146.325 157.479 147.39C159.605 147.321 160.565 144.952 162.692 143.578C164.407 142.445 173.153 138.702 165.882 132.555C164.407 131.319 161.149 129.156 159.159 129.43C160.017 131.971 161.183 130.941 162.075 134.238Z" fill="#F6D5B5"/>
<path id="Vector_72" fill-rule="evenodd" clip-rule="evenodd" d="M143.245 156.558C144.685 153.777 145.268 143.029 146.572 141.415C148.664 142.239 147.292 143.681 146.366 148.454C145.817 151.236 145.2 154.155 144.788 157.142L151.305 157.966C152.814 155.425 153.123 149.416 154.426 146.978L153.912 146.428C153.843 146.36 153.74 146.257 153.672 146.154L152.471 144.505C151.717 143.372 151.374 143.235 150.345 142.548C148.561 141.38 146.983 140.11 145.166 139.423L143.039 152.85C142.147 157.142 142.353 156.146 143.245 156.558Z" fill="#EB7022"/>
<path id="Vector_73" fill-rule="evenodd" clip-rule="evenodd" d="M196.407 130.667L197.436 131.044C200.42 119.678 204.399 116.793 206.388 112.192L204.605 113.257C202.547 114.596 201.724 114.493 197.711 117.377C196.03 118.579 191.022 122.425 190.131 123.764C191.125 126.065 194.795 130.358 196.407 130.667Z" fill="#86BC52"/>
<path id="Vector_74" fill-rule="evenodd" clip-rule="evenodd" d="M140.535 131.147C142.902 129.808 141.255 128.95 144.48 128.606L142.73 133.345C144.685 132.418 145.234 130.358 147.498 129.98C146.915 132.006 145.886 132.899 145.234 134.753C147.258 133.585 147.635 131.525 150.242 131.285C150.413 132.899 149.59 134.032 149.007 135.337C150.036 134.272 151.099 132.624 152.334 132.177C154.7 131.319 155.284 132.693 157.479 132.933C157.273 129.396 153.637 124.623 150.207 124.382C145.611 124.005 141.255 126.924 140.535 131.147Z" fill="#F6D5B5"/>
<path id="Vector_75" fill-rule="evenodd" clip-rule="evenodd" d="M265.004 261.225L249.501 261.294C250.53 271.664 264.661 271.08 265.004 261.225Z" fill="#0B0B0A"/>
<path id="Vector_76" fill-rule="evenodd" clip-rule="evenodd" d="M132.99 248.931L132.304 249C132.681 251.473 131.926 249.55 133.744 251.232C137.723 254.941 139.026 257.516 138.34 263.32L137.757 265.826C133.298 275.854 121.191 276.952 115.429 269.054C108.363 259.405 115.635 249.412 124.141 248.382C124.758 246.768 125.135 247.695 123.558 246.974L121.74 247.214C107.231 249.962 107.712 272.214 122.323 274.652C138.82 277.399 145.165 256.761 132.99 248.931Z" fill="#393931"/>
<path id="Vector_77" fill-rule="evenodd" clip-rule="evenodd" d="M137.071 222.009L130.074 220.567L127.639 232.483L135.047 233.753L137.071 222.009Z" fill="#EB7022"/>
<path id="Vector_78" fill-rule="evenodd" clip-rule="evenodd" d="M200.489 39.3582C200.729 36.5423 203.473 33.8982 204.673 32.2499C207.486 28.4382 211.361 28.4726 215.134 28.4726C221.068 28.4726 226.247 33.4861 226.247 39.9763C226.247 50.4154 226.761 40.9034 200.489 39.3582ZM198.98 39.9763C200.935 40.8348 208.858 40.2853 219.764 44.0627C221.788 44.7838 224.326 46.1574 226.247 46.4321C233.209 29.8462 212.253 22.5319 204.913 30.2239C202.993 32.2499 199.46 36.2333 198.98 39.9763Z" fill="#0B0B0A"/>
<path id="Vector_79" fill-rule="evenodd" clip-rule="evenodd" d="M132.578 246.219C133.95 246.631 135.905 248.142 136.625 248.828C141.976 253.876 140.81 258.031 141.564 262.908L144.823 262.873C147.018 253.739 138.992 244.673 133.195 242.544L132.578 246.219Z" fill="#EB7022"/>
<path id="Vector_80" fill-rule="evenodd" clip-rule="evenodd" d="M200.077 203.157C201.449 204.668 203.576 205.561 205.359 206.522C207.143 203.913 216.369 192.34 217.878 191.585L217.741 194.916C218.427 194.057 218.633 189.284 218.633 187.842L204.948 199.654C203.576 201.234 202.067 203.294 200.077 203.157Z" fill="#064E9C"/>
<path id="Vector_81" fill-rule="evenodd" clip-rule="evenodd" d="M124.827 245.291L125.204 244.261C120.779 244.261 116.732 245.704 113.645 247.798C110.01 250.339 110.147 252.125 107.574 256.211C106.408 255.799 105.722 255.525 104.865 254.941L105.208 253.67C105.071 251.163 105.551 251.095 106.854 249.275C110.01 244.811 111.484 243.952 117.555 241.858L125.958 240.587C126.336 238.904 126.198 239.969 124.998 239.66C124.518 239.557 122.974 239.694 122.426 239.728C116.355 240.553 114.057 241.48 109.907 244.536C108.055 245.875 106.614 247.146 105.619 248.966C104.865 250.374 103.459 254.082 103.321 255.559C105.688 256.28 105.311 257.276 108.432 257.688C111.553 250.236 115.429 246.528 124.827 245.291Z" fill="#393931"/>
<path id="Vector_82" fill-rule="evenodd" clip-rule="evenodd" d="M117.555 241.857C119.373 241.754 119.99 241.239 121.157 242.064C119.476 242.922 117.898 243.128 115.909 244.09C106.614 248.657 105.585 254.151 105.208 253.67L104.865 254.941C105.722 255.525 106.408 255.799 107.574 256.211C110.147 252.125 110.01 250.339 113.645 247.798C116.732 245.703 120.779 244.261 125.204 244.261L125.958 240.587L117.555 241.857Z" fill="#EB7022"/>
<path id="Vector_83" fill-rule="evenodd" clip-rule="evenodd" d="M133.195 242.544C138.992 244.673 147.018 253.739 144.823 262.873L141.564 262.907C140.81 258.031 141.976 253.876 136.625 248.828C135.905 248.142 133.95 246.631 132.578 246.219C132.166 247.317 132.201 246.596 132.749 247.729C135.288 248.828 137.345 251.266 138.649 253.67C141.084 258.306 139.781 258.958 140.398 264.006H145.954C146.778 258.443 145.851 254.254 143.416 249.859C140.844 245.154 138.031 243.952 134.464 241.514L133.195 241.377V242.544Z" fill="#393931"/>
<path id="Vector_84" fill-rule="evenodd" clip-rule="evenodd" d="M249.673 245.532C249.227 247.008 249.09 246.253 250.084 246.596C253 246.974 261.06 243.918 267.576 250.374C268.708 251.507 269.6 253.258 271.658 252.743C272.07 252.091 271.967 252.88 271.932 251.816C271.932 251.267 271.898 251.198 271.589 250.58C271.246 249.859 270.595 248.931 270.08 248.107C265.21 242.956 256.738 243.746 249.673 245.532Z" fill="#EDB482"/>
<path id="Vector_85" fill-rule="evenodd" clip-rule="evenodd" d="M191.674 254.632C191.571 251.576 189.719 248.073 186.598 248.966C183.923 249.756 180.973 251.37 180.527 253.979C185.5 255.422 186.667 254.872 191.674 254.632Z" fill="#D2E9D0"/>
<path id="Vector_86" fill-rule="evenodd" clip-rule="evenodd" d="M223.572 269.913C226.693 269.638 232.078 266.307 233.175 264.006C231.357 262.702 230.26 261.603 226.899 261.397C226.418 262.083 226.247 262.461 225.698 263.251C225.218 263.972 224.772 264.453 224.395 265.14C223.469 266.685 223.263 267.921 223.572 269.913Z" fill="#D2E9D0"/>
<path id="Vector_87" fill-rule="evenodd" clip-rule="evenodd" d="M155.284 248.794C154.392 246.356 153.843 244.845 152.78 242.785C152.197 241.651 151.888 241.274 151.168 240.244C148.835 236.81 144.754 231.659 141.667 229.255C140.604 228.809 140.741 228.877 139.609 228.5C139.678 228.603 139.781 228.637 139.849 228.809C139.884 229.015 139.986 229.083 140.055 229.152C143.073 232.929 145.749 234.475 149.076 240.072C155.009 250.168 154.289 252.228 155.489 254.7C156.175 253.842 155.798 254.872 156.072 253.602C156.244 252.846 156.175 252.777 156.072 252.022C155.901 250.58 155.627 250.236 155.284 248.794Z" fill="#EDB482"/>
<path id="Vector_88" fill-rule="evenodd" clip-rule="evenodd" d="M234.341 263.457C236.159 262.118 238.766 259.027 239.863 256.452C239.898 253.808 233.244 251.953 232.249 257.516C234.513 257.31 234.581 256.967 235.748 258.203C234.581 259.027 233.93 258.684 232.18 258.752C232.146 261.431 233.072 262.324 234.341 263.457Z" fill="#F8A631"/>
<path id="Vector_89" fill-rule="evenodd" clip-rule="evenodd" d="M194.932 247.592C197.916 250.099 197.299 249.481 197.333 250.786L193.561 249.172C189.856 258.409 200.317 252.331 201.861 250.82C201.449 246.837 198.019 245.154 194.932 247.592Z" fill="#F8A631"/>
<path id="Vector_90" fill-rule="evenodd" clip-rule="evenodd" d="M226.007 97.1857C224.566 97.3231 224.155 98.2846 223.126 99.0744C215.957 104.672 205.599 101.547 199.769 94.0952C198.259 92.1378 199.666 93.374 197.745 92.4812C199.769 100.517 212.459 104.981 220.245 102.199C222.68 101.341 225.801 99.4864 226.007 97.1857Z" fill="#393931"/>
<path id="Vector_91" fill-rule="evenodd" clip-rule="evenodd" d="M284.314 253.602C284.314 247.489 280.233 242.167 275.191 239.488C274.436 239.11 273.441 238.527 272.687 238.218C269.531 236.947 270.046 238.389 269.874 238.527C273.682 240.518 277.077 240.69 280.987 246.631C282.188 248.451 283.079 251.335 283.216 254.048C283.422 258.375 282.359 261.053 283.216 262.255C284.245 261.465 283.765 262.324 284.108 260.538L284.314 253.602Z" fill="#393931"/>
<path id="Vector_92" fill-rule="evenodd" clip-rule="evenodd" d="M98.7255 262.221C100.063 260.263 96.7705 253.293 100.886 246.528C105.414 239.11 110.01 240.484 111.416 237.84C107.574 237.943 106.408 239.316 104.145 241.102C101.332 243.3 102.395 242.167 100.509 244.811C97.3879 249.275 95.9473 260.057 98.7255 262.221Z" fill="#393931"/>
<path id="Vector_93" fill-rule="evenodd" clip-rule="evenodd" d="M226.315 109.891C220.107 109.891 218.667 108.895 218.427 110.921C218.29 111.917 218.598 112.947 219.25 113.669C220.382 114.939 226.041 117.137 226.315 109.891Z" fill="#F6D5B5"/>
<path id="Vector_94" fill-rule="evenodd" clip-rule="evenodd" d="M229.883 109.994H227.516C227.516 114.115 226.658 116.519 221.994 116.175C216.609 115.798 218.118 111.677 216.952 109.513C215.992 110.441 216.575 108.346 216.232 110.887C216.06 112.192 216.849 114.39 217.364 115.523C218.255 117.308 219.662 118.373 222.303 118.098C226.007 117.652 229.745 113.978 229.883 109.994Z" fill="#064E9C"/>
<path id="Vector_95" fill-rule="evenodd" clip-rule="evenodd" d="M269.806 241.926C270.903 243.128 267.885 242.029 272.378 243.746C273.27 244.09 274.299 244.639 275.019 245.223C284.04 252.056 279.306 259.199 280.919 262.255C281.467 261.706 281.81 262.049 281.982 259.13C282.05 257.928 282.016 256.177 281.982 254.941C281.742 248.76 275.945 242.098 269.806 241.926Z" fill="#393931"/>
<path id="Vector_96" fill-rule="evenodd" clip-rule="evenodd" d="M101.023 262.186C101.984 260.332 99.823 254.632 102.841 249.412C107.129 242.064 109.564 245.154 111.45 241.858C106.923 242.27 103.733 245.36 101.744 248.76C100.132 251.507 98.554 259.954 101.023 262.186Z" fill="#393931"/>
<path id="Vector_97" fill-rule="evenodd" clip-rule="evenodd" d="M117.555 241.858C111.484 243.952 110.01 244.811 106.854 249.275C105.551 251.095 105.071 251.163 105.208 253.67C105.585 254.151 106.614 248.657 115.909 244.09C117.898 243.128 119.476 242.922 121.157 242.064C119.99 241.239 119.373 241.754 117.555 241.858Z" fill="#EDB482"/>
<path id="Vector_98" fill-rule="evenodd" clip-rule="evenodd" d="M126.336 236.569C131.823 236.569 133.984 240.827 135.974 235.264C133.367 235.093 128.119 233.685 126.336 234.028V236.569Z" fill="#585756"/>
<path id="Vector_99" fill-rule="evenodd" clip-rule="evenodd" d="M224.326 139.389C221.685 137.672 218.461 135.44 216.849 132.315L216.129 133.963C220.656 138.977 220.45 139.251 225.972 142.411C231.563 145.604 229.54 143.887 230.157 143.544C230.088 143.441 229.951 143.338 229.883 143.269L228.133 141.999C225.149 140.385 226.315 140.694 224.326 139.389Z" fill="#064E9C"/>
<path id="Vector_100" fill-rule="evenodd" clip-rule="evenodd" d="M138.306 220.601C138.477 218.816 138.615 219.434 139.438 217.786C137.723 217.889 134.704 217.064 132.475 216.652L129.971 216.24L130.006 219.056C132.544 219.159 135.562 220.292 138.306 220.601Z" fill="#585756"/>
<path id="Vector_101" fill-rule="evenodd" clip-rule="evenodd" d="M198.5 71.7401C198.5 78.4707 205.599 72.2552 201.792 67.7224C199.357 67.5507 198.5 69.1303 198.5 71.7401Z" fill="#0B0B0A"/>
<path id="Vector_102" fill-rule="evenodd" clip-rule="evenodd" d="M201.14 136.642C200.18 135.749 198.705 134.959 197.779 134.204L190.096 126.271C188.827 124.314 190.405 125.413 188.279 124.554C188.347 126.992 191.708 130.358 193.869 132.59C195.173 133.895 199.974 137.878 201.14 136.642Z" fill="#064E9C"/>
<path id="Vector_103" fill-rule="evenodd" clip-rule="evenodd" d="M253.102 92.1378C255.4 91.4853 253.686 91.8287 255.778 90.3865C256.429 91.7944 256.567 92.2064 258.487 92.4812C258.144 90.5238 257.561 91.2449 256.944 89.6997C258.041 88.0514 260.957 86.5748 262.26 88.9785C263.221 90.7985 261.78 89.7683 263.426 90.6268C266.239 85.5103 254.337 84.5831 253.102 92.1378Z" fill="#393931"/>
<path id="Vector_104" fill-rule="evenodd" clip-rule="evenodd" d="M225.595 78.7797C228.373 79.3978 229.402 77.9556 229.402 74.9681C229.402 69.4051 223.503 72.7017 225.595 78.7797Z" fill="#0B0B0A"/>
<path id="Vector_105" fill-rule="evenodd" clip-rule="evenodd" d="M143.245 156.558C143.691 156.971 142.97 157.039 144.788 157.142C145.2 154.155 145.817 151.236 146.366 148.454C147.292 143.681 148.664 142.239 146.572 141.415C145.268 143.029 144.685 153.777 143.245 156.558Z" fill="#EDB482"/>
<path id="Vector_106" fill-rule="evenodd" clip-rule="evenodd" d="M231.597 110.235L230.671 113.531C232.523 112.638 235.164 110.166 239.452 112.02L238.183 109.445C236.914 109.204 233.072 109.651 231.597 110.235Z" fill="#5BA850"/>
<path id="Vector_107" fill-rule="evenodd" clip-rule="evenodd" d="M124.586 260.023C124.929 257.585 127.125 257.963 126.61 260.298C125.856 260.573 127.673 260.985 125.478 260.538C123.935 260.229 125.135 260.504 124.586 260.023ZM124.003 260.985C127.33 262.667 128.702 260.71 126.85 257.722C124.003 257.448 123.592 258.169 124.003 260.985Z" fill="#734E0F"/>
<path id="Vector_108" fill-rule="evenodd" clip-rule="evenodd" d="M124.586 260.023C125.135 260.504 123.935 260.229 125.478 260.538C127.673 260.984 125.856 260.572 126.61 260.298C127.125 257.963 124.929 257.585 124.586 260.023Z" fill="#EB7022"/>
</g>
</g>
</g>
</g>
<defs>
<clipPath id="clip0_85_34">
<rect width="263" height="275" fill="white" transform="translate(22)"/>
</clipPath>
</defs>
</svg>
